{
.appVersion = "1200";
classes = (
{
automatic = 1;

glyphs = (
{
color = 3;
glyphname = A;
lastChange = "2019-01-08 20:10:24 +0000";
layers = (
{
anchors = (
{
name = bottom;
position = "{326, 0}";
},
{
name = ogonek;
position = "{641, 10}";
},
{
name = top;
position = "{326, 658}";
}
);
background = {
paths = (
{
closed = 1;
nodes = (
"25 -2 OFFCURVE",
"92 2 OFFCURVE",
"112 2 CURVE SMOOTH",
"146 2 OFFCURVE",
"181 -1 OFFCURVE",
"215 -3 CURVE",
"216 0 OFFCURVE",
"217 5 OFFCURVE",
"217 10 CURVE SMOOTH",
"217 18 OFFCURVE",
"215 26 OFFCURVE",
"213 26 CURVE SMOOTH",
"201 26 OFFCURVE",
"167 33 OFFCURVE",
"155 42 CURVE SMOOTH",
"150 46 OFFCURVE",
"147 53 OFFCURVE",
"147 62 CURVE SMOOTH",
"147 75 OFFCURVE",
"151 99 OFFCURVE",
"164 131 CURVE",
"208 244 LINE",
"258 247 OFFCURVE",
"304 249 OFFCURVE",
"339 249 CURVE SMOOTH",
"364 249 OFFCURVE",
"393 248 OFFCURVE",
"419 246 CURVE",
"466 118 LINE",
"471 105 OFFCURVE",
"476 77 OFFCURVE",
"476 60 CURVE SMOOTH",
"476 55 OFFCURVE",
"475 49 OFFCURVE",
"474 44 CURVE SMOOTH",
"472 33 OFFCURVE",
"439 26 OFFCURVE",
"423 26 CURVE SMOOTH",
"420 26 OFFCURVE",
"418 19 OFFCURVE",
"418 12 CURVE SMOOTH",
"418 6 OFFCURVE",
"420 -1 OFFCURVE",
"422 -3 CURVE",
"461 -1 OFFCURVE",
"499 2 OFFCURVE",
"533 2 CURVE SMOOTH",
"545 2 OFFCURVE",
"581 0 OFFCURVE",
"648 -3 CURVE",
"649 1 OFFCURVE",
"650 4 OFFCURVE",
"650 7 CURVE SMOOTH",
"650 20 OFFCURVE",
"649 26 OFFCURVE",
"646 26 CURVE SMOOTH",
"630 26 OFFCURVE",
"586 40 OFFCURVE",
"578 60 CURVE SMOOTH",
"571 77 OFFCURVE",
"561 101 OFFCURVE",
"549 132 CURVE SMOOTH",
"354 646 LINE SMOOTH",
"350 657 OFFCURVE",
"346 663 OFFCURVE",
"337 663 CURVE SMOOTH",
"320 663 OFFCURVE",
"312 654 OFFCURVE",
"304 634 CURVE SMOOTH",
"112 139 LINE SMOOTH",
"95 94 OFFCURVE",
"79 63 OFFCURVE",
"65 45 CURVE SMOOTH",
"56 33 OFFCURVE",
"24 26 OFFCURVE",
"8 26 CURVE SMOOTH",
"5 26 OFFCURVE",
"4 21 OFFCURVE",
"4 12 CURVE SMOOTH",
"4 5 OFFCURVE",
"5 0 OFFCURVE",
"8 -3 CURVE"
);
},
{
closed = 1;
nodes = (
"291 297 OFFCURVE",
"264 298 OFFCURVE",
"229 299 CURVE",
"333 568 LINE",
"301 568 LINE",
"400 300 LINE",
"369 298 OFFCURVE",
"333 297 OFFCURVE",
"304 297 CURVE SMOOTH"
);
}
);
};
guideLines = (
{
angle = 90;
position = "{653, 111}";
}
);
layerId = "0276F023-BC64-4582-8657-390FE5DB601E";
paths = (
{
closed = 1;
nodes = (
"413 301 LINE",
"380 298 OFFCURVE",
"337 297 OFFCURVE",
"304 297 CURVE SMOOTH",
"288 297 OFFCURVE",
"253 298 OFFCURVE",
"208 300 CURVE",
"191 243 LINE",
"248 247 OFFCURVE",
"300 249 OFFCURVE",
"339 249 CURVE SMOOTH",
"368 249 OFFCURVE",
"403 248 OFFCURVE",
"433 245 CURVE"
);
},
{
closed = 1;
nodes = (
"466 118 LINE SMOOTH",
"471 105 OFFCURVE",
"476 77 OFFCURVE",
"476 60 CURVE SMOOTH",
"476 55 OFFCURVE",
"475 49 OFFCURVE",
"474 44 CURVE SMOOTH",
"472 33 OFFCURVE",
"439 26 OFFCURVE",
"423 26 CURVE SMOOTH",
"420 26 OFFCURVE",
"418 19 OFFCURVE",
"418 12 CURVE SMOOTH",
"418 6 OFFCURVE",
"420 -1 OFFCURVE",
"422 -3 CURVE",
"461 -1 OFFCURVE",
"499 2 OFFCURVE",
"533 2 CURVE SMOOTH",
"545 2 OFFCURVE",
"581 0 OFFCURVE",
"648 -3 CURVE",
"649 1 OFFCURVE",
"650 4 OFFCURVE",
"650 7 CURVE SMOOTH",
"650 20 OFFCURVE",
"649 26 OFFCURVE",
"646 26 CURVE SMOOTH",
"630 26 OFFCURVE",
"586 40 OFFCURVE",
"578 60 CURVE SMOOTH",
"571 77 OFFCURVE",
"561 101 OFFCURVE",
"549 132 CURVE SMOOTH",
"354 646 LINE SMOOTH",
"350 657 OFFCURVE",
"346 663 OFFCURVE",
"337 663 CURVE SMOOTH",
"320 663 OFFCURVE",
"312 654 OFFCURVE",
"304 634 CURVE SMOOTH",
"112 139 LINE SMOOTH",
"95 94 OFFCURVE",
"79 63 OFFCURVE",
"65 45 CURVE SMOOTH",
"56 33 OFFCURVE",
"24 26 OFFCURVE",
"8 26 CURVE SMOOTH",
"5 26 OFFCURVE",
"4 21 OFFCURVE",
"4 12 CURVE SMOOTH",
"4 5 OFFCURVE",
"5 0 OFFCURVE",
"8 -3 CURVE",
"25 -2 OFFCURVE",
"92 2 OFFCURVE",
"112 2 CURVE SMOOTH",
"146 2 OFFCURVE",
"181 -1 OFFCURVE",
"215 -3 CURVE",
"216 0 OFFCURVE",
"217 5 OFFCURVE",
"217 10 CURVE SMOOTH",
"217 18 OFFCURVE",
"215 26 OFFCURVE",
"213 26 CURVE SMOOTH",
"201 26 OFFCURVE",
"167 33 OFFCURVE",
"155 42 CURVE SMOOTH",
"150 46 OFFCURVE",
"147 53 OFFCURVE",
"147 62 CURVE SMOOTH",
"147 75 OFFCURVE",
"152 99 OFFCURVE",
"164 131 CURVE SMOOTH",
"332 568 LINE",
"301 568 LINE"
);
}
);
width = 656;
},
{
anchors = (
{
name = bottom;
position = "{345, 0}";
},
{
name = ogonek;
position = "{686, 10}";
},
{
name = top;
position = "{345, 658}";
}
);
background = {
paths = (
{
closed = 1;
nodes = (
"59 1 OFFCURVE",
"98 4 OFFCURVE",
"117 4 CURVE SMOOTH",
"133 4 OFFCURVE",
"160 2 OFFCURVE",
"231 -4 CURVE",
"232 0 OFFCURVE",
"233 7 OFFCURVE",
"233 17 CURVE SMOOTH",
"233 27 OFFCURVE",
"232 33 OFFCURVE",
"230 33 CURVE SMOOTH",
"203 33 OFFCURVE",
"187 38 OFFCURVE",
"170 48 CURVE SMOOTH",
"162 53 OFFCURVE",
"157 63 OFFCURVE",
"157 71 CURVE SMOOTH",
"157 86 OFFCURVE",
"165 105 OFFCURVE",
"177 131 CURVE",
"212 212 LINE",
"235 213 OFFCURVE",
"274 213 OFFCURVE",
"318 213 CURVE SMOOTH",
"369 213 OFFCURVE",
"406 213 OFFCURVE",
"419 212 CURVE",
"451 135 LINE",
"469 92 OFFCURVE",
"475 77 OFFCURVE",
"475 66 CURVE SMOOTH",
"475 58 OFFCURVE",
"469 51 OFFCURVE",
"461 46 CURVE SMOOTH",
"447 38 OFFCURVE",
"426 33 OFFCURVE",
"408 33 CURVE SMOOTH",
"405 33 OFFCURVE",
"404 28 OFFCURVE",
"404 17 CURVE SMOOTH",
"404 6 OFFCURVE",
"405 -1 OFFCURVE",
"408 -4 CURVE",
"504 1 OFFCURVE",
"554 4 OFFCURVE",
"559 4 CURVE SMOOTH",
"589 4 OFFCURVE",
"652 0 OFFCURVE",
"704 -4 CURVE",
"705 -2 OFFCURVE",
"706 5 OFFCURVE",
"706 16 CURVE SMOOTH",
"706 27 OFFCURVE",
"705 33 OFFCURVE",
"702 33 CURVE SMOOTH",
"683 33 OFFCURVE",
"636 45 OFFCURVE",
"628 66 CURVE SMOOTH",
"619 90 OFFCURVE",
"607 117 OFFCURVE",
"595 148 CURVE SMOOTH",
"390 655 LINE SMOOTH",
"386 665 OFFCURVE",
"376 668 OFFCURVE",
"366 668 CURVE SMOOTH",
"349 668 OFFCURVE",
"336 659 OFFCURVE",
"329 642 CURVE SMOOTH",
"103 122 LINE SMOOTH",
"96 107 OFFCURVE",
"83 80 OFFCURVE",
"73 64 CURVE SMOOTH",
"64 49 OFFCURVE",
"14 32 OFFCURVE",
"-2 32 CURVE SMOOTH",
"-3 32 OFFCURVE",
"-4 25 OFFCURVE",
"-4 11 CURVE SMOOTH",
"-4 4 OFFCURVE",
"-3 -1 OFFCURVE",
"0 -4 CURVE"
);
},
{
closed = 1;
nodes = (
"289 273 OFFCURVE",
"260 274 OFFCURVE",
"240 276 CURVE",
"336 500 LINE",
"303 501 LINE",
"394 275 LINE",
"373 274 OFFCURVE",
"345 273 OFFCURVE",
"318 273 CURVE SMOOTH"
);
}
);
};
guideLines = (
{
angle = 90;
position = "{706, 111}";
}
);
layerId = "E2E62ECD-1E64-44AC-9B50-C09427155398";
paths = (
{
closed = 1;
nodes = (
"406 276 LINE",
"385 274 OFFCURVE",
"351 273 OFFCURVE",
"318 273 CURVE SMOOTH",
"283 273 OFFCURVE",
"248 274 OFFCURVE",
"229 277 CURVE",
"203 211 LINE",
"223 213 OFFCURVE",
"267 213 OFFCURVE",
"318 213 CURVE SMOOTH",
"377 213 OFFCURVE",
"417 213 OFFCURVE",
"428 211 CURVE"
);
},
{
closed = 1;
nodes = (
"451 135 LINE SMOOTH",
"469 92 OFFCURVE",
"475 77 OFFCURVE",
"475 66 CURVE SMOOTH",
"475 58 OFFCURVE",
"469 51 OFFCURVE",
"461 46 CURVE SMOOTH",
"447 38 OFFCURVE",
"426 33 OFFCURVE",
"408 33 CURVE SMOOTH",
"405 33 OFFCURVE",
"404 28 OFFCURVE",
"404 17 CURVE SMOOTH",
"404 6 OFFCURVE",
"405 -1 OFFCURVE",
"408 -4 CURVE",
"504 1 OFFCURVE",
"554 4 OFFCURVE",
"559 4 CURVE SMOOTH",
"589 4 OFFCURVE",
"652 0 OFFCURVE",
"704 -4 CURVE",
"705 -2 OFFCURVE",
"706 5 OFFCURVE",
"706 16 CURVE SMOOTH",
"706 27 OFFCURVE",
"705 33 OFFCURVE",
"702 33 CURVE SMOOTH",
"683 33 OFFCURVE",
"637 45 OFFCURVE",
"628 66 CURVE SMOOTH",
"618 90 OFFCURVE",
"607 117 OFFCURVE",
"595 148 CURVE SMOOTH",
"390 655 LINE SMOOTH",
"386 665 OFFCURVE",
"376 668 OFFCURVE",
"366 668 CURVE SMOOTH",
"349 668 OFFCURVE",
"336 659 OFFCURVE",
"329 642 CURVE SMOOTH",
"103 122 LINE SMOOTH",
"96 107 OFFCURVE",
"83 80 OFFCURVE",
"73 64 CURVE SMOOTH",
"64 49 OFFCURVE",
"14 32 OFFCURVE",
"-2 32 CURVE SMOOTH",
"-3 32 OFFCURVE",
"-4 25 OFFCURVE",
"-4 11 CURVE SMOOTH",
"-4 4 OFFCURVE",
"-3 -1 OFFCURVE",
"0 -4 CURVE",
"59 1 OFFCURVE",
"98 4 OFFCURVE",
"117 4 CURVE SMOOTH",
"133 4 OFFCURVE",
"160 2 OFFCURVE",
"231 -4 CURVE",
"232 0 OFFCURVE",
"233 7 OFFCURVE",
"233 17 CURVE SMOOTH",
"233 27 OFFCURVE",
"232 33 OFFCURVE",
"230 33 CURVE SMOOTH",
"203 33 OFFCURVE",
"187 38 OFFCURVE",
"170 48 CURVE SMOOTH",
"162 53 OFFCURVE",
"157 63 OFFCURVE",
"157 71 CURVE SMOOTH",
"157 86 OFFCURVE",
"165 105 OFFCURVE",
"177 131 CURVE SMOOTH",
"336 500 LINE",
"303 501 LINE"
);
}
);
width = 701;
}
);
note = A;
unicode = 0041;
},
{
color = 3;
glyphname = Aogonek;
lastChange = "2019-01-08 20:11:26 +0000";
layers = (
{
anchors = (
{
name = bottom;
position = "{326, 0}";
},
{
name = top;
position = "{326, 658}";
}
);
background = {
paths = (
{
closed = 1;
nodes = (
"25 -2 OFFCURVE",
"92 2 OFFCURVE",
"112 2 CURVE SMOOTH",
"146 2 OFFCURVE",
"181 -1 OFFCURVE",
"215 -3 CURVE",
"216 0 OFFCURVE",
"217 5 OFFCURVE",
"217 10 CURVE SMOOTH",
"217 18 OFFCURVE",
"215 26 OFFCURVE",
"213 26 CURVE SMOOTH",
"201 26 OFFCURVE",
"167 33 OFFCURVE",
"155 42 CURVE SMOOTH",
"150 46 OFFCURVE",
"147 53 OFFCURVE",
"147 62 CURVE SMOOTH",
"147 75 OFFCURVE",
"151 99 OFFCURVE",
"164 131 CURVE",
"208 244 LINE",
"258 247 OFFCURVE",
"304 249 OFFCURVE",
"339 249 CURVE SMOOTH",
"364 249 OFFCURVE",
"393 248 OFFCURVE",
"419 246 CURVE",
"466 118 LINE",
"471 105 OFFCURVE",
"476 77 OFFCURVE",
"476 60 CURVE SMOOTH",
"476 55 OFFCURVE",
"475 49 OFFCURVE",
"474 44 CURVE SMOOTH",
"472 33 OFFCURVE",
"439 26 OFFCURVE",
"423 26 CURVE SMOOTH",
"420 26 OFFCURVE",
"418 19 OFFCURVE",
"418 12 CURVE SMOOTH",
"418 6 OFFCURVE",
"420 -1 OFFCURVE",
"422 -3 CURVE",
"461 -1 OFFCURVE",
"499 2 OFFCURVE",
"533 2 CURVE SMOOTH",
"545 2 OFFCURVE",
"581 0 OFFCURVE",
"648 -3 CURVE",
"649 1 OFFCURVE",
"650 4 OFFCURVE",
"650 7 CURVE SMOOTH",
"650 20 OFFCURVE",
"649 26 OFFCURVE",
"646 26 CURVE SMOOTH",
"630 26 OFFCURVE",
"586 40 OFFCURVE",
"578 60 CURVE SMOOTH",
"571 77 OFFCURVE",
"561 101 OFFCURVE",
"549 132 CURVE SMOOTH",
"354 646 LINE SMOOTH",
"350 657 OFFCURVE",
"346 663 OFFCURVE",
"337 663 CURVE SMOOTH",
"320 663 OFFCURVE",
"312 654 OFFCURVE",
"304 634 CURVE SMOOTH",
"112 139 LINE SMOOTH",
"95 94 OFFCURVE",
"79 63 OFFCURVE",
"65 45 CURVE SMOOTH",
"56 33 OFFCURVE",
"24 26 OFFCURVE",
"8 26 CURVE SMOOTH",
"5 26 OFFCURVE",
"4 21 OFFCURVE",
"4 12 CURVE SMOOTH",
"4 5 OFFCURVE",
"5 0 OFFCURVE",
"8 -3 CURVE"
);
},
{
closed = 1;
nodes = (
"291 297 OFFCURVE",
"264 298 OFFCURVE",
"229 299 CURVE",
"333 568 LINE",
"301 568 LINE",
"400 300 LINE",
"369 298 OFFCURVE",
"333 297 OFFCURVE",
"304 297 CURVE SMOOTH"
);
},
{
closed = 1;
nodes = (
"641 10 LINE",
"599 14 LINE",
"581 2 LINE",
"521 -37 OFFCURVE",
"469 -95 OFFCURVE",
"469 -146 CURVE SMOOTH",
"469 -182 OFFCURVE",
"491 -223 OFFCURVE",
"540 -223 CURVE SMOOTH",
"577 -223 OFFCURVE",
"617 -204 OFFCURVE",
"645 -157 CURVE SMOOTH",
"648 -152 OFFCURVE",
"650 -146 OFFCURVE",
"650 -139 CURVE SMOOTH",
"650 -130 OFFCURVE",
"648 -126 OFFCURVE",
"645 -126 CURVE",
"629 -143 OFFCURVE",
"598 -164 OFFCURVE",
"564 -164 CURVE SMOOTH",
"533 -164 OFFCURVE",
"523 -142 OFFCURVE",
"523 -121 CURVE SMOOTH",
"523 -81 OFFCURVE",
"575 -29 OFFCURVE",
"627 2 CURVE"
);
}
);
};
layerId = "0276F023-BC64-4582-8657-390FE5DB601E";
paths = (
{
closed = 1;
nodes = (
"577 -223 OFFCURVE",
"617 -204 OFFCURVE",
"645 -157 CURVE SMOOTH",
"648 -152 OFFCURVE",
"650 -146 OFFCURVE",
"650 -139 CURVE SMOOTH",
"650 -130 OFFCURVE",
"648 -126 OFFCURVE",
"645 -126 CURVE",
"629 -143 OFFCURVE",
"598 -164 OFFCURVE",
"564 -164 CURVE SMOOTH",
"533 -164 OFFCURVE",
"523 -146 OFFCURVE",
"523 -128 CURVE SMOOTH",
"523 -87 OFFCURVE",
"586 -33 OFFCURVE",
"648 -3 CURVE",
"649 1 OFFCURVE",
"650 4 OFFCURVE",
"650 7 CURVE SMOOTH",
"650 20 OFFCURVE",
"649 26 OFFCURVE",
"646 26 CURVE SMOOTH",
"630 26 OFFCURVE",
"586 40 OFFCURVE",
"578 60 CURVE SMOOTH",
"571 77 OFFCURVE",
"561 101 OFFCURVE",
"549 132 CURVE SMOOTH",
"354 646 LINE SMOOTH",
"350 657 OFFCURVE",
"346 663 OFFCURVE",
"337 663 CURVE SMOOTH",
"320 663 OFFCURVE",
"312 654 OFFCURVE",
"304 634 CURVE SMOOTH",
"112 139 LINE SMOOTH",
"95 94 OFFCURVE",
"79 63 OFFCURVE",
"65 45 CURVE SMOOTH",
"56 33 OFFCURVE",
"24 26 OFFCURVE",
"8 26 CURVE SMOOTH",
"5 26 OFFCURVE",
"4 21 OFFCURVE",
"4 12 CURVE SMOOTH",
"4 5 OFFCURVE",
"5 0 OFFCURVE",
"8 -3 CURVE",
"25 -2 OFFCURVE",
"92 2 OFFCURVE",
"112 2 CURVE SMOOTH",
"146 2 OFFCURVE",
"181 -1 OFFCURVE",
"215 -3 CURVE",
"216 0 OFFCURVE",
"217 5 OFFCURVE",
"217 10 CURVE SMOOTH",
"217 18 OFFCURVE",
"215 26 OFFCURVE",
"213 26 CURVE SMOOTH",
"201 26 OFFCURVE",
"167 33 OFFCURVE",
"155 42 CURVE SMOOTH",
"150 46 OFFCURVE",
"147 53 OFFCURVE",
"147 62 CURVE SMOOTH",
"147 75 OFFCURVE",
"152 99 OFFCURVE",
"164 131 CURVE SMOOTH",
"332 568 LINE",
"301 568 LINE",
"466 118 LINE SMOOTH",
"471 104 OFFCURVE",
"476 77 OFFCURVE",
"476 60 CURVE SMOOTH",
"476 55 OFFCURVE",
"475 49 OFFCURVE",
"474 44 CURVE SMOOTH",
"472 33 OFFCURVE",
"439 26 OFFCURVE",
"423 26 CURVE SMOOTH",
"420 26 OFFCURVE",
"418 19 OFFCURVE",
"418 12 CURVE SMOOTH",
"418 6 OFFCURVE",
"420 -1 OFFCURVE",
"422 -3 CURVE",
"461 -1 OFFCURVE",
"499 2 OFFCURVE",
"533 2 CURVE",
"552 1 OFFCURVE",
"571 1 OFFCURVE",
"590 0 CURVE",
"515 -40 OFFCURVE",
"469 -96 OFFCURVE",
"469 -146 CURVE SMOOTH",
"469 -182 OFFCURVE",
"491 -223 OFFCURVE",
"540 -223 CURVE SMOOTH"
);
},
{
closed = 1;
nodes = (
"248 247 OFFCURVE",
"300 249 OFFCURVE",
"339 249 CURVE SMOOTH",
"368 249 OFFCURVE",
"403 248 OFFCURVE",
"433 245 CURVE",
"413 301 LINE",
"380 298 OFFCURVE",
"337 297 OFFCURVE",
"304 297 CURVE SMOOTH",
"288 297 OFFCURVE",
"253 298 OFFCURVE",
"208 300 CURVE",
"191 243 LINE"
);
}
);
width = 656;
},
{
anchors = (
{
name = bottom;
position = "{345, 0}";
},
{
name = top;
position = "{345, 658}";
}
);
background = {
paths = (
{
closed = 1;
nodes = (
"59 1 OFFCURVE",
"98 4 OFFCURVE",
"117 4 CURVE SMOOTH",
"133 4 OFFCURVE",
"160 2 OFFCURVE",
"231 -4 CURVE",
"232 0 OFFCURVE",
"233 7 OFFCURVE",
"233 17 CURVE SMOOTH",
"233 27 OFFCURVE",
"232 33 OFFCURVE",
"230 33 CURVE SMOOTH",
"203 33 OFFCURVE",
"187 38 OFFCURVE",
"170 48 CURVE SMOOTH",
"162 53 OFFCURVE",
"157 63 OFFCURVE",
"157 71 CURVE SMOOTH",
"157 86 OFFCURVE",
"165 105 OFFCURVE",
"177 131 CURVE",
"212 212 LINE",
"235 213 OFFCURVE",
"274 213 OFFCURVE",
"318 213 CURVE SMOOTH",
"369 213 OFFCURVE",
"406 213 OFFCURVE",
"419 212 CURVE",
"451 135 LINE",
"469 92 OFFCURVE",
"475 77 OFFCURVE",
"475 66 CURVE SMOOTH",
"475 58 OFFCURVE",
"469 51 OFFCURVE",
"461 46 CURVE SMOOTH",
"447 38 OFFCURVE",
"426 33 OFFCURVE",
"408 33 CURVE SMOOTH",
"405 33 OFFCURVE",
"404 28 OFFCURVE",
"404 17 CURVE SMOOTH",
"404 6 OFFCURVE",
"405 -1 OFFCURVE",
"408 -4 CURVE",
"504 1 OFFCURVE",
"554 4 OFFCURVE",
"559 4 CURVE SMOOTH",
"589 4 OFFCURVE",
"652 0 OFFCURVE",
"704 -4 CURVE",
"705 -2 OFFCURVE",
"706 5 OFFCURVE",
"706 16 CURVE SMOOTH",
"706 27 OFFCURVE",
"705 33 OFFCURVE",
"702 33 CURVE SMOOTH",
"683 33 OFFCURVE",
"636 45 OFFCURVE",
"628 66 CURVE SMOOTH",
"619 90 OFFCURVE",
"607 117 OFFCURVE",
"595 148 CURVE SMOOTH",
"390 655 LINE SMOOTH",
"386 665 OFFCURVE",
"376 668 OFFCURVE",
"366 668 CURVE SMOOTH",
"349 668 OFFCURVE",
"336 659 OFFCURVE",
"329 642 CURVE SMOOTH",
"103 122 LINE SMOOTH",
"96 107 OFFCURVE",
"83 80 OFFCURVE",
"73 64 CURVE SMOOTH",
"64 49 OFFCURVE",
"14 32 OFFCURVE",
"-2 32 CURVE SMOOTH",
"-3 32 OFFCURVE",
"-4 25 OFFCURVE",
"-4 11 CURVE SMOOTH",
"-4 4 OFFCURVE",
"-3 -1 OFFCURVE",
"0 -4 CURVE"
);
},
{
closed = 1;
nodes = (
"289 273 OFFCURVE",
"260 274 OFFCURVE",
"240 276 CURVE",
"338 500 LINE",
"303 501 LINE",
"394 275 LINE",
"373 274 OFFCURVE",
"345 273 OFFCURVE",
"318 273 CURVE SMOOTH"
);
},
{
closed = 1;
nodes = (
"686 10 LINE",
"652 10 LINE",
"645 4 LINE",
"553 -27 OFFCURVE",
"496 -87 OFFCURVE",
"496 -142 CURVE SMOOTH",
"496 -188 OFFCURVE",
"538 -218 OFFCURVE",
"577 -218 CURVE SMOOTH",
"626 -218 OFFCURVE",
"677 -178 OFFCURVE",
"700 -149 CURVE SMOOTH",
"704 -144 OFFCURVE",
"706 -136 OFFCURVE",
"706 -127 CURVE SMOOTH",
"706 -115 OFFCURVE",
"704 -109 OFFCURVE",
"701 -109 CURVE",
"685 -122 OFFCURVE",
"646 -142 OFFCURVE",
"621 -142 CURVE SMOOTH",
"598 -142 OFFCURVE",
"580 -130 OFFCURVE",
"580 -110 CURVE SMOOTH",
"580 -75 OFFCURVE",
"621 -39 OFFCURVE",
"704 -4 CURVE"
);
}
);
};
layerId = "E2E62ECD-1E64-44AC-9B50-C09427155398";
paths = (
{
closed = 1;
nodes = (
"626 -218 OFFCURVE",
"677 -178 OFFCURVE",
"700 -149 CURVE SMOOTH",
"704 -144 OFFCURVE",
"706 -136 OFFCURVE",
"706 -127 CURVE SMOOTH",
"706 -115 OFFCURVE",
"704 -109 OFFCURVE",
"701 -109 CURVE",
"685 -122 OFFCURVE",
"646 -142 OFFCURVE",
"621 -142 CURVE SMOOTH",
"598 -142 OFFCURVE",
"580 -130 OFFCURVE",
"580 -110 CURVE SMOOTH",
"580 -75 OFFCURVE",
"621 -39 OFFCURVE",
"704 -4 CURVE",
"705 -2 OFFCURVE",
"706 5 OFFCURVE",
"706 16 CURVE SMOOTH",
"706 27 OFFCURVE",
"705 33 OFFCURVE",
"702 33 CURVE SMOOTH",
"683 33 OFFCURVE",
"637 45 OFFCURVE",
"628 66 CURVE SMOOTH",
"618 90 OFFCURVE",
"607 117 OFFCURVE",
"595 148 CURVE SMOOTH",
"390 655 LINE SMOOTH",
"386 665 OFFCURVE",
"376 668 OFFCURVE",
"366 668 CURVE SMOOTH",
"349 668 OFFCURVE",
"336 659 OFFCURVE",
"329 642 CURVE SMOOTH",
"103 122 LINE SMOOTH",
"96 107 OFFCURVE",
"83 80 OFFCURVE",
"73 64 CURVE SMOOTH",
"64 49 OFFCURVE",
"14 32 OFFCURVE",
"-2 32 CURVE SMOOTH",
"-3 32 OFFCURVE",
"-4 25 OFFCURVE",
"-4 11 CURVE SMOOTH",
"-4 4 OFFCURVE",
"-3 -1 OFFCURVE",
"0 -4 CURVE",
"59 1 OFFCURVE",
"98 4 OFFCURVE",
"117 4 CURVE SMOOTH",
"133 4 OFFCURVE",
"160 2 OFFCURVE",
"231 -4 CURVE",
"232 0 OFFCURVE",
"233 7 OFFCURVE",
"233 17 CURVE SMOOTH",
"233 27 OFFCURVE",
"232 33 OFFCURVE",
"230 33 CURVE SMOOTH",
"203 33 OFFCURVE",
"187 38 OFFCURVE",
"170 48 CURVE SMOOTH",
"162 53 OFFCURVE",
"157 63 OFFCURVE",
"157 71 CURVE SMOOTH",
"157 86 OFFCURVE",
"165 105 OFFCURVE",
"177 131 CURVE SMOOTH",
"336 500 LINE",
"303 501 LINE",
"451 135 LINE SMOOTH",
"468 92 OFFCURVE",
"475 77 OFFCURVE",
"475 66 CURVE SMOOTH",
"475 58 OFFCURVE",
"469 51 OFFCURVE",
"461 46 CURVE",
"447 38 OFFCURVE",
"426 33 OFFCURVE",
"408 33 CURVE SMOOTH",
"405 33 OFFCURVE",
"404 28 OFFCURVE",
"404 17 CURVE SMOOTH",
"404 6 OFFCURVE",
"405 -1 OFFCURVE",
"408 -4 CURVE",
"458 -1 OFFCURVE",
"509 1 OFFCURVE",
"559 4 CURVE",
"576 4 OFFCURVE",
"605 3 OFFCURVE",
"635 1 CURVE",
"549 -31 OFFCURVE",
"496 -89 OFFCURVE",
"496 -142 CURVE SMOOTH",
"496 -188 OFFCURVE",
"538 -218 OFFCURVE",
"577 -218 CURVE SMOOTH"
);
},
{
closed = 1;
nodes = (
"223 213 OFFCURVE",
"267 213 OFFCURVE",
"318 213 CURVE SMOOTH",
"377 213 OFFCURVE",
"417 213 OFFCURVE",
"428 211 CURVE",
"406 276 LINE",
"385 274 OFFCURVE",
"351 273 OFFCURVE",
"318 273 CURVE SMOOTH",
"283 273 OFFCURVE",
"248 274 OFFCURVE",
"229 277 CURVE",
"203 211 LINE"
);
}
);
width = 701;
}
);
leftMetricsKey = A;
widthMetricsKey = A;
note = Aogonek;
unicode = 0104;
},
{
color = 3;
glyphname = AE;
lastChange = "2018-12-20 20:05:37 +0000";
layers = (
{
anchors = (
{
name = bottom;
position = "{484, 0}";
},
{
name = top;
position = "{484, 658}";
}
);
background = {
paths = (
{
closed = 1;
nodes = (
"37 -1 OFFCURVE",
"72 0 OFFCURVE",
"96 0 CURVE SMOOTH",
"124 0 OFFCURVE",
"158 -1 OFFCURVE",
"198 -3 CURVE",
"201 7 OFFCURVE",
"204 16 OFFCURVE",
"204 26 CURVE",
"176 26 OFFCURVE",
"158 31 OFFCURVE",
"149 40 CURVE SMOOTH",
"146 43 OFFCURVE",
"144 48 OFFCURVE",
"144 53 CURVE SMOOTH",
"144 68 OFFCURVE",
"162 104 OFFCURVE",
"178 129 CURVE SMOOTH",
"247 239 LINE",
"252 242 LINE",
"303 245 OFFCURVE",
"336 247 OFFCURVE",
"351 247 CURVE SMOOTH",
"388 247 OFFCURVE",
"413 246 OFFCURVE",
"427 244 CURVE",
"436 242 OFFCURVE",
"440 238 OFFCURVE",
"440 233 CURVE SMOOTH",
"440 135 LINE SMOOTH",
"440 96 OFFCURVE",
"438 67 OFFCURVE",
"433 49 CURVE",
"429 38 OFFCURVE",
"383 26 OFFCURVE",
"367 26 CURVE SMOOTH",
"364 26 OFFCURVE",
"363 21 OFFCURVE",
"363 12 CURVE SMOOTH",
"363 5 OFFCURVE",
"364 0 OFFCURVE",
"367 -3 CURVE",
"485 2 LINE",
"514 2 OFFCURVE",
"568 1 OFFCURVE",
"649 -1 CURVE SMOOTH",
"729 -3 OFFCURVE",
"788 -4 OFFCURVE",
"826 -4 CURVE",
"830 29 OFFCURVE",
"869 134 OFFCURVE",
"880 162 CURVE",
"876 166 OFFCURVE",
"868 168 OFFCURVE",
"855 168 CURVE SMOOTH",
"847 168 OFFCURVE",
"842 166 OFFCURVE",
"841 162 CURVE",
"826 111 OFFCURVE",
"798 72 OFFCURVE",
"778 61 CURVE SMOOTH",
"756 49 OFFCURVE",
"714 44 OFFCURVE",
"652 44 CURVE SMOOTH",
"604 44 LINE SMOOTH",
"561 44 OFFCURVE",
"538 47 OFFCURVE",
"536 54 CURVE",
"530 71 OFFCURVE",
"527 102 OFFCURVE",
"527 145 CURVE SMOOTH",
"527 300 LINE SMOOTH",
"527 306 OFFCURVE",
"551 309 OFFCURVE",
"599 309 CURVE SMOOTH",
"661 309 OFFCURVE",
"697 306 OFFCURVE",
"705 301 CURVE SMOOTH",
"716 294 OFFCURVE",
"721 285 OFFCURVE",
"733 238 CURVE",
"735 233 OFFCURVE",
"740 230 OFFCURVE",
"749 230 CURVE SMOOTH",
"757 230 OFFCURVE",
"762 231 OFFCURVE",
"765 234 CURVE",
"765 423 LINE",
"762 426 OFFCURVE",
"756 428 OFFCURVE",
"748 428 CURVE SMOOTH",
"739 428 OFFCURVE",
"734 426 OFFCURVE",
"733 421 CURVE",
"723 370 OFFCURVE",
"713 364 OFFCURVE",
"701 360 CURVE SMOOTH",
"687 355 OFFCURVE",
"671 353 OFFCURVE",
"663 353 CURVE SMOOTH",
"570 353 LINE SMOOTH",
"541 353 OFFCURVE",
"527 355 OFFCURVE",
"527 359 CURVE SMOOTH",
"527 519 LINE SMOOTH",
"527 559 OFFCURVE",
"529 587 OFFCURVE",
"532 603 CURVE",
"533 612 OFFCURVE",
"563 616 OFFCURVE",
"620 616 CURVE SMOOTH",
"677 616 LINE SMOOTH",
"750 616 OFFCURVE",
"785 604 OFFCURVE",
"803 530 CURVE",
"804 525 OFFCURVE",
"808 523 OFFCURVE",
"817 523 CURVE SMOOTH",
"826 523 OFFCURVE",
"832 525 OFFCURVE",
"835 528 CURVE",
"829 556 OFFCURVE",
"815 611 OFFCURVE",
"806 664 CURVE",
"768 664 OFFCURVE",
"712 663 OFFCURVE",
"638 660 CURVE SMOOTH",
"564 657 OFFCURVE",
"512 656 OFFCURVE",
"483 656 CURVE SMOOTH",
"438 656 OFFCURVE",
"400 657 OFFCURVE",
"367 658 CURVE",
"364 655 OFFCURVE",
"363 650 OFFCURVE",
"363 643 CURVE SMOOTH",
"363 634 OFFCURVE",
"364 629 OFFCURVE",
"367 629 CURVE SMOOTH",
"384 629 OFFCURVE",
"412 620 OFFCURVE",
"412 604 CURVE SMOOTH",
"412 599 OFFCURVE",
"410 592 OFFCURVE",
"405 584 CURVE SMOOTH",
"128 137 LINE SMOOTH",
"100 91 OFFCURVE",
"77 61 OFFCURVE",
"59 43 CURVE SMOOTH",
"48 32 OFFCURVE",
"27 26 OFFCURVE",
"-2 26 CURVE SMOOTH",
"-7 26 OFFCURVE",
"-10 10 OFFCURVE",
"-10 4 CURVE SMOOTH",
"-10 2 OFFCURVE",
"-10 1 OFFCURVE",
"-9 -3 CURVE"
);
},
{
closed = 1;
nodes = (
"344 295 OFFCURVE",
"321 296 OFFCURVE",
"286 297 CURVE",
"285 301 LINE",
"422 524 LINE",
"425 529 OFFCURVE",
"428 531 OFFCURVE",
"431 531 CURVE SMOOTH",
"437 531 OFFCURVE",
"440 528 OFFCURVE",
"440 523 CURVE SMOOTH",
"440 308 LINE SMOOTH",
"440 301 OFFCURVE",
"436 297 OFFCURVE",
"428 297 CURVE",
"393 296 OFFCURVE",
"369 295 OFFCURVE",
"356 295 CURVE SMOOTH"
);
}
);
};
layerId = "0276F023-BC64-4582-8657-390FE5DB601E";
paths = (
{
closed = 1;
nodes = (
"37 -1 OFFCURVE",
"72 0 OFFCURVE",
"96 0 CURVE SMOOTH",
"124 0 OFFCURVE",
"158 -1 OFFCURVE",
"198 -3 CURVE",
"201 7 OFFCURVE",
"204 16 OFFCURVE",
"204 26 CURVE",
"176 26 OFFCURVE",
"158 31 OFFCURVE",
"149 40 CURVE SMOOTH",
"146 43 OFFCURVE",
"144 48 OFFCURVE",
"144 53 CURVE SMOOTH",
"144 68 OFFCURVE",
"162 104 OFFCURVE",
"178 129 CURVE SMOOTH",
"249 242 LINE",
"300 245 OFFCURVE",
"336 247 OFFCURVE",
"351 247 CURVE SMOOTH",
"388 247 OFFCURVE",
"426 246 OFFCURVE",
"440 243 CURVE",
"440 135 LINE",
"440 96 OFFCURVE",
"438 67 OFFCURVE",
"433 49 CURVE",
"429 38 OFFCURVE",
"383 26 OFFCURVE",
"367 26 CURVE SMOOTH",
"364 26 OFFCURVE",
"363 21 OFFCURVE",
"363 12 CURVE SMOOTH",
"363 5 OFFCURVE",
"364 0 OFFCURVE",
"367 -3 CURVE",
"485 2 LINE",
"514 2 OFFCURVE",
"568 1 OFFCURVE",
"649 -1 CURVE SMOOTH",
"729 -3 OFFCURVE",
"788 -4 OFFCURVE",
"826 -4 CURVE",
"830 29 OFFCURVE",
"869 134 OFFCURVE",
"880 162 CURVE",
"876 166 OFFCURVE",
"868 168 OFFCURVE",
"855 168 CURVE SMOOTH",
"847 168 OFFCURVE",
"842 166 OFFCURVE",
"841 162 CURVE",
"826 111 OFFCURVE",
"798 72 OFFCURVE",
"778 61 CURVE SMOOTH",
"756 49 OFFCURVE",
"714 44 OFFCURVE",
"652 44 CURVE SMOOTH",
"604 44 LINE SMOOTH",
"561 44 OFFCURVE",
"538 47 OFFCURVE",
"536 54 CURVE",
"530 71 OFFCURVE",
"527 102 OFFCURVE",
"527 145 CURVE SMOOTH",
"527 300 LINE SMOOTH",
"527 306 OFFCURVE",
"551 309 OFFCURVE",
"599 309 CURVE SMOOTH",
"661 309 OFFCURVE",
"697 306 OFFCURVE",
"705 301 CURVE SMOOTH",
"716 294 OFFCURVE",
"721 285 OFFCURVE",
"733 238 CURVE",
"735 233 OFFCURVE",
"740 230 OFFCURVE",
"749 230 CURVE SMOOTH",
"757 230 OFFCURVE",
"762 231 OFFCURVE",
"765 234 CURVE",
"765 423 LINE",
"762 426 OFFCURVE",
"756 428 OFFCURVE",
"748 428 CURVE SMOOTH",
"739 428 OFFCURVE",
"734 426 OFFCURVE",
"733 421 CURVE",
"723 370 OFFCURVE",
"713 364 OFFCURVE",
"701 360 CURVE SMOOTH",
"687 355 OFFCURVE",
"671 353 OFFCURVE",
"663 353 CURVE SMOOTH",
"570 353 LINE SMOOTH",
"541 353 OFFCURVE",
"527 355 OFFCURVE",
"527 359 CURVE SMOOTH",
"527 519 LINE SMOOTH",
"527 559 OFFCURVE",
"529 587 OFFCURVE",
"532 603 CURVE",
"533 612 OFFCURVE",
"563 616 OFFCURVE",
"620 616 CURVE SMOOTH",
"677 616 LINE SMOOTH",
"750 616 OFFCURVE",
"785 604 OFFCURVE",
"803 530 CURVE",
"804 525 OFFCURVE",
"808 523 OFFCURVE",
"817 523 CURVE SMOOTH",
"826 523 OFFCURVE",
"832 525 OFFCURVE",
"835 528 CURVE",
"829 556 OFFCURVE",
"815 611 OFFCURVE",
"806 664 CURVE",
"768 664 OFFCURVE",
"712 663 OFFCURVE",
"638 660 CURVE SMOOTH",
"564 657 OFFCURVE",
"512 656 OFFCURVE",
"483 656 CURVE SMOOTH",
"438 656 OFFCURVE",
"400 657 OFFCURVE",
"367 658 CURVE",
"364 655 OFFCURVE",
"363 650 OFFCURVE",
"363 643 CURVE SMOOTH",
"363 634 OFFCURVE",
"364 629 OFFCURVE",
"367 629 CURVE SMOOTH",
"384 629 OFFCURVE",
"412 620 OFFCURVE",
"412 604 CURVE SMOOTH",
"412 599 OFFCURVE",
"410 592 OFFCURVE",
"405 584 CURVE SMOOTH",
"128 137 LINE SMOOTH",
"100 91 OFFCURVE",
"77 61 OFFCURVE",
"59 43 CURVE SMOOTH",
"48 32 OFFCURVE",
"27 26 OFFCURVE",
"-2 26 CURVE SMOOTH",
"-7 26 OFFCURVE",
"-10 10 OFFCURVE",
"-10 4 CURVE SMOOTH",
"-10 2 OFFCURVE",
"-10 1 OFFCURVE",
"-9 -3 CURVE"
);
},
{
closed = 1;
nodes = (
"344 295 OFFCURVE",
"317 296 OFFCURVE",
"282 297 CURVE",
"447 564 LINE",
"440 564 LINE",
"440 297 LINE",
"405 296 OFFCURVE",
"369 295 OFFCURVE",
"356 295 CURVE SMOOTH"
);
}
);
width = 903;
},
{
anchors = (
{
name = bottom;
position = "{495, 0}";
},
{
name = top;
position = "{495, 658}";
}
);
background = {
paths = (
{
closed = 1;
nodes = (
"18 -1 OFFCURVE",
"92 4 OFFCURVE",
"116 4 CURVE SMOOTH",
"140 4 OFFCURVE",
"189 0 OFFCURVE",
"231 -4 CURVE",
"235 4 OFFCURVE",
"239 23 OFFCURVE",
"237 33 CURVE",
"213 33 OFFCURVE",
"193 36 OFFCURVE",
"177 44 CURVE SMOOTH",
"169 48 OFFCURVE",
"166 54 OFFCURVE",
"166 61 CURVE SMOOTH",
"166 75 OFFCURVE",
"186 106 OFFCURVE",
"200 129 CURVE SMOOTH",
"247 205 LINE",
"253 210 LINE",
"276 211 OFFCURVE",
"309 211 OFFCURVE",
"347 211 CURVE SMOOTH",
"376 211 OFFCURVE",
"399 211 OFFCURVE",
"416 210 CURVE",
"422 210 OFFCURVE",
"425 207 OFFCURVE",
"425 200 CURVE SMOOTH",
"425 135 LINE SMOOTH",
"425 98 OFFCURVE",
"423 71 OFFCURVE",
"419 56 CURVE",
"415 47 OFFCURVE",
"374 33 OFFCURVE",
"359 33 CURVE SMOOTH",
"356 33 OFFCURVE",
"355 26 OFFCURVE",
"355 13 CURVE SMOOTH",
"355 4 OFFCURVE",
"356 -1 OFFCURVE",
"359 -4 CURVE",
"499 2 LINE",
"528 2 OFFCURVE",
"582 1 OFFCURVE",
"663 0 CURVE SMOOTH",
"744 -1 OFFCURVE",
"803 -2 OFFCURVE",
"841 -2 CURVE",
"844 21 OFFCURVE",
"862 78 OFFCURVE",
"895 170 CURVE",
"891 174 OFFCURVE",
"881 176 OFFCURVE",
"865 176 CURVE SMOOTH",
"857 176 OFFCURVE",
"852 174 OFFCURVE",
"851 170 CURVE",
"835 129 OFFCURVE",
"802 92 OFFCURVE",
"779 80 CURVE SMOOTH",
"746 63 OFFCURVE",
"708 54 OFFCURVE",
"667 54 CURVE SMOOTH",
"641 54 LINE SMOOTH",
"599 54 OFFCURVE",
"576 59 OFFCURVE",
"573 70 CURVE SMOOTH",
"569 85 OFFCURVE",
"565 109 OFFCURVE",
"565 141 CURVE SMOOTH",
"565 295 LINE SMOOTH",
"565 301 OFFCURVE",
"589 304 OFFCURVE",
"637 304 CURVE SMOOTH",
"696 304 OFFCURVE",
"716 299 OFFCURVE",
"727 286 CURVE SMOOTH",
"731 281 OFFCURVE",
"737 259 OFFCURVE",
"743 238 CURVE",
"745 233 OFFCURVE",
"750 230 OFFCURVE",
"759 230 CURVE SMOOTH",
"770 230 OFFCURVE",
"777 231 OFFCURVE",
"780 234 CURVE",
"780 423 LINE",
"777 426 OFFCURVE",
"769 428 OFFCURVE",
"758 428 CURVE SMOOTH",
"749 428 OFFCURVE",
"744 426 OFFCURVE",
"742 422 CURVE",
"739 408 OFFCURVE",
"736 369 OFFCURVE",
"729 364 CURVE SMOOTH",
"725 361 OFFCURVE",
"702 359 OFFCURVE",
"661 359 CURVE SMOOTH",
"608 359 LINE SMOOTH",
"579 359 OFFCURVE",
"565 361 OFFCURVE",
"565 365 CURVE SMOOTH",
"565 519 LINE SMOOTH",
"565 555 OFFCURVE",
"567 581 OFFCURVE",
"570 597 CURVE",
"571 606 OFFCURVE",
"593 610 OFFCURVE",
"635 610 CURVE SMOOTH",
"673 610 LINE SMOOTH",
"725 610 OFFCURVE",
"788 569 OFFCURVE",
"813 518 CURVE",
"815 513 OFFCURVE",
"820 511 OFFCURVE",
"827 511 CURVE SMOOTH",
"839 511 OFFCURVE",
"847 513 OFFCURVE",
"850 516 CURVE",
"837 580 OFFCURVE",
"823 651 OFFCURVE",
"821 664 CURVE",
"784 664 OFFCURVE",
"728 663 OFFCURVE",
"654 660 CURVE SMOOTH",
"580 657 OFFCURVE",
"528 656 OFFCURVE",
"498 656 CURVE SMOOTH",
"453 656 OFFCURVE",
"407 659 OFFCURVE",
"360 664 CURVE",
"358 662 OFFCURVE",
"357 655 OFFCURVE",
"357 644 CURVE SMOOTH",
"357 633 OFFCURVE",
"358 627 OFFCURVE",
"361 627 CURVE SMOOTH",
"376 627 OFFCURVE",
"410 613 OFFCURVE",
"410 598 CURVE SMOOTH",
"410 593 OFFCURVE",
"409 588 OFFCURVE",
"406 584 CURVE SMOOTH",
"124 132 LINE SMOOTH",
"111 111 OFFCURVE",
"98 87 OFFCURVE",
"76 63 CURVE SMOOTH",
"67 53 OFFCURVE",
"9 33 OFFCURVE",
"-7 33 CURVE SMOOTH",
"-8 33 OFFCURVE",
"-13 15 OFFCURVE",
"-13 8 CURVE SMOOTH",
"-13 1 OFFCURVE",
"-12 -3 OFFCURVE",
"-11 -4 CURVE"
);
},
{
closed = 1;
nodes = (
"337 271 OFFCURVE",
"315 272 OFFCURVE",
"295 274 CURVE",
"293 278 LINE",
"415 475 LINE SMOOTH",
"417 478 OFFCURVE",
"419 480 OFFCURVE",
"422 480 CURVE SMOOTH",
"424 480 OFFCURVE",
"425 478 OFFCURVE",
"425 475 CURVE SMOOTH",
"425 282 LINE SMOOTH",
"425 276 OFFCURVE",
"422 273 OFFCURVE",
"416 273 CURVE SMOOTH",
"404 273 OFFCURVE",
"374 271 OFFCURVE",
"360 271 CURVE SMOOTH"
);
}
);
};
layerId = "E2E62ECD-1E64-44AC-9B50-C09427155398";
paths = (
{
closed = 1;
nodes = (
"18 -1 OFFCURVE",
"92 4 OFFCURVE",
"116 4 CURVE SMOOTH",
"140 4 OFFCURVE",
"189 0 OFFCURVE",
"231 -4 CURVE",
"235 4 OFFCURVE",
"239 23 OFFCURVE",
"237 33 CURVE",
"213 33 OFFCURVE",
"193 36 OFFCURVE",
"177 44 CURVE SMOOTH",
"169 48 OFFCURVE",
"166 54 OFFCURVE",
"166 61 CURVE SMOOTH",
"166 75 OFFCURVE",
"186 106 OFFCURVE",
"200 129 CURVE SMOOTH",
"250 210 LINE",
"273 211 OFFCURVE",
"309 211 OFFCURVE",
"347 211 CURVE SMOOTH",
"376 211 OFFCURVE",
"408 211 OFFCURVE",
"425 210 CURVE",
"425 135 LINE SMOOTH",
"425 98 OFFCURVE",
"423 71 OFFCURVE",
"419 56 CURVE",
"415 47 OFFCURVE",
"374 33 OFFCURVE",
"359 33 CURVE SMOOTH",
"356 33 OFFCURVE",
"355 26 OFFCURVE",
"355 13 CURVE SMOOTH",
"355 4 OFFCURVE",
"356 -1 OFFCURVE",
"359 -4 CURVE",
"499 2 LINE",
"528 2 OFFCURVE",
"582 1 OFFCURVE",
"663 0 CURVE SMOOTH",
"744 -1 OFFCURVE",
"803 -2 OFFCURVE",
"841 -2 CURVE",
"844 21 OFFCURVE",
"862 78 OFFCURVE",
"895 170 CURVE",
"891 174 OFFCURVE",
"881 176 OFFCURVE",
"865 176 CURVE SMOOTH",
"857 176 OFFCURVE",
"852 174 OFFCURVE",
"851 170 CURVE",
"835 129 OFFCURVE",
"802 92 OFFCURVE",
"779 80 CURVE SMOOTH",
"746 63 OFFCURVE",
"708 54 OFFCURVE",
"667 54 CURVE SMOOTH",
"641 54 LINE SMOOTH",
"599 54 OFFCURVE",
"576 59 OFFCURVE",
"573 70 CURVE SMOOTH",
"569 85 OFFCURVE",
"565 109 OFFCURVE",
"565 141 CURVE SMOOTH",
"565 295 LINE SMOOTH",
"565 301 OFFCURVE",
"589 304 OFFCURVE",
"637 304 CURVE SMOOTH",
"696 304 OFFCURVE",
"716 299 OFFCURVE",
"727 286 CURVE SMOOTH",
"731 281 OFFCURVE",
"737 259 OFFCURVE",
"743 238 CURVE",
"745 233 OFFCURVE",
"750 230 OFFCURVE",
"759 230 CURVE SMOOTH",
"770 230 OFFCURVE",
"777 231 OFFCURVE",
"780 234 CURVE",
"780 423 LINE",
"777 426 OFFCURVE",
"769 428 OFFCURVE",
"758 428 CURVE SMOOTH",
"749 428 OFFCURVE",
"744 426 OFFCURVE",
"742 422 CURVE",
"739 408 OFFCURVE",
"736 369 OFFCURVE",
"729 364 CURVE SMOOTH",
"725 361 OFFCURVE",
"702 359 OFFCURVE",
"661 359 CURVE SMOOTH",
"608 359 LINE SMOOTH",
"579 359 OFFCURVE",
"565 361 OFFCURVE",
"565 365 CURVE SMOOTH",
"565 519 LINE SMOOTH",
"565 555 OFFCURVE",
"567 581 OFFCURVE",
"570 597 CURVE",
"571 606 OFFCURVE",
"593 610 OFFCURVE",
"635 610 CURVE SMOOTH",
"673 610 LINE SMOOTH",
"725 610 OFFCURVE",
"788 569 OFFCURVE",
"813 518 CURVE",
"815 513 OFFCURVE",
"820 511 OFFCURVE",
"827 511 CURVE SMOOTH",
"839 511 OFFCURVE",
"847 513 OFFCURVE",
"850 516 CURVE",
"837 580 OFFCURVE",
"823 651 OFFCURVE",
"821 664 CURVE",
"784 664 OFFCURVE",
"728 663 OFFCURVE",
"654 660 CURVE SMOOTH",
"580 657 OFFCURVE",
"528 656 OFFCURVE",
"498 656 CURVE SMOOTH",
"453 656 OFFCURVE",
"407 659 OFFCURVE",
"360 664 CURVE",
"358 662 OFFCURVE",
"357 655 OFFCURVE",
"357 644 CURVE SMOOTH",
"357 633 OFFCURVE",
"358 627 OFFCURVE",
"361 627 CURVE SMOOTH",
"376 627 OFFCURVE",
"410 613 OFFCURVE",
"410 598 CURVE SMOOTH",
"410 593 OFFCURVE",
"409 588 OFFCURVE",
"406 584 CURVE SMOOTH",
"124 132 LINE SMOOTH",
"111 111 OFFCURVE",
"98 87 OFFCURVE",
"76 63 CURVE SMOOTH",
"67 53 OFFCURVE",
"9 33 OFFCURVE",
"-7 33 CURVE SMOOTH",
"-8 33 OFFCURVE",
"-13 15 OFFCURVE",
"-13 8 CURVE SMOOTH",
"-13 1 OFFCURVE",
"-12 -3 OFFCURVE",
"-11 -4 CURVE"
);
},
{
closed = 1;
nodes = (
"337 271 OFFCURVE",
"310 272 OFFCURVE",
"291 274 CURVE",
"435 507 LINE",
"425 515 LINE",
"425 274 LINE",
"413 273 OFFCURVE",
"374 271 OFFCURVE",
"360 271 CURVE SMOOTH"
);
}
);
width = 925;
}
);
note = AE;
rightMetricsKey = E;
unicode = 00C6;
},
{
color = 3;
glyphname = B;
lastChange = "2019-01-09 14:55:50 +0000";
layers = (
{
anchors = (
{
name = bottom;
position = "{297, 0}";
},
{
name = top;
position = "{297, 658}";
}
);
background = {
paths = (
{
closed = 1;
nodes = (
"455 89 OFFCURVE",
"397 45 OFFCURVE",
"271 45 CURVE SMOOTH",
"246 45 OFFCURVE",
"227 50 OFFCURVE",
"217 59 CURVE SMOOTH",
"207 68 OFFCURVE",
"201 100 OFFCURVE",
"201 148 CURVE SMOOTH",
"201 294 LINE SMOOTH",
"201 308 OFFCURVE",
"202 319 OFFCURVE",
"205 327 CURVE",
"238 330 OFFCURVE",
"262 331 OFFCURVE",
"277 331 CURVE SMOOTH",
"384 331 OFFCURVE",
"455 272 OFFCURVE",
"455 183 CURVE SMOOTH"
);
},
{
closed = 1;
nodes = (
"114 88 OFFCURVE",
"112 57 OFFCURVE",
"107 49 CURVE SMOOTH",
"102 39 OFFCURVE",
"62 26 OFFCURVE",
"38 26 CURVE SMOOTH",
"36 26 OFFCURVE",
"35 22 OFFCURVE",
"35 13 CURVE SMOOTH",
"35 4 OFFCURVE",
"36 -1 OFFCURVE",
"38 -3 CURVE",
"78 -1 OFFCURVE",
"119 0 OFFCURVE",
"159 0 CURVE SMOOTH",
"296 0 LINE SMOOTH",
"452 0 OFFCURVE",
"550 75 OFFCURVE",
"550 194 CURVE SMOOTH",
"550 274 OFFCURVE",
"486 344 OFFCURVE",
"400 360 CURVE",
"398 362 OFFCURVE",
"400 364 OFFCURVE",
"405 366 CURVE SMOOTH",
"465 390 OFFCURVE",
"507 444 OFFCURVE",
"507 499 CURVE SMOOTH",
"507 590 OFFCURVE",
"419 657 OFFCURVE",
"298 657 CURVE SMOOTH",
"255 657 OFFCURVE",
"194 656 OFFCURVE",
"157 656 CURVE SMOOTH",
"112 656 OFFCURVE",
"73 657 OFFCURVE",
"38 658 CURVE",
"35 655 OFFCURVE",
"34 650 OFFCURVE",
"34 641 CURVE SMOOTH",
"34 633 OFFCURVE",
"35 629 OFFCURVE",
"38 629 CURVE SMOOTH",
"61 629 OFFCURVE",
"104 615 OFFCURVE",
"107 607 CURVE",
"112 589 OFFCURVE",
"114 560 OFFCURVE",
"114 521 CURVE SMOOTH",
"114 143 LINE SMOOTH"
);
},
{
closed = 1;
nodes = (
"307 374 OFFCURVE",
"288 373 OFFCURVE",
"267 373 CURVE SMOOTH",
"223 373 OFFCURVE",
"201 375 OFFCURVE",
"201 380 CURVE SMOOTH",
"201 499 LINE",
"205 600 LINE",
"205 605 OFFCURVE",
"207 608 OFFCURVE",
"211 609 CURVE",
"228 614 OFFCURVE",
"251 616 OFFCURVE",
"282 616 CURVE SMOOTH",
"366 616 OFFCURVE",
"419 568 OFFCURVE",
"419 490 CURVE SMOOTH",
"419 423 OFFCURVE",
"385 382 OFFCURVE",
"323 376 CURVE SMOOTH"
);
}
);
};
color = -1;
layerId = "0276F023-BC64-4582-8657-390FE5DB601E";
paths = (
{
closed = 1;
nodes = (
"81 -1 OFFCURVE",
"122 0 OFFCURVE",
"162 0 CURVE SMOOTH",
"208 0 OFFCURVE",
"243 0 OFFCURVE",
"289 0 CURVE SMOOTH",
"453 0 OFFCURVE",
"553 74 OFFCURVE",
"553 194 CURVE SMOOTH",
"553 279 OFFCURVE",
"484 350 OFFCURVE",
"388 363 CURVE",
"388 356 LINE",
"464 384 OFFCURVE",
"510 441 OFFCURVE",
"510 509 CURVE SMOOTH",
"510 598 OFFCURVE",
"431 657 OFFCURVE",
"311 657 CURVE SMOOTH",
"258 657 OFFCURVE",
"197 656 OFFCURVE",
"160 656 CURVE SMOOTH",
"125 656 OFFCURVE",
"91 657 OFFCURVE",
"41 658 CURVE",
"38 655 OFFCURVE",
"37 650 OFFCURVE",
"37 641 CURVE SMOOTH",
"37 633 OFFCURVE",
"38 629 OFFCURVE",
"41 629 CURVE SMOOTH",
"64 629 OFFCURVE",
"107 615 OFFCURVE",
"110 607 CURVE",
"115 591 OFFCURVE",
"117 564 OFFCURVE",
"117 521 CURVE SMOOTH",
"117 143 LINE SMOOTH",
"117 85 OFFCURVE",
"115 57 OFFCURVE",
"110 49 CURVE SMOOTH",
"105 39 OFFCURVE",
"66 26 OFFCURVE",
"41 26 CURVE SMOOTH",
"39 26 OFFCURVE",
"38 22 OFFCURVE",
"38 13 CURVE SMOOTH",
"38 4 OFFCURVE",
"39 -1 OFFCURVE",
"41 -3 CURVE"
);
},
{
closed = 1;
nodes = (
"227 45 OFFCURVE",
"204 60 OFFCURVE",
"204 108 CURVE SMOOTH",
"204 327 LINE",
"223 330 OFFCURVE",
"247 331 OFFCURVE",
"270 331 CURVE SMOOTH",
"395 331 OFFCURVE",
"458 274 OFFCURVE",
"458 183 CURVE SMOOTH",
"458 93 OFFCURVE",
"404 45 OFFCURVE",
"304 45 CURVE SMOOTH"
);
},
{
closed = 1;
nodes = (
"241 373 OFFCURVE",
"224 374 OFFCURVE",
"204 376 CURVE",
"204 594 LINE SMOOTH",
"204 611 OFFCURVE",
"220 616 OFFCURVE",
"275 616 CURVE SMOOTH",
"367 616 OFFCURVE",
"422 570 OFFCURVE",
"422 493 CURVE SMOOTH",
"422 410 OFFCURVE",
"376 373 OFFCURVE",
"270 373 CURVE SMOOTH"
);
}
);
width = 598;
},
{
anchors = (
{
name = bottom;
position = "{307, 0}";
},
{
name = top;
position = "{307, 658}";
}
);
background = {
paths = (
{
closed = 1;
nodes = (
"427 95 OFFCURVE",
"383 53 OFFCURVE",
"304 53 CURVE SMOOTH",
"281 53 OFFCURVE",
"256 56 OFFCURVE",
"249 60 CURVE SMOOTH",
"244 63 OFFCURVE",
"242 68 OFFCURVE",
"242 74 CURVE SMOOTH",
"242 284 LINE SMOOTH",
"242 298 OFFCURVE",
"243 305 OFFCURVE",
"246 310 CURVE",
"258 314 OFFCURVE",
"277 315 OFFCURVE",
"294 315 CURVE SMOOTH",
"376 315 OFFCURVE",
"427 269 OFFCURVE",
"427 176 CURVE SMOOTH"
);
},
{
closed = 1;
nodes = (
"102 95 OFFCURVE",
"100 69 OFFCURVE",
"96 55 CURVE SMOOTH",
"93 46 OFFCURVE",
"54 33 OFFCURVE",
"30 33 CURVE SMOOTH",
"27 33 OFFCURVE",
"26 26 OFFCURVE",
"26 13 CURVE SMOOTH",
"26 4 OFFCURVE",
"27 -1 OFFCURVE",
"30 -4 CURVE",
"90 0 OFFCURVE",
"132 2 OFFCURVE",
"176 2 CURVE SMOOTH",
"222 2 OFFCURVE",
"267 0 OFFCURVE",
"313 0 CURVE SMOOTH",
"475 0 OFFCURVE",
"577 72 OFFCURVE",
"577 187 CURVE SMOOTH",
"577 262 OFFCURVE",
"538 330 OFFCURVE",
"429 354 CURVE",
"429 343 LINE",
"516 370 OFFCURVE",
"554 431 OFFCURVE",
"554 483 CURVE SMOOTH",
"554 592 OFFCURVE",
"459 661 OFFCURVE",
"310 660 CURVE SMOOTH",
"247 660 OFFCURVE",
"197 659 OFFCURVE",
"175 659 CURVE SMOOTH",
"130 659 OFFCURVE",
"81 661 OFFCURVE",
"28 664 CURVE",
"26 662 OFFCURVE",
"25 656 OFFCURVE",
"25 645 CURVE SMOOTH",
"25 633 OFFCURVE",
"26 627 OFFCURVE",
"29 627 CURVE SMOOTH",
"47 627 OFFCURVE",
"93 608 OFFCURVE",
"96 599 CURVE",
"100 584 OFFCURVE",
"102 558 OFFCURVE",
"102 521 CURVE SMOOTH",
"102 143 LINE SMOOTH"
);
},
{
closed = 1;
nodes = (
"339 374 OFFCURVE",
"320 371 OFFCURVE",
"294 371 CURVE SMOOTH",
"249 371 OFFCURVE",
"242 374 OFFCURVE",
"242 383 CURVE SMOOTH",
"242 499 LINE",
"242 592 LINE SMOOTH",
"242 599 OFFCURVE",
"245 603 OFFCURVE",
"251 604 CURVE",
"262 606 OFFCURVE",
"271 608 OFFCURVE",
"289 608 CURVE SMOOTH",
"369 608 OFFCURVE",
"401 567 OFFCURVE",
"401 482 CURVE SMOOTH",
"401 428 OFFCURVE",
"387 399 OFFCURVE",
"351 380 CURVE SMOOTH"
);
}
);
};
layerId = "E2E62ECD-1E64-44AC-9B50-C09427155398";
paths = (
{
closed = 1;
nodes = (
"109 1 OFFCURVE",
"144 2 OFFCURVE",
"181 2 CURVE SMOOTH",
"227 2 OFFCURVE",
"272 0 OFFCURVE",
"318 0 CURVE SMOOTH",
"489 0 OFFCURVE",
"600 79 OFFCURVE",
"600 197 CURVE SMOOTH",
"600 286 OFFCURVE",
"536 343 OFFCURVE",
"425 354 CURVE",
"414 343 LINE",
"501 365 OFFCURVE",
"554 427 OFFCURVE",
"554 507 CURVE SMOOTH",
"554 601 OFFCURVE",
"469 661 OFFCURVE",
"335 660 CURVE SMOOTH",
"281 659 OFFCURVE",
"227 659 OFFCURVE",
"180 659 CURVE SMOOTH",
"146 659 OFFCURVE",
"106 660 OFFCURVE",
"33 664 CURVE",
"31 662 OFFCURVE",
"30 656 OFFCURVE",
"30 645 CURVE SMOOTH",
"30 632 OFFCURVE",
"31 627 OFFCURVE",
"34 627 CURVE SMOOTH",
"52 627 OFFCURVE",
"98 608 OFFCURVE",
"101 599 CURVE",
"105 584 OFFCURVE",
"107 558 OFFCURVE",
"107 521 CURVE SMOOTH",
"107 143 LINE SMOOTH",
"107 98 OFFCURVE",
"105 70 OFFCURVE",
"101 55 CURVE SMOOTH",
"98 46 OFFCURVE",
"59 33 OFFCURVE",
"35 33 CURVE SMOOTH",
"32 33 OFFCURVE",
"31 28 OFFCURVE",
"31 13 CURVE SMOOTH",
"31 4 OFFCURVE",
"32 -1 OFFCURVE",
"35 -4 CURVE"
);
},
{
closed = 1;
nodes = (
"259 52 OFFCURVE",
"247 62 OFFCURVE",
"247 103 CURVE SMOOTH",
"247 310 LINE",
"261 314 OFFCURVE",
"277 315 OFFCURVE",
"307 315 CURVE SMOOTH",
"398 315 OFFCURVE",
"450 266 OFFCURVE",
"450 179 CURVE SMOOTH",
"450 97 OFFCURVE",
"400 52 OFFCURVE",
"309 52 CURVE SMOOTH"
);
},
{
closed = 1;
nodes = (
"273 371 OFFCURVE",
"259 372 OFFCURVE",
"247 374 CURVE",
"247 589 LINE SMOOTH",
"247 602 OFFCURVE",
"262 608 OFFCURVE",
"294 608 CURVE SMOOTH",
"363 608 OFFCURVE",
"406 563 OFFCURVE",
"406 490 CURVE SMOOTH",
"406 410 OFFCURVE",
"371 371 OFFCURVE",
"299 371 CURVE SMOOTH"
);
}
);
width = 638;
}
);
note = B;
unicode = 0042;
},
{
color = 3;
glyphname = C;
lastChange = "2018-12-05 21:28:22 +0000";
layers = (
{
anchors = (
{
name = bottom;
position = "{335, 0}";
},
{
name = top;
position = "{335, 658}";
}
);
background = {
paths = (
{
closed = 1;
nodes = (
"476 -6 OFFCURVE",
"555 9 OFFCURVE",
"604 38 CURVE",
"612 42 OFFCURVE",
"638 168 OFFCURVE",
"638 183 CURVE",
"629 188 OFFCURVE",
"619 192 OFFCURVE",
"602 192 CURVE",
"590 144 OFFCURVE",
"571 107 OFFCURVE",
"542 81 CURVE SMOOTH",
"509 52 OFFCURVE",
"463 37 OFFCURVE",
"403 37 CURVE SMOOTH",
"244 37 OFFCURVE",
"143 167 OFFCURVE",
"143 341 CURVE SMOOTH",
"143 498 OFFCURVE",
"248 625 OFFCURVE",
"379 625 CURVE SMOOTH",
"442 625 OFFCURVE",
"494 607 OFFCURVE",
"522 587 CURVE SMOOTH",
"550 567 OFFCURVE",
"567 541 OFFCURVE",
"583 485 CURVE",
"589 482 OFFCURVE",
"612 485 OFFCURVE",
"617 491 CURVE",
"617 505 OFFCURVE",
"618 553 OFFCURVE",
"619 642 CURVE",
"536 659 OFFCURVE",
"465 667 OFFCURVE",
"406 667 CURVE SMOOTH",
"299 667 OFFCURVE",
"226 635 OFFCURVE",
"174 595 CURVE SMOOTH",
"93 533 OFFCURVE",
"48 431 OFFCURVE",
"48 322 CURVE SMOOTH",
"48 244 OFFCURVE",
"73 172 OFFCURVE",
"125 109 CURVE SMOOTH",
"181 41 OFFCURVE",
"278 -6 OFFCURVE",
"402 -6 CURVE SMOOTH"
);
}
);
};
layerId = "0276F023-BC64-4582-8657-390FE5DB601E";
paths = (
{
closed = 1;
nodes = (
"479 -6 OFFCURVE",
"558 9 OFFCURVE",
"607 38 CURVE",
"615 42 OFFCURVE",
"641 168 OFFCURVE",
"641 183 CURVE",
"632 188 OFFCURVE",
"622 192 OFFCURVE",
"605 192 CURVE",
"593 144 OFFCURVE",
"574 107 OFFCURVE",
"545 81 CURVE SMOOTH",
"512 52 OFFCURVE",
"466 37 OFFCURVE",
"406 37 CURVE SMOOTH",
"247 37 OFFCURVE",
"146 167 OFFCURVE",
"146 341 CURVE SMOOTH",
"146 498 OFFCURVE",
"243 625 OFFCURVE",
"392 625 CURVE SMOOTH",
"497 625 OFFCURVE",
"557 587 OFFCURVE",
"586 485 CURVE",
"592 482 OFFCURVE",
"615 485 OFFCURVE",
"620 491 CURVE",
"620 505 OFFCURVE",
"621 553 OFFCURVE",
"622 642 CURVE",
"539 659 OFFCURVE",
"468 667 OFFCURVE",
"409 667 CURVE SMOOTH",
"196 667 OFFCURVE",
"51 528 OFFCURVE",
"51 322 CURVE SMOOTH",
"51 129 OFFCURVE",
"199 -6 OFFCURVE",
"405 -6 CURVE SMOOTH"
);
}
);
width = 666;
},
{
anchors = (
{
name = bottom;
position = "{340, 0}";
},
{
name = top;
position = "{340, 658}";
}
);
background = {
paths = (
{
closed = 1;
nodes = (
"465 -7 OFFCURVE",
"520 7 OFFCURVE",
"587 34 CURVE",
"596 38 OFFCURVE",
"626 149 OFFCURVE",
"626 180 CURVE",
"623 187 OFFCURVE",
"608 190 OFFCURVE",
"581 190 CURVE",
"571 155 OFFCURVE",
"557 124 OFFCURVE",
"535 99 CURVE SMOOTH",
"506 67 OFFCURVE",
"464 47 OFFCURVE",
"407 47 CURVE SMOOTH",
"280 47 OFFCURVE",
"196 165 OFFCURVE",
"196 343 CURVE SMOOTH",
"196 522 OFFCURVE",
"256 611 OFFCURVE",
"375 611 CURVE SMOOTH",
"423 611 OFFCURVE",
"466 600 OFFCURVE",
"501 579 CURVE SMOOTH",
"538 556 OFFCURVE",
"564 520 OFFCURVE",
"576 478 CURVE",
"593 474 OFFCURVE",
"609 476 OFFCURVE",
"620 481 CURVE",
"620 518 OFFCURVE",
"610 598 OFFCURVE",
"599 638 CURVE",
"529 657 OFFCURVE",
"453 667 OFFCURVE",
"400 667 CURVE SMOOTH",
"304 667 OFFCURVE",
"204 638 OFFCURVE",
"132 562 CURVE SMOOTH",
"74 501 OFFCURVE",
"40 415 OFFCURVE",
"40 322 CURVE SMOOTH",
"40 215 OFFCURVE",
"92 115 OFFCURVE",
"170 59 CURVE SMOOTH",
"241 8 OFFCURVE",
"325 -7 OFFCURVE",
"400 -7 CURVE SMOOTH"
);
}
);
};
layerId = "E2E62ECD-1E64-44AC-9B50-C09427155398";
paths = (
{
closed = 1;
nodes = (
"470 -7 OFFCURVE",
"525 7 OFFCURVE",
"592 34 CURVE",
"601 38 OFFCURVE",
"631 149 OFFCURVE",
"631 180 CURVE",
"628 187 OFFCURVE",
"613 190 OFFCURVE",
"586 190 CURVE",
"576 155 OFFCURVE",
"562 124 OFFCURVE",
"540 99 CURVE SMOOTH",
"511 67 OFFCURVE",
"469 47 OFFCURVE",
"412 47 CURVE SMOOTH",
"285 47 OFFCURVE",
"201 165 OFFCURVE",
"201 343 CURVE SMOOTH",
"201 512 OFFCURVE",
"271 611 OFFCURVE",
"400 611 CURVE SMOOTH",
"487 611 OFFCURVE",
"556 567 OFFCURVE",
"581 478 CURVE",
"598 474 OFFCURVE",
"614 476 OFFCURVE",
"625 481 CURVE",
"623 518 OFFCURVE",
"615 598 OFFCURVE",
"604 638 CURVE",
"534 657 OFFCURVE",
"458 667 OFFCURVE",
"405 667 CURVE SMOOTH",
"205 667 OFFCURVE",
"45 526 OFFCURVE",
"45 322 CURVE SMOOTH",
"45 124 OFFCURVE",
"195 -7 OFFCURVE",
"405 -7 CURVE SMOOTH"
);
}
);
width = 657;
}
);
leftMetricsKey = O;
note = C;
unicode = 0043;
},
{
color = 3;
glyphname = D;
lastChange = "2018-11-27 20:44:50 +0000";
layers = (
{
anchors = (
{
name = bottom;
position = "{364, 0}";
},
{
name = center;
position = "{364, 329}";
},
{
name = stroke;
position = "{221, 330}";
},
{
name = top;
position = "{364, 658}";
}
);
background = {
paths = (
{
closed = 1;
nodes = (
"112.333 656 OFFCURVE",
"72.667 656.667 OFFCURVE",
"38 658 CURVE",
"35.333 655.333 OFFCURVE",
"34 649.667 OFFCURVE",
"34 641 CURVE SMOOTH",
"34 633 OFFCURVE",
"35.333 629 OFFCURVE",
"38 629 CURVE SMOOTH",
"61 629 OFFCURVE",
"104 615 OFFCURVE",
"107 607 CURVE",
"111.667 589 OFFCURVE",
"114 560.333 OFFCURVE",
"114 521 CURVE SMOOTH",
"114 143 LINE SMOOTH",
"114 88.333 OFFCURVE",
"111.667 57 OFFCURVE",
"107 49 CURVE SMOOTH",
"102 39 OFFCURVE",
"63 26 OFFCURVE",
"38 26 CURVE SMOOTH",
"36 26 OFFCURVE",
"35 21.333 OFFCURVE",
"35 12 CURVE SMOOTH",
"35 4 OFFCURVE",
"36 -1 OFFCURVE",
"38 -3 CURVE",
"159 0 LINE SMOOTH",
"185.667 0.667 OFFCURVE",
"218.833 0.333 OFFCURVE",
"258.5 -1 CURVE SMOOTH",
"298.167 -2.333 OFFCURVE",
"322 -3 OFFCURVE",
"330 -3 CURVE SMOOTH",
"537 -3 OFFCURVE",
"676 134 OFFCURVE",
"676 336 CURVE SMOOTH",
"676 519 OFFCURVE",
"533 658 OFFCURVE",
"341 658 CURVE SMOOTH",
"282 658 OFFCURVE",
"186 656 OFFCURVE",
"157 656 CURVE SMOOTH"
);
},
{
closed = 1;
nodes = (
"201 565 OFFCURVE",
"205.333 586 OFFCURVE",
"214 598 CURVE SMOOTH",
"222 608.667 OFFCURVE",
"263 614 OFFCURVE",
"311 614 CURVE SMOOTH",
"346 614 LINE SMOOTH",
"483 614 OFFCURVE",
"576 504 OFFCURVE",
"576 337 CURVE SMOOTH",
"576 141 OFFCURVE",
"499.333 43 OFFCURVE",
"346 43 CURVE SMOOTH",
"286 43 OFFCURVE",
"220 53 OFFCURVE",
"216 63 CURVE",
"206 85.667 OFFCURVE",
"201 111 OFFCURVE",
"201 139 CURVE SMOOTH",
"201 535 LINE SMOOTH"
);
}
);
};
guideLines = (
{
angle = 90;
position = "{38, 327}";
}
);
layerId = "0276F023-BC64-4582-8657-390FE5DB601E";
paths = (
{
closed = 1;
nodes = (
"115 656 OFFCURVE",
"76 657 OFFCURVE",
"41 658 CURVE",
"38 655 OFFCURVE",
"37 650 OFFCURVE",
"37 641 CURVE SMOOTH",
"37 633 OFFCURVE",
"38 629 OFFCURVE",
"41 629 CURVE SMOOTH",
"64 629 OFFCURVE",
"107 615 OFFCURVE",
"110 607 CURVE",
"115 589 OFFCURVE",
"117 560 OFFCURVE",
"117 521 CURVE SMOOTH",
"117 143 LINE SMOOTH",
"117 88 OFFCURVE",
"115 57 OFFCURVE",
"110 49 CURVE SMOOTH",
"105 39 OFFCURVE",
"66 26 OFFCURVE",
"41 26 CURVE SMOOTH",
"39 26 OFFCURVE",
"38 21 OFFCURVE",
"38 12 CURVE SMOOTH",
"38 4 OFFCURVE",
"39 -1 OFFCURVE",
"41 -3 CURVE",
"81 -2 OFFCURVE",
"122 0 OFFCURVE",
"162 0 CURVE SMOOTH",
"205 0 OFFCURVE",
"310 -3 OFFCURVE",
"333 -3 CURVE SMOOTH",
"540 -3 OFFCURVE",
"679 134 OFFCURVE",
"679 336 CURVE SMOOTH",
"679 519 OFFCURVE",
"536 658 OFFCURVE",
"324 658 CURVE SMOOTH",
"285 658 OFFCURVE",
"189 656 OFFCURVE",
"160 656 CURVE SMOOTH"
);
},
{
closed = 1;
nodes = (
"204 565 OFFCURVE",
"208 586 OFFCURVE",
"217 598 CURVE SMOOTH",
"225 609 OFFCURVE",
"266 614 OFFCURVE",
"314 614 CURVE SMOOTH",
"490 614 OFFCURVE",
"579 517 OFFCURVE",
"579 337 CURVE SMOOTH",
"579 141 OFFCURVE",
"502 43 OFFCURVE",
"349 43 CURVE SMOOTH",
"289 43 OFFCURVE",
"223 53 OFFCURVE",
"219 63 CURVE",
"209 86 OFFCURVE",
"204 111 OFFCURVE",
"204 139 CURVE SMOOTH",
"204 535 LINE SMOOTH"
);
}
);
width = 730;
},
{
anchors = (
{
name = bottom;
position = "{367, 0}";
},
{
name = center;
position = "{367, 329}";
},
{
name = stroke;
position = "{224, 330}";
},
{
name = top;
position = "{367, 658}";
}
);
background = {
paths = (
{
closed = 1;
nodes = (
"109 659 OFFCURVE",
"29 664 QCURVE",
"26 661 OFFCURVE",
"26 645 QCURVE SMOOTH",
"26 627 OFFCURVE",
"30 627 QCURVE SMOOTH",
"41 627 OFFCURVE",
"94 607 OFFCURVE",
"97 599 QCURVE",
"103 576 OFFCURVE",
"103 521 QCURVE SMOOTH",
"103 143 LINE SMOOTH",
"103 78 OFFCURVE",
"97 55 QCURVE",
"94 47 OFFCURVE",
"43 33 OFFCURVE",
"31 33 QCURVE SMOOTH",
"27 33 OFFCURVE",
"27 13 QCURVE SMOOTH",
"27 0 OFFCURVE",
"31 -4 QCURVE",
"177 2 LINE",
"212 2 OFFCURVE",
"330 -3 OFFCURVE",
"349 -3 QCURVE SMOOTH",
"511 -3 OFFCURVE",
"697 192 OFFCURVE",
"697 336 QCURVE SMOOTH",
"697 466 OFFCURVE",
"513 659 OFFCURVE",
"350 659 QCURVE SMOOTH",
"176 659 OFFCURVE",
"176 659 QCURVE SMOOTH"
);
},
{
closed = 1;
nodes = (
"243 569 OFFCURVE",
"256 587 QCURVE SMOOTH",
"268 603 OFFCURVE",
"353 603 QCURVE SMOOTH",
"358 603 LINE SMOOTH",
"444 603 OFFCURVE",
"541 450 OFFCURVE",
"541 340 QCURVE SMOOTH",
"541 197 OFFCURVE",
"449 53 OFFCURVE",
"365 53 QCURVE SMOOTH",
"274 53 OFFCURVE",
"252 66 QCURVE SMOOTH",
"243 71 OFFCURVE",
"243 136 QCURVE SMOOTH",
"243 524 LINE SMOOTH"
);
}
);
};
guideLines = (
{
angle = 90;
position = "{32, 329}";
}
);
layerId = "E2E62ECD-1E64-44AC-9B50-C09427155398";
paths = (
{
closed = 1;
nodes = (
"136 659 OFFCURVE",
"87 661 OFFCURVE",
"34 664 CURVE",
"32 662 OFFCURVE",
"31 656 OFFCURVE",
"31 645 CURVE SMOOTH",
"31 633 OFFCURVE",
"32 627 OFFCURVE",
"35 627 CURVE SMOOTH",
"53 627 OFFCURVE",
"99 608 OFFCURVE",
"102 599 CURVE",
"106 584 OFFCURVE",
"108 558 OFFCURVE",
"108 521 CURVE SMOOTH",
"108 143 LINE SMOOTH",
"108 100 OFFCURVE",
"106 70 OFFCURVE",
"102 55 CURVE",
"99 47 OFFCURVE",
"57 33 OFFCURVE",
"36 33 CURVE SMOOTH",
"33 33 OFFCURVE",
"32 26 OFFCURVE",
"32 13 CURVE SMOOTH",
"32 4 OFFCURVE",
"33 -1 OFFCURVE",
"36 -4 CURVE",
"85 -2 OFFCURVE",
"135 2 OFFCURVE",
"182 2 CURVE SMOOTH",
"201 2 OFFCURVE",
"338 -3 OFFCURVE",
"354 -3 CURVE SMOOTH",
"561 -3 OFFCURVE",
"702 135 OFFCURVE",
"702 336 CURVE SMOOTH",
"702 524 OFFCURVE",
"557 659 OFFCURVE",
"345 659 CURVE SMOOTH",
"270 659 OFFCURVE",
"206 659 OFFCURVE",
"181 659 CURVE SMOOTH"
);
},
{
closed = 1;
nodes = (
"248 554 OFFCURVE",
"252 575 OFFCURVE",
"261 587 CURVE SMOOTH",
"269 598 OFFCURVE",
"301 603 OFFCURVE",
"338 603 CURVE SMOOTH",
"475 603 OFFCURVE",
"546 498 OFFCURVE",
"546 340 CURVE SMOOTH",
"546 154 OFFCURVE",
"484 53 OFFCURVE",
"350 53 CURVE SMOOTH",
"309 53 OFFCURVE",
"272 57 OFFCURVE",
"257 66 CURVE SMOOTH",
"251 69 OFFCURVE",
"248 93 OFFCURVE",
"248 136 CURVE SMOOTH",
"248 524 LINE SMOOTH"
);
}
);
width = 747;
}
);
note = D;
rightMetricsKey = O;
unicode = 0044;
},
{
color = 6;
glyphname = Eth;
lastChange = "2018-11-28 09:30:54 +0000";
layers = (
{
background = {
paths = (
{
closed = 1;
nodes = (
"48 339 OFFCURVE",
"48 321 QCURVE SMOOTH",
"48 308 OFFCURVE",
"53 308 QCURVE SMOOTH",
"399 308 OFFCURVE",
"399 308 QCURVE",
"405 322 OFFCURVE",
"405 338 QCURVE SMOOTH",
"405 348 OFFCURVE",
"399 348 QCURVE SMOOTH",
"54 348 OFFCURVE",
"54 348 QCURVE"
);
},
{
closed = 1;
nodes = (
"90 656 OFFCURVE",
"38 658 QCURVE",
"34 654 OFFCURVE",
"34 641 QCURVE SMOOTH",
"34 629 OFFCURVE",
"38 629 QCURVE SMOOTH",
"51 629 OFFCURVE",
"104 615 OFFCURVE",
"107 607 QCURVE",
"114 580 OFFCURVE",
"114 521 QCURVE SMOOTH",
"114 143 LINE SMOOTH",
"114 61 OFFCURVE",
"107 49 QCURVE SMOOTH",
"102 40 OFFCURVE",
"51 26 OFFCURVE",
"38 26 QCURVE SMOOTH",
"35 26 OFFCURVE",
"35 12 QCURVE SMOOTH",
"35 0 OFFCURVE",
"38 -3 QCURVE",
"159 0 LINE SMOOTH",
"197 1 OFFCURVE",
"318 -3 OFFCURVE",
"330 -3 QCURVE SMOOTH",
"492 -3 OFFCURVE",
"676 191 OFFCURVE",
"676 336 QCURVE SMOOTH",
"676 466 OFFCURVE",
"494 658 OFFCURVE",
"331 658 QCURVE SMOOTH",
"312 658 OFFCURVE",
"193 656 OFFCURVE",
"157 656 QCURVE SMOOTH"
);
},
{
closed = 1;
nodes = (
"201 580 OFFCURVE",
"214 598 QCURVE SMOOTH",
"226 614 OFFCURVE",
"334 614 QCURVE SMOOTH",
"339 614 LINE SMOOTH",
"455 614 OFFCURVE",
"580 453 OFFCURVE",
"580 340 QCURVE SMOOTH",
"580 194 OFFCURVE",
"461 43 OFFCURVE",
"346 43 QCURVE SMOOTH",
"319 43 OFFCURVE",
"220 53 OFFCURVE",
"216 63 QCURVE",
"201 97 OFFCURVE",
"201 139 QCURVE SMOOTH",
"201 535 LINE SMOOTH"
);
}
);
};
components = (
{
name = D;
},
{
name = strokeshortcomb.case;
transform = "{1, 0, 0, 1, 71, 0}";
}
);
layerId = "0276F023-BC64-4582-8657-390FE5DB601E";
width = 730;
},
{
background = {
paths = (
{
closed = 1;
nodes = (
"47 344 OFFCURVE",
"47 322 QCURVE SMOOTH",
"47 307 OFFCURVE",
"52 307 QCURVE SMOOTH",
"398 307 LINE",
"404 320 OFFCURVE",
"404 339 QCURVE SMOOTH",
"404 353 OFFCURVE",
"398 353 QCURVE SMOOTH",
"53 353 LINE"
);
},
{
closed = 1;
nodes = (
"110 659 OFFCURVE",
"29 664 QCURVE",
"26 661 OFFCURVE",
"26 645 QCURVE SMOOTH",
"26 627 OFFCURVE",
"30 627 QCURVE SMOOTH",
"41 627 OFFCURVE",
"94 607 OFFCURVE",
"97 599 QCURVE",
"103 576 OFFCURVE",
"103 521 QCURVE SMOOTH",
"103 143 LINE SMOOTH",
"103 78 OFFCURVE",
"97 55 QCURVE",
"94 47 OFFCURVE",
"43 33 OFFCURVE",
"31 33 QCURVE SMOOTH",
"27 33 OFFCURVE",
"27 13 QCURVE SMOOTH",
"27 0 OFFCURVE",
"31 -4 QCURVE",
"177 2 LINE",
"213 2 OFFCURVE",
"330 -3 OFFCURVE",
"349 -3 QCURVE SMOOTH",
"511 -3 OFFCURVE",
"695 191 OFFCURVE",
"695 336 QCURVE SMOOTH",
"695 419 OFFCURVE",
"621 563 OFFCURVE",
"460 659 OFFCURVE",
"350 659 QCURVE SMOOTH",
"176 659 LINE SMOOTH"
);
},
{
closed = 1;
nodes = (
"243 569 OFFCURVE",
"256 587 QCURVE SMOOTH",
"268 603 OFFCURVE",
"353 603 QCURVE SMOOTH",
"358 603 LINE SMOOTH",
"444 603 OFFCURVE",
"543 450 OFFCURVE",
"543 340 QCURVE SMOOTH",
"543 197 OFFCURVE",
"450 53 OFFCURVE",
"365 53 QCURVE SMOOTH",
"274 53 OFFCURVE",
"252 66 QCURVE SMOOTH",
"243 71 OFFCURVE",
"243 136 QCURVE SMOOTH",
"243 524 LINE SMOOTH"
);
}
);
};
components = (
{
name = D;
},
{
name = strokeshortcomb.case;
transform = "{1, 0, 0, 1, 74, 0}";
}
);
layerId = "E2E62ECD-1E64-44AC-9B50-C09427155398";
width = 747;
}
);
widthMetricsKey = D;
note = Eth;
rightMetricsKey = O;
unicode = 00D0;
},
{
color = 3;
glyphname = E;
lastChange = "2018-11-27 13:18:45 +0000";
layers = (
{
anchors = (
{
name = bottom;
position = "{294, 0}";
},
{
name = ogonek;
position = "{526, 10}";
},
{
name = top;
position = "{294, 658}";
},
{
name = topleft;
position = "{28, 658}";
}
);
background = {
paths = (
{
closed = 1;
nodes = (
"90 656 OFFCURVE",
"38 658 QCURVE",
"34 654 OFFCURVE",
"34 641 QCURVE SMOOTH",
"34 629 OFFCURVE",
"38 629 QCURVE SMOOTH",
"51 629 OFFCURVE",
"104 615 OFFCURVE",
"107 607 QCURVE",
"114 580 OFFCURVE",
"114 521 QCURVE SMOOTH",
"114 143 LINE SMOOTH",
"114 61 OFFCURVE",
"107 49 QCURVE SMOOTH",
"102 40 OFFCURVE",
"51 26 OFFCURVE",
"38 26 QCURVE SMOOTH",
"35 26 OFFCURVE",
"35 0 OFFCURVE",
"38 -3 QCURVE",
"159 0 LINE SMOOTH",
"229 0 OFFCURVE",
"449 -4 OFFCURVE",
"500 -4 QCURVE",
"502 11 OFFCURVE",
"516 57 OFFCURVE",
"528 92 OFFCURVE",
"549 149 OFFCURVE",
"554 162 QCURVE",
"548 168 OFFCURVE",
"529 168 QCURVE SMOOTH",
"517 168 OFFCURVE",
"515 162 QCURVE",
"504 124 OFFCURVE",
"467 69 OFFCURVE",
"452 61 QCURVE SMOOTH",
"419 44 OFFCURVE",
"326 44 QCURVE SMOOTH",
"278 44 LINE SMOOTH",
"213 44 OFFCURVE",
"210 54 QCURVE",
"201 80 OFFCURVE",
"201 145 QCURVE SMOOTH",
"201 300 LINE SMOOTH",
"201 309 OFFCURVE",
"273 309 QCURVE SMOOTH",
"366 309 OFFCURVE",
"379 301 QCURVE",
"385 297 OFFCURVE",
"390 292 OFFCURVE",
"400 265 OFFCURVE",
"407 238 QCURVE",
"410 230 OFFCURVE",
"423 230 QCURVE SMOOTH",
"435 230 OFFCURVE",
"439 234 QCURVE",
"439 423 LINE",
"434 428 OFFCURVE",
"422 428 QCURVE SMOOTH",
"408 428 OFFCURVE",
"407 421 QCURVE",
"401 398 OFFCURVE",
"399 387 OFFCURVE",
"386 363 OFFCURVE",
"378 361 OFFCURVE",
"350 353 OFFCURVE",
"325 353 OFFCURVE",
"297 353 QCURVE SMOOTH",
"244 353 LINE SMOOTH",
"201 353 OFFCURVE",
"201 359 QCURVE SMOOTH",
"201 519 LINE SMOOTH",
"201 579 OFFCURVE",
"206 603 QCURVE",
"208 616 OFFCURVE",
"294 616 QCURVE SMOOTH",
"361 616 LINE SMOOTH",
"408 616 OFFCURVE",
"462 585 OFFCURVE",
"477 530 QCURVE",
"478 523 OFFCURVE",
"504 523 OFFCURVE",
"509 528 QCURVE",
"507 540 OFFCURVE",
"484 635 OFFCURVE",
"480 664 QCURVE",
"424 664 OFFCURVE",
"202 656 OFFCURVE",
"157 656 QCURVE SMOOTH"
);
}
);
};
layerId = "0276F023-BC64-4582-8657-390FE5DB601E";
paths = (
{
closed = 1;
nodes = (
"115 656 OFFCURVE",
"76 657 OFFCURVE",
"41 658 CURVE",
"38 655 OFFCURVE",
"37 650 OFFCURVE",
"37 641 CURVE SMOOTH",
"37 633 OFFCURVE",
"38 629 OFFCURVE",
"41 629 CURVE SMOOTH",
"58 629 OFFCURVE",
"106 618 OFFCURVE",
"110 607 CURVE",
"115 589 OFFCURVE",
"117 560 OFFCURVE",
"117 521 CURVE SMOOTH",
"117 143 LINE SMOOTH",
"117 88 OFFCURVE",
"115 57 OFFCURVE",
"110 49 CURVE SMOOTH",
"103 37 OFFCURVE",
"58 26 OFFCURVE",
"41 26 CURVE SMOOTH",
"39 26 OFFCURVE",
"38 22 OFFCURVE",
"38 13 CURVE SMOOTH",
"38 4 OFFCURVE",
"39 -1 OFFCURVE",
"41 -3 CURVE",
"162 0 LINE SMOOTH",
"209 0 OFFCURVE",
"269 -1 OFFCURVE",
"342 -2 CURVE SMOOTH",
"415 -3 OFFCURVE",
"469 -4 OFFCURVE",
"503 -4 CURVE",
"507 29 OFFCURVE",
"546 134 OFFCURVE",
"557 162 CURVE",
"553 166 OFFCURVE",
"545 168 OFFCURVE",
"532 168 CURVE SMOOTH",
"524 168 OFFCURVE",
"519 166 OFFCURVE",
"518 162 CURVE",
"503 111 OFFCURVE",
"475 72 OFFCURVE",
"455 61 CURVE SMOOTH",
"433 50 OFFCURVE",
"391 44 OFFCURVE",
"329 44 CURVE SMOOTH",
"281 44 LINE SMOOTH",
"238 44 OFFCURVE",
"215 47 OFFCURVE",
"213 54 CURVE",
"207 71 OFFCURVE",
"204 102 OFFCURVE",
"204 145 CURVE SMOOTH",
"204 300 LINE SMOOTH",
"204 306 OFFCURVE",
"228 309 OFFCURVE",
"276 309 CURVE SMOOTH",
"338 309 OFFCURVE",
"372 307 OFFCURVE",
"381 301 CURVE SMOOTH",
"396 291 OFFCURVE",
"401 276 OFFCURVE",
"410 238 CURVE",
"412 233 OFFCURVE",
"417 230 OFFCURVE",
"426 230 CURVE SMOOTH",
"434 230 OFFCURVE",
"439 231 OFFCURVE",
"442 234 CURVE",
"442 423 LINE",
"439 426 OFFCURVE",
"433 428 OFFCURVE",
"425 428 CURVE SMOOTH",
"416 428 OFFCURVE",
"411 426 OFFCURVE",
"410 421 CURVE",
"403 389 OFFCURVE",
"396 367 OFFCURVE",
"382 361 CURVE SMOOTH",
"371 357 OFFCURVE",
"352 353 OFFCURVE",
"324 353 CURVE SMOOTH",
"247 353 LINE SMOOTH",
"218 353 OFFCURVE",
"204 355 OFFCURVE",
"204 359 CURVE SMOOTH",
"204 519 LINE SMOOTH",
"204 559 OFFCURVE",
"206 587 OFFCURVE",
"209 603 CURVE",
"210 612 OFFCURVE",
"240 616 OFFCURVE",
"297 616 CURVE SMOOTH",
"364 616 LINE SMOOTH",
"427 616 OFFCURVE",
"460 603 OFFCURVE",
"480 530 CURVE",
"481 525 OFFCURVE",
"485 523 OFFCURVE",
"494 523 CURVE SMOOTH",
"503 523 OFFCURVE",
"509 525 OFFCURVE",
"512 528 CURVE",
"509 546 OFFCURVE",
"489 621 OFFCURVE",
"483 664 CURVE",
"446 664 OFFCURVE",
"390 663 OFFCURVE",
"316 660 CURVE SMOOTH",
"242 657 OFFCURVE",
"190 656 OFFCURVE",
"160 656 CURVE SMOOTH"
);
}
);
width = 580;
},
{
anchors = (
{
name = bottom;
position = "{304, 0}";
},
{
name = ogonek;
position = "{542, 10}";
},
{
name = top;
position = "{304, 658}";
},
{
name = topleft;
position = "{25, 658}";
}
);
background = {
paths = (
{
closed = 1;
nodes = (
"109 659 OFFCURVE",
"29 664 QCURVE",
"26 661 OFFCURVE",
"26 645 QCURVE SMOOTH",
"26 627 OFFCURVE",
"30 627 QCURVE SMOOTH",
"41 627 OFFCURVE",
"94 607 OFFCURVE",
"97 599 QCURVE",
"103 576 OFFCURVE",
"103 521 QCURVE SMOOTH",
"103 143 LINE SMOOTH",
"103 78 OFFCURVE",
"97 55 QCURVE",
"94 47 OFFCURVE",
"43 33 OFFCURVE",
"31 33 QCURVE SMOOTH",
"27 33 OFFCURVE",
"27 13 QCURVE SMOOTH",
"27 0 OFFCURVE",
"31 -4 QCURVE",
"177 2 LINE",
"246 2 OFFCURVE",
"468 -2 OFFCURVE",
"519 -2 QCURVE",
"524 32 OFFCURVE",
"573 170 QCURVE",
"567 176 OFFCURVE",
"543 176 QCURVE SMOOTH",
"530 176 OFFCURVE",
"529 170 QCURVE",
"517 139 OFFCURVE",
"474 89 OFFCURVE",
"457 80 QCURVE SMOOTH",
"407 54 OFFCURVE",
"345 54 QCURVE SMOOTH",
"319 54 LINE SMOOTH",
"256 54 OFFCURVE",
"251 70 QCURVE SMOOTH",
"243 93 OFFCURVE",
"243 141 QCURVE SMOOTH",
"243 295 LINE SMOOTH",
"243 304 OFFCURVE",
"315 304 QCURVE SMOOTH",
"380 304 OFFCURVE",
"393 296 QCURVE",
"394 295 OFFCURVE",
"400 292 OFFCURVE",
"402 290 OFFCURVE",
"407 282 OFFCURVE",
"411 272 OFFCURVE",
"417 252 OFFCURVE",
"421 238 QCURVE",
"424 230 OFFCURVE",
"437 230 QCURVE SMOOTH",
"454 230 OFFCURVE",
"458 234 QCURVE",
"458 423 LINE",
"453 428 OFFCURVE",
"436 428 QCURVE SMOOTH",
"422 428 OFFCURVE",
"421 421 QCURVE",
"417 407 OFFCURVE",
"415 392 QCURVE SMOOTH",
"412 367 OFFCURVE",
"407 363 QCURVE",
"401 359 OFFCURVE",
"339 359 QCURVE SMOOTH",
"286 359 LINE SMOOTH",
"243 359 OFFCURVE",
"243 365 QCURVE SMOOTH",
"243 519 LINE SMOOTH",
"243 573 OFFCURVE",
"248 597 QCURVE",
"250 610 OFFCURVE",
"313 610 QCURVE SMOOTH",
"351 610 LINE SMOOTH",
"390 610 OFFCURVE",
"472 556 OFFCURVE",
"491 518 QCURVE",
"494 511 OFFCURVE",
"505 511 QCURVE SMOOTH",
"523 511 OFFCURVE",
"528 516 QCURVE",
"500 654 OFFCURVE",
"499 664 QCURVE",
"442 664 OFFCURVE",
"220 659 OFFCURVE",
"176 659 QCURVE SMOOTH"
);
}
);
};
layerId = "E2E62ECD-1E64-44AC-9B50-C09427155398";
paths = (
{
closed = 1;
nodes = (
"136 659 OFFCURVE",
"87 661 OFFCURVE",
"34 664 CURVE",
"32 662 OFFCURVE",
"31 656 OFFCURVE",
"31 645 CURVE SMOOTH",
"31 633 OFFCURVE",
"32 627 OFFCURVE",
"35 627 CURVE SMOOTH",
"53 627 OFFCURVE",
"99 608 OFFCURVE",
"102 599 CURVE",
"106 584 OFFCURVE",
"108 558 OFFCURVE",
"108 521 CURVE SMOOTH",
"108 143 LINE SMOOTH",
"108 100 OFFCURVE",
"106 70 OFFCURVE",
"102 55 CURVE",
"99 47 OFFCURVE",
"57 33 OFFCURVE",
"36 33 CURVE SMOOTH",
"33 33 OFFCURVE",
"32 26 OFFCURVE",
"32 13 CURVE SMOOTH",
"32 4 OFFCURVE",
"33 -1 OFFCURVE",
"36 -4 CURVE",
"182 2 LINE",
"228 2 OFFCURVE",
"288 1 OFFCURVE",
"362 0 CURVE SMOOTH",
"436 -1 OFFCURVE",
"490 -2 OFFCURVE",
"524 -2 CURVE",
"527 21 OFFCURVE",
"545 78 OFFCURVE",
"578 170 CURVE",
"574 174 OFFCURVE",
"564 176 OFFCURVE",
"548 176 CURVE SMOOTH",
"539 176 OFFCURVE",
"535 174 OFFCURVE",
"534 170 CURVE",
"520 134 OFFCURVE",
"488 94 OFFCURVE",
"462 80 CURVE SMOOTH",
"429 62 OFFCURVE",
"391 54 OFFCURVE",
"350 54 CURVE SMOOTH",
"324 54 LINE SMOOTH",
"282 54 OFFCURVE",
"259 59 OFFCURVE",
"256 70 CURVE SMOOTH",
"252 85 OFFCURVE",
"248 109 OFFCURVE",
"248 141 CURVE SMOOTH",
"248 295 LINE SMOOTH",
"248 301 OFFCURVE",
"272 304 OFFCURVE",
"320 304 CURVE SMOOTH",
"377 304 OFFCURVE",
"401 299 OFFCURVE",
"410 286 CURVE SMOOTH",
"415 279 OFFCURVE",
"422 256 OFFCURVE",
"426 238 CURVE",
"428 233 OFFCURVE",
"433 230 OFFCURVE",
"442 230 CURVE SMOOTH",
"453 230 OFFCURVE",
"460 231 OFFCURVE",
"463 234 CURVE",
"463 423 LINE",
"460 426 OFFCURVE",
"452 428 OFFCURVE",
"441 428 CURVE SMOOTH",
"432 428 OFFCURVE",
"427 426 OFFCURVE",
"426 421 CURVE",
"424 400 OFFCURVE",
"416 372 OFFCURVE",
"411 365 CURVE",
"406 361 OFFCURVE",
"381 359 OFFCURVE",
"344 359 CURVE SMOOTH",
"291 359 LINE SMOOTH",
"262 359 OFFCURVE",
"248 361 OFFCURVE",
"248 365 CURVE SMOOTH",
"248 519 LINE SMOOTH",
"248 555 OFFCURVE",
"250 581 OFFCURVE",
"253 597 CURVE",
"254 606 OFFCURVE",
"276 610 OFFCURVE",
"318 610 CURVE SMOOTH",
"356 610 LINE SMOOTH",
"425 610 OFFCURVE",
"464 585 OFFCURVE",
"496 518 CURVE",
"498 513 OFFCURVE",
"503 511 OFFCURVE",
"510 511 CURVE SMOOTH",
"522 511 OFFCURVE",
"530 513 OFFCURVE",
"533 516 CURVE",
"517 592 OFFCURVE",
"505 656 OFFCURVE",
"504 664 CURVE",
"472 664 OFFCURVE",
"415 662 OFFCURVE",
"346 662 CURVE SMOOTH",
"253 662 OFFCURVE",
"205 659 OFFCURVE",
"181 659 CURVE SMOOTH"
);
}
);
width = 608;
}
);
note = E;
unicode = 0045;
},
{
color = 3;
glyphname = Eogonek;
lastChange = "2018-12-15 23:22:28 +0000";
layers = (
{
anchors = (
{
name = bottom;
position = "{294, 0}";
},
{
name = top;
position = "{294, 658}";
},
{
name = topleft;
position = "{28, 658}";
}
);
background = {
paths = (
{
closed = 1;
nodes = (
"115 656 OFFCURVE",
"76 657 OFFCURVE",
"41 658 CURVE",
"38 655 OFFCURVE",
"37 650 OFFCURVE",
"37 641 CURVE SMOOTH",
"37 633 OFFCURVE",
"38 629 OFFCURVE",
"41 629 CURVE SMOOTH",
"58 629 OFFCURVE",
"106 618 OFFCURVE",
"110 607 CURVE",
"115 589 OFFCURVE",
"117 560 OFFCURVE",
"117 521 CURVE SMOOTH",
"117 143 LINE SMOOTH",
"117 88 OFFCURVE",
"115 57 OFFCURVE",
"110 49 CURVE SMOOTH",
"103 37 OFFCURVE",
"58 26 OFFCURVE",
"41 26 CURVE SMOOTH",
"39 26 OFFCURVE",
"38 22 OFFCURVE",
"38 13 CURVE SMOOTH",
"38 4 OFFCURVE",
"39 -1 OFFCURVE",
"41 -3 CURVE",
"162 0 LINE SMOOTH",
"209 0 OFFCURVE",
"269 -1 OFFCURVE",
"342 -2 CURVE SMOOTH",
"415 -3 OFFCURVE",
"469 -4 OFFCURVE",
"503 -4 CURVE",
"507 29 OFFCURVE",
"546 134 OFFCURVE",
"557 162 CURVE",
"553 166 OFFCURVE",
"545 168 OFFCURVE",
"532 168 CURVE SMOOTH",
"524 168 OFFCURVE",
"519 166 OFFCURVE",
"518 162 CURVE",
"503 111 OFFCURVE",
"475 72 OFFCURVE",
"455 61 CURVE SMOOTH",
"433 50 OFFCURVE",
"391 44 OFFCURVE",
"329 44 CURVE SMOOTH",
"281 44 LINE SMOOTH",
"238 44 OFFCURVE",
"215 47 OFFCURVE",
"213 54 CURVE",
"207 71 OFFCURVE",
"204 102 OFFCURVE",
"204 145 CURVE SMOOTH",
"204 300 LINE SMOOTH",
"204 306 OFFCURVE",
"228 309 OFFCURVE",
"276 309 CURVE SMOOTH",
"338 309 OFFCURVE",
"372 307 OFFCURVE",
"381 301 CURVE SMOOTH",
"396 291 OFFCURVE",
"401 276 OFFCURVE",
"410 238 CURVE",
"412 233 OFFCURVE",
"417 230 OFFCURVE",
"426 230 CURVE SMOOTH",
"434 230 OFFCURVE",
"439 231 OFFCURVE",
"442 234 CURVE",
"442 423 LINE",
"439 426 OFFCURVE",
"433 428 OFFCURVE",
"425 428 CURVE SMOOTH",
"416 428 OFFCURVE",
"411 426 OFFCURVE",
"410 421 CURVE",
"403 389 OFFCURVE",
"396 367 OFFCURVE",
"382 361 CURVE SMOOTH",
"371 357 OFFCURVE",
"352 353 OFFCURVE",
"324 353 CURVE SMOOTH",
"247 353 LINE SMOOTH",
"218 353 OFFCURVE",
"204 355 OFFCURVE",
"204 359 CURVE SMOOTH",
"204 519 LINE SMOOTH",
"204 559 OFFCURVE",
"206 587 OFFCURVE",
"209 603 CURVE",
"210 612 OFFCURVE",
"240 616 OFFCURVE",
"297 616 CURVE SMOOTH",
"364 616 LINE SMOOTH",
"427 616 OFFCURVE",
"460 603 OFFCURVE",
"480 530 CURVE",
"481 525 OFFCURVE",
"485 523 OFFCURVE",
"494 523 CURVE SMOOTH",
"503 523 OFFCURVE",
"509 525 OFFCURVE",
"512 528 CURVE",
"509 546 OFFCURVE",
"489 621 OFFCURVE",
"483 664 CURVE",
"446 664 OFFCURVE",
"390 663 OFFCURVE",
"316 660 CURVE SMOOTH",
"242 657 OFFCURVE",
"190 656 OFFCURVE",
"160 656 CURVE SMOOTH"
);
},
{
closed = 1;
nodes = (
"526 10 LINE",
"484 14 LINE",
"466 2 LINE",
"406 -37 OFFCURVE",
"354 -95 OFFCURVE",
"354 -146 CURVE SMOOTH",
"354 -182 OFFCURVE",
"376 -223 OFFCURVE",
"425 -223 CURVE SMOOTH",
"462 -223 OFFCURVE",
"502 -204 OFFCURVE",
"530 -157 CURVE SMOOTH",
"533 -152 OFFCURVE",
"535 -146 OFFCURVE",
"535 -139 CURVE SMOOTH",
"535 -130 OFFCURVE",
"533 -126 OFFCURVE",
"530 -126 CURVE",
"514 -143 OFFCURVE",
"483 -164 OFFCURVE",
"449 -164 CURVE SMOOTH",
"418 -164 OFFCURVE",
"408 -142 OFFCURVE",
"408 -121 CURVE SMOOTH",
"408 -81 OFFCURVE",
"460 -29 OFFCURVE",
"512 2 CURVE"
);
}
);
};
layerId = "0276F023-BC64-4582-8657-390FE5DB601E";
paths = (
{
closed = 1;
nodes = (
"514 -143 OFFCURVE",
"483 -164 OFFCURVE",
"449 -164 CURVE SMOOTH",
"418 -164 OFFCURVE",
"408 -142 OFFCURVE",
"408 -121 CURVE SMOOTH",
"408 -81 OFFCURVE",
"460 -29 OFFCURVE",
"503 -4 CURVE",
"507 29 OFFCURVE",
"546 134 OFFCURVE",
"557 162 CURVE",
"553 166 OFFCURVE",
"545 168 OFFCURVE",
"532 168 CURVE SMOOTH",
"524 168 OFFCURVE",
"519 166 OFFCURVE",
"518 162 CURVE",
"503 111 OFFCURVE",
"475 72 OFFCURVE",
"455 61 CURVE",
"433 50 OFFCURVE",
"391 44 OFFCURVE",
"329 44 CURVE SMOOTH",
"281 44 LINE SMOOTH",
"238 44 OFFCURVE",
"215 47 OFFCURVE",
"213 54 CURVE",
"207 71 OFFCURVE",
"204 102 OFFCURVE",
"204 145 CURVE SMOOTH",
"204 300 LINE SMOOTH",
"204 306 OFFCURVE",
"228 309 OFFCURVE",
"276 309 CURVE SMOOTH",
"338 309 OFFCURVE",
"372 307 OFFCURVE",
"381 301 CURVE SMOOTH",
"396 291 OFFCURVE",
"401 276 OFFCURVE",
"410 238 CURVE",
"412 233 OFFCURVE",
"417 230 OFFCURVE",
"426 230 CURVE SMOOTH",
"434 230 OFFCURVE",
"439 231 OFFCURVE",
"442 234 CURVE",
"442 423 LINE",
"439 426 OFFCURVE",
"433 428 OFFCURVE",
"425 428 CURVE SMOOTH",
"416 428 OFFCURVE",
"411 426 OFFCURVE",
"410 421 CURVE SMOOTH",
"403 389 OFFCURVE",
"396 367 OFFCURVE",
"382 361 CURVE",
"371 357 OFFCURVE",
"352 353 OFFCURVE",
"324 353 CURVE SMOOTH",
"247 353 LINE SMOOTH",
"218 353 OFFCURVE",
"204 355 OFFCURVE",
"204 359 CURVE SMOOTH",
"204 519 LINE SMOOTH",
"204 559 OFFCURVE",
"206 587 OFFCURVE",
"209 603 CURVE",
"210 612 OFFCURVE",
"240 616 OFFCURVE",
"297 616 CURVE SMOOTH",
"364 616 LINE SMOOTH",
"427 616 OFFCURVE",
"460 603 OFFCURVE",
"480 530 CURVE",
"481 525 OFFCURVE",
"485 523 OFFCURVE",
"494 523 CURVE SMOOTH",
"503 523 OFFCURVE",
"509 525 OFFCURVE",
"512 528 CURVE",
"509 546 OFFCURVE",
"489 621 OFFCURVE",
"483 664 CURVE",
"446 664 OFFCURVE",
"390 663 OFFCURVE",
"316 660 CURVE SMOOTH",
"242 657 OFFCURVE",
"190 656 OFFCURVE",
"160 656 CURVE SMOOTH",
"115 656 OFFCURVE",
"76 657 OFFCURVE",
"41 658 CURVE",
"38 655 OFFCURVE",
"37 650 OFFCURVE",
"37 641 CURVE SMOOTH",
"37 633 OFFCURVE",
"38 629 OFFCURVE",
"41 629 CURVE SMOOTH",
"58 629 OFFCURVE",
"106 618 OFFCURVE",
"110 607 CURVE",
"115 589 OFFCURVE",
"117 560 OFFCURVE",
"117 521 CURVE SMOOTH",
"117 143 LINE SMOOTH",
"117 88 OFFCURVE",
"115 57 OFFCURVE",
"110 49 CURVE SMOOTH",
"103 37 OFFCURVE",
"58 26 OFFCURVE",
"41 26 CURVE SMOOTH",
"39 26 OFFCURVE",
"38 22 OFFCURVE",
"38 13 CURVE SMOOTH",
"38 4 OFFCURVE",
"39 -1 OFFCURVE",
"41 -3 CURVE",
"162 0 LINE SMOOTH",
"209 0 OFFCURVE",
"269 -1 OFFCURVE",
"342 -2 CURVE SMOOTH",
"383 -3 OFFCURVE",
"417 -3 OFFCURVE",
"447 -4 CURVE",
"396 -42 OFFCURVE",
"354 -97 OFFCURVE",
"354 -146 CURVE SMOOTH",
"354 -182 OFFCURVE",
"376 -223 OFFCURVE",
"425 -223 CURVE SMOOTH",
"462 -223 OFFCURVE",
"502 -204 OFFCURVE",
"530 -157 CURVE SMOOTH",
"533 -152 OFFCURVE",
"535 -146 OFFCURVE",
"535 -139 CURVE SMOOTH",
"535 -130 OFFCURVE",
"533 -126 OFFCURVE",
"530 -126 CURVE"
);
}
);
width = 580;
},
{
anchors = (
{
name = bottom;
position = "{304, 0}";
},
{
name = top;
position = "{304, 658}";
},
{
name = topleft;
position = "{25, 658}";
}
);
background = {
paths = (
{
closed = 1;
nodes = (
"136 659 OFFCURVE",
"87 661 OFFCURVE",
"34 664 CURVE",
"32 662 OFFCURVE",
"31 656 OFFCURVE",
"31 645 CURVE SMOOTH",
"31 633 OFFCURVE",
"32 627 OFFCURVE",
"35 627 CURVE SMOOTH",
"53 627 OFFCURVE",
"99 608 OFFCURVE",
"102 599 CURVE",
"106 584 OFFCURVE",
"108 558 OFFCURVE",
"108 521 CURVE SMOOTH",
"108 143 LINE SMOOTH",
"108 100 OFFCURVE",
"106 70 OFFCURVE",
"102 55 CURVE",
"99 47 OFFCURVE",
"57 33 OFFCURVE",
"36 33 CURVE SMOOTH",
"33 33 OFFCURVE",
"32 26 OFFCURVE",
"32 13 CURVE SMOOTH",
"32 4 OFFCURVE",
"33 -1 OFFCURVE",
"36 -4 CURVE",
"182 2 LINE",
"228 2 OFFCURVE",
"288 1 OFFCURVE",
"362 0 CURVE SMOOTH",
"436 -1 OFFCURVE",
"490 -2 OFFCURVE",
"524 -2 CURVE",
"527 21 OFFCURVE",
"545 78 OFFCURVE",
"578 170 CURVE",
"574 174 OFFCURVE",
"564 176 OFFCURVE",
"548 176 CURVE SMOOTH",
"539 176 OFFCURVE",
"535 174 OFFCURVE",
"534 170 CURVE",
"520 134 OFFCURVE",
"488 94 OFFCURVE",
"462 80 CURVE SMOOTH",
"429 62 OFFCURVE",
"391 54 OFFCURVE",
"350 54 CURVE SMOOTH",
"324 54 LINE SMOOTH",
"282 54 OFFCURVE",
"259 59 OFFCURVE",
"256 70 CURVE SMOOTH",
"252 85 OFFCURVE",
"248 109 OFFCURVE",
"248 141 CURVE SMOOTH",
"248 295 LINE SMOOTH",
"248 301 OFFCURVE",
"272 304 OFFCURVE",
"320 304 CURVE SMOOTH",
"377 304 OFFCURVE",
"401 299 OFFCURVE",
"410 286 CURVE SMOOTH",
"415 279 OFFCURVE",
"422 256 OFFCURVE",
"426 238 CURVE",
"428 233 OFFCURVE",
"433 230 OFFCURVE",
"442 230 CURVE SMOOTH",
"453 230 OFFCURVE",
"460 231 OFFCURVE",
"463 234 CURVE",
"463 423 LINE",
"460 426 OFFCURVE",
"452 428 OFFCURVE",
"441 428 CURVE SMOOTH",
"432 428 OFFCURVE",
"427 426 OFFCURVE",
"426 421 CURVE",
"424 400 OFFCURVE",
"416 372 OFFCURVE",
"411 365 CURVE",
"406 361 OFFCURVE",
"381 359 OFFCURVE",
"344 359 CURVE SMOOTH",
"291 359 LINE SMOOTH",
"262 359 OFFCURVE",
"248 361 OFFCURVE",
"248 365 CURVE SMOOTH",
"248 519 LINE SMOOTH",
"248 555 OFFCURVE",
"250 581 OFFCURVE",
"253 597 CURVE",
"254 606 OFFCURVE",
"276 610 OFFCURVE",
"318 610 CURVE SMOOTH",
"356 610 LINE SMOOTH",
"425 610 OFFCURVE",
"464 585 OFFCURVE",
"496 518 CURVE",
"498 513 OFFCURVE",
"503 511 OFFCURVE",
"510 511 CURVE SMOOTH",
"522 511 OFFCURVE",
"530 513 OFFCURVE",
"533 516 CURVE",
"517 592 OFFCURVE",
"505 656 OFFCURVE",
"504 664 CURVE",
"472 664 OFFCURVE",
"415 662 OFFCURVE",
"346 662 CURVE SMOOTH",
"253 662 OFFCURVE",
"205 659 OFFCURVE",
"181 659 CURVE SMOOTH"
);
},
{
closed = 1;
nodes = (
"508 10 LINE",
"486 3 LINE",
"423 -16 OFFCURVE",
"352 -87 OFFCURVE",
"352 -140 CURVE SMOOTH",
"352 -188 OFFCURVE",
"394 -218 OFFCURVE",
"433 -218 CURVE SMOOTH",
"482 -218 OFFCURVE",
"533 -178 OFFCURVE",
"556 -149 CURVE SMOOTH",
"560 -144 OFFCURVE",
"562 -136 OFFCURVE",
"562 -127 CURVE SMOOTH",
"562 -115 OFFCURVE",
"560 -109 OFFCURVE",
"557 -109 CURVE",
"541 -122 OFFCURVE",
"502 -142 OFFCURVE",
"477 -142 CURVE SMOOTH",
"454 -142 OFFCURVE",
"436 -130 OFFCURVE",
"436 -110 CURVE SMOOTH",
"436 -73 OFFCURVE",
"467 -35 OFFCURVE",
"530 2 CURVE"
);
}
);
};
layerId = "E2E62ECD-1E64-44AC-9B50-C09427155398";
paths = (
{
closed = 1;
nodes = (
"541 -122 OFFCURVE",
"502 -142 OFFCURVE",
"477 -142 CURVE SMOOTH",
"454 -142 OFFCURVE",
"436 -130 OFFCURVE",
"436 -110 CURVE SMOOTH",
"436 -73 OFFCURVE",
"467 -35 OFFCURVE",
"524 -2 CURVE",
"527 21 OFFCURVE",
"545 78 OFFCURVE",
"578 170 CURVE",
"574 174 OFFCURVE",
"564 176 OFFCURVE",
"548 176 CURVE SMOOTH",
"539 176 OFFCURVE",
"535 174 OFFCURVE",
"534 170 CURVE",
"520 134 OFFCURVE",
"488 94 OFFCURVE",
"462 80 CURVE SMOOTH",
"429 62 OFFCURVE",
"391 54 OFFCURVE",
"350 54 CURVE SMOOTH",
"324 54 LINE SMOOTH",
"282 54 OFFCURVE",
"259 59 OFFCURVE",
"256 70 CURVE SMOOTH",
"252 85 OFFCURVE",
"248 109 OFFCURVE",
"248 141 CURVE SMOOTH",
"248 295 LINE SMOOTH",
"248 301 OFFCURVE",
"272 304 OFFCURVE",
"320 304 CURVE SMOOTH",
"377 304 OFFCURVE",
"401 299 OFFCURVE",
"410 286 CURVE SMOOTH",
"415 279 OFFCURVE",
"422 256 OFFCURVE",
"426 238 CURVE",
"428 233 OFFCURVE",
"433 230 OFFCURVE",
"442 230 CURVE SMOOTH",
"453 230 OFFCURVE",
"460 231 OFFCURVE",
"463 234 CURVE",
"463 423 LINE",
"460 426 OFFCURVE",
"452 428 OFFCURVE",
"441 428 CURVE SMOOTH",
"432 428 OFFCURVE",
"427 426 OFFCURVE",
"426 421 CURVE",
"424 400 OFFCURVE",
"416 372 OFFCURVE",
"411 365 CURVE",
"406 361 OFFCURVE",
"381 359 OFFCURVE",
"344 359 CURVE SMOOTH",
"291 359 LINE SMOOTH",
"262 359 OFFCURVE",
"248 361 OFFCURVE",
"248 365 CURVE SMOOTH",
"248 519 LINE SMOOTH",
"248 555 OFFCURVE",
"250 581 OFFCURVE",
"253 597 CURVE",
"254 606 OFFCURVE",
"276 610 OFFCURVE",
"318 610 CURVE SMOOTH",
"356 610 LINE SMOOTH",
"425 610 OFFCURVE",
"464 585 OFFCURVE",
"496 518 CURVE",
"498 513 OFFCURVE",
"503 511 OFFCURVE",
"510 511 CURVE SMOOTH",
"522 511 OFFCURVE",
"530 513 OFFCURVE",
"533 516 CURVE",
"517 592 OFFCURVE",
"505 656 OFFCURVE",
"504 664 CURVE",
"472 664 OFFCURVE",
"415 662 OFFCURVE",
"346 662 CURVE SMOOTH",
"253 662 OFFCURVE",
"205 659 OFFCURVE",
"181 659 CURVE SMOOTH",
"136 659 OFFCURVE",
"87 661 OFFCURVE",
"34 664 CURVE",
"32 662 OFFCURVE",
"31 656 OFFCURVE",
"31 645 CURVE SMOOTH",
"31 633 OFFCURVE",
"32 627 OFFCURVE",
"35 627 CURVE SMOOTH",
"53 627 OFFCURVE",
"99 608 OFFCURVE",
"102 599 CURVE",
"106 584 OFFCURVE",
"108 558 OFFCURVE",
"108 521 CURVE SMOOTH",
"108 143 LINE SMOOTH",
"108 100 OFFCURVE",
"106 70 OFFCURVE",
"102 55 CURVE",
"99 47 OFFCURVE",
"57 33 OFFCURVE",
"36 33 CURVE SMOOTH",
"33 33 OFFCURVE",
"32 26 OFFCURVE",
"32 13 CURVE SMOOTH",
"32 4 OFFCURVE",
"33 -1 OFFCURVE",
"36 -4 CURVE",
"182 2 LINE",
"228 2 OFFCURVE",
"288 1 OFFCURVE",
"362 0 CURVE SMOOTH",
"396 -1 OFFCURVE",
"427 -1 OFFCURVE",
"451 -2 CURVE",
"401 -31 OFFCURVE",
"352 -91 OFFCURVE",
"352 -140 CURVE SMOOTH",
"352 -188 OFFCURVE",
"394 -218 OFFCURVE",
"433 -218 CURVE SMOOTH",
"482 -218 OFFCURVE",
"533 -178 OFFCURVE",
"556 -149 CURVE SMOOTH",
"560 -144 OFFCURVE",
"562 -136 OFFCURVE",
"562 -127 CURVE SMOOTH",
"562 -115 OFFCURVE",
"560 -109 OFFCURVE",
"557 -109 CURVE"
);
}
);
width = 608;
}
);
note = Eogonek;
unicode = 0118;
},
{
color = 3;
glyphname = F;
lastChange = "2018-11-27 13:18:45 +0000";
layers = (
{
anchors = (
{
name = bottom;
position = "{273, 0}";
},
{
name = top;
position = "{273, 658}";
}
);
background = {
paths = (
{
closed = 1;
nodes = (
"90 656 OFFCURVE",
"38 658 QCURVE",
"34 654 OFFCURVE",
"34 641 QCURVE SMOOTH",
"34 629 OFFCURVE",
"38 629 QCURVE SMOOTH",
"51 629 OFFCURVE",
"104 615 OFFCURVE",
"107 607 QCURVE",
"114 580 OFFCURVE",
"114 521 QCURVE SMOOTH",
"114 136 LINE SMOOTH",
"114 73 OFFCURVE",
"107 46 QCURVE",
"104 38 OFFCURVE",
"53 26 OFFCURVE",
"40 26 QCURVE SMOOTH",
"36 26 OFFCURVE",
"36 12 QCURVE SMOOTH",
"36 1 OFFCURVE",
"40 -3 QCURVE",
"155 2 OFFCURVE",
"160 2 QCURVE SMOOTH",
"176 2 OFFCURVE",
"276 -3 QCURVE",
"278 3 OFFCURVE",
"278 11 QCURVE SMOOTH",
"278 26 OFFCURVE",
"274 26 QCURVE SMOOTH",
"264 26 OFFCURVE",
"212 39 OFFCURVE",
"210 46 QCURVE SMOOTH",
"201 81 OFFCURVE",
"201 139 QCURVE SMOOTH",
"201 297 LINE SMOOTH",
"201 306 OFFCURVE",
"272 306 QCURVE SMOOTH",
"365 306 OFFCURVE",
"378 298 QCURVE",
"384 294 OFFCURVE",
"389 289 OFFCURVE",
"399 262 OFFCURVE",
"406 235 QCURVE",
"409 227 OFFCURVE",
"422 227 QCURVE SMOOTH",
"434 227 OFFCURVE",
"438 231 QCURVE",
"438 425 LINE",
"433 430 OFFCURVE",
"421 430 QCURVE SMOOTH",
"407 430 OFFCURVE",
"406 423 QCURVE",
"405 420 OFFCURVE",
"404 414 QCURVE",
"393 369 OFFCURVE",
"363 350 OFFCURVE",
"296 350 QCURVE SMOOTH",
"243 350 LINE SMOOTH",
"201 350 OFFCURVE",
"201 356 QCURVE SMOOTH",
"201 519 LINE SMOOTH",
"201 579 OFFCURVE",
"206 603 QCURVE",
"208 616 OFFCURVE",
"294 616 QCURVE SMOOTH",
"361 616 LINE SMOOTH",
"408 616 OFFCURVE",
"462 585 OFFCURVE",
"477 530 QCURVE",
"478 523 OFFCURVE",
"504 523 OFFCURVE",
"509 528 QCURVE",
"507 540 OFFCURVE",
"484 635 OFFCURVE",
"480 664 QCURVE",
"424 664 OFFCURVE",
"202 656 OFFCURVE",
"157 656 QCURVE SMOOTH"
);
}
);
};
layerId = "0276F023-BC64-4582-8657-390FE5DB601E";
paths = (
{
closed = 1;
nodes = (
"80 0 OFFCURVE",
"120 2 OFFCURVE",
"163 2 CURVE SMOOTH",
"174 2 OFFCURVE",
"212 0 OFFCURVE",
"279 -3 CURVE",
"280 1 OFFCURVE",
"281 6 OFFCURVE",
"281 11 CURVE SMOOTH",
"281 21 OFFCURVE",
"280 26 OFFCURVE",
"277 26 CURVE SMOOTH",
"257 26 OFFCURVE",
"215 39 OFFCURVE",
"213 46 CURVE SMOOTH",
"207 69 OFFCURVE",
"204 100 OFFCURVE",
"204 139 CURVE SMOOTH",
"204 297 LINE SMOOTH",
"204 303 OFFCURVE",
"228 306 OFFCURVE",
"275 306 CURVE SMOOTH",
"337 306 OFFCURVE",
"372 303 OFFCURVE",
"381 298 CURVE SMOOTH",
"393 291 OFFCURVE",
"398 274 OFFCURVE",
"409 235 CURVE",
"411 230 OFFCURVE",
"416 227 OFFCURVE",
"425 227 CURVE SMOOTH",
"433 227 OFFCURVE",
"438 228 OFFCURVE",
"441 231 CURVE",
"441 425 LINE",
"438 428 OFFCURVE",
"432 430 OFFCURVE",
"424 430 CURVE SMOOTH",
"415 430 OFFCURVE",
"410 428 OFFCURVE",
"409 423 CURVE",
"399 383 OFFCURVE",
"392 367 OFFCURVE",
"382 360 CURVE SMOOTH",
"373 354 OFFCURVE",
"345 350 OFFCURVE",
"319 350 CURVE SMOOTH",
"246 350 LINE SMOOTH",
"218 350 OFFCURVE",
"204 352 OFFCURVE",
"204 356 CURVE SMOOTH",
"204 519 LINE SMOOTH",
"204 559 OFFCURVE",
"206 587 OFFCURVE",
"209 603 CURVE",
"210 612 OFFCURVE",
"240 616 OFFCURVE",
"297 616 CURVE SMOOTH",
"364 616 LINE SMOOTH",
"435 616 OFFCURVE",
"462 596 OFFCURVE",
"480 530 CURVE",
"481 525 OFFCURVE",
"485 523 OFFCURVE",
"494 523 CURVE SMOOTH",
"503 523 OFFCURVE",
"509 525 OFFCURVE",
"512 528 CURVE",
"509 546 OFFCURVE",
"489 621 OFFCURVE",
"483 664 CURVE",
"446 664 OFFCURVE",
"390 663 OFFCURVE",
"316 660 CURVE SMOOTH",
"242 657 OFFCURVE",
"190 656 OFFCURVE",
"160 656 CURVE SMOOTH",
"115 656 OFFCURVE",
"76 657 OFFCURVE",
"41 658 CURVE",
"38 655 OFFCURVE",
"37 650 OFFCURVE",
"37 641 CURVE SMOOTH",
"37 633 OFFCURVE",
"38 629 OFFCURVE",
"41 629 CURVE SMOOTH",
"67 627 OFFCURVE",
"106 617 OFFCURVE",
"110 607 CURVE",
"115 589 OFFCURVE",
"117 560 OFFCURVE",
"117 521 CURVE SMOOTH",
"117 136 LINE SMOOTH",
"117 94 OFFCURVE",
"115 64 OFFCURVE",
"110 46 CURVE",
"107 38 OFFCURVE",
"67 26 OFFCURVE",
"43 26 CURVE SMOOTH",
"40 26 OFFCURVE",
"39 21 OFFCURVE",
"39 12 CURVE SMOOTH",
"39 5 OFFCURVE",
"40 0 OFFCURVE",
"43 -3 CURVE"
);
}
);
width = 539;
},
{
anchors = (
{
name = bottom;
position = "{282, 0}";
},
{
name = top;
position = "{282, 658}";
}
);
background = {
paths = (
{
closed = 1;
nodes = (
"119 659 OFFCURVE",
"29 664 QCURVE",
"26 661 OFFCURVE",
"26 645 QCURVE SMOOTH",
"26 627 OFFCURVE",
"30 627 QCURVE SMOOTH",
"41 627 OFFCURVE",
"94 607 OFFCURVE",
"97 599 QCURVE",
"103 576 OFFCURVE",
"103 521 QCURVE SMOOTH",
"103 143 LINE SMOOTH",
"103 78 OFFCURVE",
"97 55 QCURVE",
"94 47 OFFCURVE",
"43 33 OFFCURVE",
"31 33 QCURVE SMOOTH",
"27 33 OFFCURVE",
"27 13 QCURVE SMOOTH",
"27 0 OFFCURVE",
"31 -4 QCURVE",
"177 2 LINE",
"210 2 OFFCURVE",
"330 -4 QCURVE",
"332 2 OFFCURVE",
"332 14 QCURVE SMOOTH",
"332 33 OFFCURVE",
"328 33 QCURVE SMOOTH",
"313 33 OFFCURVE",
"253 47 OFFCURVE",
"250 59 QCURVE SMOOTH",
"243 90 OFFCURVE",
"243 141 QCURVE SMOOTH",
"243 295 LINE SMOOTH",
"243 304 OFFCURVE",
"315 304 QCURVE SMOOTH",
"380 304 OFFCURVE",
"393 296 QCURVE",
"394 295 OFFCURVE",
"400 292 OFFCURVE",
"402 290 OFFCURVE",
"407 282 OFFCURVE",
"411 272 OFFCURVE",
"417 252 OFFCURVE",
"421 238 QCURVE",
"424 230 OFFCURVE",
"437 230 QCURVE SMOOTH",
"454 230 OFFCURVE",
"458 234 QCURVE",
"458 423 LINE",
"453 428 OFFCURVE",
"436 428 QCURVE SMOOTH",
"422 428 OFFCURVE",
"421 421 QCURVE",
"417 407 OFFCURVE",
"415 392 QCURVE SMOOTH",
"412 367 OFFCURVE",
"407 363 QCURVE",
"401 359 OFFCURVE",
"339 359 QCURVE SMOOTH",
"286 359 LINE SMOOTH",
"243 359 OFFCURVE",
"243 365 QCURVE SMOOTH",
"243 519 LINE SMOOTH",
"243 573 OFFCURVE",
"248 597 QCURVE",
"250 610 OFFCURVE",
"313 610 QCURVE SMOOTH",
"351 610 LINE SMOOTH",
"390 610 OFFCURVE",
"472 556 OFFCURVE",
"491 518 QCURVE",
"494 511 OFFCURVE",
"505 511 QCURVE SMOOTH",
"523 511 OFFCURVE",
"528 516 QCURVE",
"500 654 OFFCURVE",
"499 664 QCURVE",
"447 664 OFFCURVE",
"241 659 OFFCURVE",
"176 659 QCURVE SMOOTH"
);
}
);
};
layerId = "E2E62ECD-1E64-44AC-9B50-C09427155398";
paths = (
{
closed = 1;
nodes = (
"85 -1 OFFCURVE",
"133 2 OFFCURVE",
"182 2 CURVE",
"204 2 OFFCURVE",
"255 0 OFFCURVE",
"335 -4 CURVE",
"336 0 OFFCURVE",
"337 6 OFFCURVE",
"337 14 CURVE SMOOTH",
"337 27 OFFCURVE",
"336 33 OFFCURVE",
"333 33 CURVE SMOOTH",
"301 33 OFFCURVE",
"258 47 OFFCURVE",
"255 59 CURVE SMOOTH",
"250 80 OFFCURVE",
"248 107 OFFCURVE",
"248 141 CURVE SMOOTH",
"248 295 LINE SMOOTH",
"248 301 OFFCURVE",
"272 304 OFFCURVE",
"320 304 CURVE SMOOTH",
"366 304 OFFCURVE",
"398 303 OFFCURVE",
"410 286 CURVE SMOOTH",
"413 281 OFFCURVE",
"419 264 OFFCURVE",
"426 238 CURVE",
"428 233 OFFCURVE",
"433 230 OFFCURVE",
"442 230 CURVE SMOOTH",
"453 230 OFFCURVE",
"460 231 OFFCURVE",
"463 234 CURVE",
"463 423 LINE",
"460 426 OFFCURVE",
"452 428 OFFCURVE",
"441 428 CURVE SMOOTH",
"432 428 OFFCURVE",
"427 426 OFFCURVE",
"425 421 CURVE",
"422 400 OFFCURVE",
"418 368 OFFCURVE",
"412 364 CURVE SMOOTH",
"408 361 OFFCURVE",
"385 359 OFFCURVE",
"344 359 CURVE SMOOTH",
"291 359 LINE SMOOTH",
"262 359 OFFCURVE",
"248 361 OFFCURVE",
"248 365 CURVE SMOOTH",
"248 519 LINE SMOOTH",
"248 555 OFFCURVE",
"250 581 OFFCURVE",
"253 597 CURVE",
"254 606 OFFCURVE",
"276 610 OFFCURVE",
"318 610 CURVE SMOOTH",
"356 610 LINE SMOOTH",
"431 610 OFFCURVE",
"465 581 OFFCURVE",
"496 518 CURVE",
"498 513 OFFCURVE",
"503 511 OFFCURVE",
"510 511 CURVE SMOOTH",
"522 511 OFFCURVE",
"530 513 OFFCURVE",
"533 516 CURVE",
"514 608 OFFCURVE",
"505 657 OFFCURVE",
"504 664 CURVE",
"469 664 OFFCURVE",
"418 663 OFFCURVE",
"349 662 CURVE SMOOTH",
"280 660 OFFCURVE",
"224 659 OFFCURVE",
"181 659 CURVE SMOOTH",
"143 659 OFFCURVE",
"94 661 OFFCURVE",
"34 664 CURVE",
"32 662 OFFCURVE",
"31 656 OFFCURVE",
"31 645 CURVE SMOOTH",
"31 633 OFFCURVE",
"32 627 OFFCURVE",
"35 627 CURVE SMOOTH",
"53 627 OFFCURVE",
"99 608 OFFCURVE",
"102 599 CURVE",
"106 584 OFFCURVE",
"108 558 OFFCURVE",
"108 521 CURVE SMOOTH",
"108 143 LINE SMOOTH",
"108 100 OFFCURVE",
"106 70 OFFCURVE",
"102 55 CURVE",
"99 47 OFFCURVE",
"57 33 OFFCURVE",
"36 33 CURVE SMOOTH",
"33 33 OFFCURVE",
"32 26 OFFCURVE",
"32 13 CURVE SMOOTH",
"32 4 OFFCURVE",
"33 -1 OFFCURVE",
"36 -4 CURVE"
);
}
);
width = 565;
}
);
note = F;
unicode = 0046;
},
{
color = 3;
glyphname = G;
lastChange = "2018-11-27 13:19:58 +0000";
layers = (
{
anchors = (
{
name = bottom;
position = "{365, 0}";
},
{
name = top;
position = "{365, 658}";
}
);
background = {
paths = (
{
closed = 1;
nodes = (
"476 -6 OFFCURVE",
"555 9 OFFCURVE",
"604 38 CURVE",
"612 42 OFFCURVE",
"638 168 OFFCURVE",
"638 183 CURVE",
"629 188 OFFCURVE",
"619 192 OFFCURVE",
"602 192 CURVE",
"590 144 OFFCURVE",
"571 107 OFFCURVE",
"542 81 CURVE SMOOTH",
"509 52 OFFCURVE",
"463 37 OFFCURVE",
"403 37 CURVE SMOOTH",
"244 37 OFFCURVE",
"143 167 OFFCURVE",
"143 341 CURVE SMOOTH",
"143 498 OFFCURVE",
"240 625 OFFCURVE",
"389 625 CURVE SMOOTH",
"494 625 OFFCURVE",
"554 587 OFFCURVE",
"583 485 CURVE",
"589 482 OFFCURVE",
"612 485 OFFCURVE",
"617 491 CURVE",
"617 505 OFFCURVE",
"618 553 OFFCURVE",
"619 642 CURVE",
"536 659 OFFCURVE",
"465 667 OFFCURVE",
"406 667 CURVE SMOOTH",
"193 667 OFFCURVE",
"48 528 OFFCURVE",
"48 322 CURVE SMOOTH",
"48 129 OFFCURVE",
"196 -6 OFFCURVE",
"402 -6 CURVE SMOOTH"
);
}
);
};
layerId = "0276F023-BC64-4582-8657-390FE5DB601E";
paths = (
{
closed = 1;
nodes = (
"51 129 OFFCURVE",
"199 -6 OFFCURVE",
"401 -6 CURVE SMOOTH",
"465 -6 OFFCURVE",
"542 4 OFFCURVE",
"618 39 CURVE",
"635 48 OFFCURVE",
"643 54 OFFCURVE",
"643 59 CURVE SMOOTH",
"643 61 OFFCURVE",
"641 68 OFFCURVE",
"636 79 CURVE SMOOTH",
"631 90 OFFCURVE",
"628 106 OFFCURVE",
"628 122 CURVE SMOOTH",
"626 186 LINE SMOOTH",
"625 226 OFFCURVE",
"629 248 OFFCURVE",
"636 253 CURVE",
"648 260 OFFCURVE",
"686 271 OFFCURVE",
"694 271 CURVE SMOOTH",
"697 271 OFFCURVE",
"698 276 OFFCURVE",
"698 286 CURVE SMOOTH",
"698 291 OFFCURVE",
"697 296 OFFCURVE",
"696 300 CURVE",
"629 297 OFFCURVE",
"593 295 OFFCURVE",
"578 295 CURVE SMOOTH",
"546 295 OFFCURVE",
"502 297 OFFCURVE",
"457 300 CURVE",
"454 297 OFFCURVE",
"453 292 OFFCURVE",
"453 284 CURVE SMOOTH",
"453 275 OFFCURVE",
"454 271 OFFCURVE",
"457 271 CURVE SMOOTH",
"478 271 OFFCURVE",
"529 262 OFFCURVE",
"534 249 CURVE SMOOTH",
"539 235 OFFCURVE",
"542 206 OFFCURVE",
"542 163 CURVE SMOOTH",
"543 74 LINE SMOOTH",
"543 66 OFFCURVE",
"541 61 OFFCURVE",
"536 59 CURVE",
"508 44 OFFCURVE",
"465 37 OFFCURVE",
"406 37 CURVE SMOOTH",
"247 37 OFFCURVE",
"146 167 OFFCURVE",
"146 341 CURVE SMOOTH",
"146 498 OFFCURVE",
"243 625 OFFCURVE",
"392 625 CURVE SMOOTH",
"497 625 OFFCURVE",
"557 587 OFFCURVE",
"585 486 CURVE",
"592 482 OFFCURVE",
"615 485 OFFCURVE",
"620 491 CURVE",
"620 505 OFFCURVE",
"621 553 OFFCURVE",
"622 642 CURVE",
"539 659 OFFCURVE",
"468 667 OFFCURVE",
"409 667 CURVE SMOOTH",
"196 667 OFFCURVE",
"51 528 OFFCURVE",
"51 322 CURVE SMOOTH"
);
}
);
width = 729;
},
{
anchors = (
{
name = bottom;
position = "{372, 0}";
},
{
name = top;
position = "{372, 658}";
}
);
background = {
paths = (
{
closed = 1;
nodes = (
"465 -7 OFFCURVE",
"520 7 OFFCURVE",
"587 34 CURVE",
"596 38 OFFCURVE",
"626 149 OFFCURVE",
"626 180 CURVE",
"623 187 OFFCURVE",
"608 190 OFFCURVE",
"581 190 CURVE",
"571 155 OFFCURVE",
"557 124 OFFCURVE",
"535 99 CURVE SMOOTH",
"506 67 OFFCURVE",
"464 47 OFFCURVE",
"407 47 CURVE SMOOTH",
"280 47 OFFCURVE",
"196 165 OFFCURVE",
"196 343 CURVE SMOOTH",
"196 512 OFFCURVE",
"266 611 OFFCURVE",
"395 611 CURVE SMOOTH",
"482 611 OFFCURVE",
"551 567 OFFCURVE",
"576 478 CURVE",
"593 474 OFFCURVE",
"609 476 OFFCURVE",
"620 481 CURVE",
"618 518 OFFCURVE",
"610 598 OFFCURVE",
"599 638 CURVE",
"529 657 OFFCURVE",
"453 667 OFFCURVE",
"400 667 CURVE SMOOTH",
"200 667 OFFCURVE",
"40 526 OFFCURVE",
"40 322 CURVE SMOOTH",
"40 124 OFFCURVE",
"190 -7 OFFCURVE",
"400 -7 CURVE SMOOTH"
);
}
);
};
layerId = "E2E62ECD-1E64-44AC-9B50-C09427155398";
paths = (
{
closed = 1;
nodes = (
"45 124 OFFCURVE",
"195 -7 OFFCURVE",
"405 -7 CURVE SMOOTH",
"471 -7 OFFCURVE",
"552 17 OFFCURVE",
"611 48 CURVE SMOOTH",
"625 55 OFFCURVE",
"632 65 OFFCURVE",
"632 76 CURVE SMOOTH",
"632 77 OFFCURVE",
"631 81 OFFCURVE",
"629 87 CURVE SMOOTH",
"627 93 OFFCURVE",
"626 102 OFFCURVE",
"626 114 CURVE SMOOTH",
"626 172 LINE SMOOTH",
"626 219 OFFCURVE",
"631 246 OFFCURVE",
"642 251 CURVE SMOOTH",
"662 261 OFFCURVE",
"680 266 OFFCURVE",
"695 266 CURVE SMOOTH",
"698 266 OFFCURVE",
"699 272 OFFCURVE",
"699 284 CURVE SMOOTH",
"699 291 OFFCURVE",
"698 298 OFFCURVE",
"696 304 CURVE",
"616 300 OFFCURVE",
"571 298 OFFCURVE",
"561 298 CURVE SMOOTH",
"531 298 OFFCURVE",
"448 302 OFFCURVE",
"412 304 CURVE",
"410 302 OFFCURVE",
"408 294 OFFCURVE",
"408 286 CURVE SMOOTH",
"408 276 OFFCURVE",
"410 267 OFFCURVE",
"413 267 CURVE SMOOTH",
"452 267 OFFCURVE",
"474 258 OFFCURVE",
"479 240 CURVE SMOOTH",
"484 223 OFFCURVE",
"486 197 OFFCURVE",
"486 163 CURVE SMOOTH",
"486 93 LINE SMOOTH",
"486 79 OFFCURVE",
"482 69 OFFCURVE",
"475 63 CURVE SMOOTH",
"462 52 OFFCURVE",
"440 47 OFFCURVE",
"411 47 CURVE SMOOTH",
"285 47 OFFCURVE",
"201 165 OFFCURVE",
"199 345 CURVE SMOOTH",
"197 522 OFFCURVE",
"281 611 OFFCURVE",
"400 611 CURVE SMOOTH",
"487 611 OFFCURVE",
"556 567 OFFCURVE",
"581 478 CURVE",
"588 475 OFFCURVE",
"614 476 OFFCURVE",
"625 481 CURVE",
"625 518 OFFCURVE",
"615 598 OFFCURVE",
"603 638 CURVE",
"534 657 OFFCURVE",
"458 667 OFFCURVE",
"405 667 CURVE SMOOTH",
"205 667 OFFCURVE",
"45 526 OFFCURVE",
"45 322 CURVE SMOOTH"
);
}
);
width = 732;
}
);
leftMetricsKey = O;
note = G;
unicode = 0047;
},
{
color = 3;
glyphname = H;
lastChange = "2018-11-27 21:10:46 +0000";
layers = (
{
anchors = (
{
name = bottom;
position = "{355, 0}";
},
{
name = stroke;
position = "{356, 499}";
},
{
name = top;
position = "{355, 658}";
},
{
name = topleft;
position = "{21, 658}";
}
);
background = {
paths = (
{
closed = 1;
nodes = (
"505 73 OFFCURVE",
"498 46 QCURVE",
"495 38 OFFCURVE",
"444 26 OFFCURVE",
"431 26 QCURVE SMOOTH",
"427 26 OFFCURVE",
"427 1 OFFCURVE",
"431 -3 QCURVE",
"546 2 OFFCURVE",
"552 2 QCURVE SMOOTH",
"566 2 OFFCURVE",
"666 -3 QCURVE",
"668 3 OFFCURVE",
"668 11 QCURVE SMOOTH",
"668 26 OFFCURVE",
"664 26 QCURVE SMOOTH",
"654 26 OFFCURVE",
"602 39 OFFCURVE",
"600 46 QCURVE SMOOTH",
"592 77 OFFCURVE",
"592 139 QCURVE SMOOTH",
"592 519 LINE SMOOTH",
"592 581 OFFCURVE",
"600 612 QCURVE SMOOTH",
"602 619 OFFCURVE",
"654 633 OFFCURVE",
"664 633 QCURVE SMOOTH",
"668 633 OFFCURVE",
"668 647 QCURVE SMOOTH",
"668 656 OFFCURVE",
"666 662 QCURVE",
"652 661 OFFCURVE",
"609 658 OFFCURVE",
"571 656 OFFCURVE",
"552 656 QCURVE SMOOTH",
"525 656 OFFCURVE",
"443 661 OFFCURVE",
"431 662 QCURVE",
"427 658 OFFCURVE",
"427 633 OFFCURVE",
"431 633 QCURVE SMOOTH",
"444 633 OFFCURVE",
"495 620 OFFCURVE",
"498 612 QCURVE",
"505 585 OFFCURVE",
"505 523 QCURVE SMOOTH",
"505 371 LINE SMOOTH",
"505 369 OFFCURVE",
"503 367 QCURVE",
"413 365 OFFCURVE",
"355 365 QCURVE SMOOTH",
"301 365 OFFCURVE",
"203 367 QCURVE",
"201 370 LINE",
"201 519 LINE SMOOTH",
"201 577 OFFCURVE",
"210 612 QCURVE SMOOTH",
"212 619 OFFCURVE",
"264 633 OFFCURVE",
"274 633 QCURVE SMOOTH",
"277 633 OFFCURVE",
"278 658 OFFCURVE",
"276 662 QCURVE",
"262 661 OFFCURVE",
"218 658 OFFCURVE",
"180 656 OFFCURVE",
"160 656 QCURVE SMOOTH",
"133 656 OFFCURVE",
"53 661 OFFCURVE",
"40 662 QCURVE",
"36 658 OFFCURVE",
"36 646 QCURVE SMOOTH",
"36 633 OFFCURVE",
"40 633 QCURVE SMOOTH",
"53 633 OFFCURVE",
"104 620 OFFCURVE",
"107 612 QCURVE",
"114 585 OFFCURVE",
"114 523 QCURVE SMOOTH",
"114 135 LINE SMOOTH",
"114 73 OFFCURVE",
"107 46 QCURVE",
"104 38 OFFCURVE",
"53 26 OFFCURVE",
"40 26 QCURVE SMOOTH",
"36 26 OFFCURVE",
"36 12 QCURVE SMOOTH",
"36 1 OFFCURVE",
"40 -3 QCURVE",
"155 2 OFFCURVE",
"160 2 QCURVE SMOOTH",
"176 2 OFFCURVE",
"276 -3 QCURVE",
"278 2 OFFCURVE",
"277 26 OFFCURVE",
"274 26 QCURVE SMOOTH",
"264 26 OFFCURVE",
"212 39 OFFCURVE",
"210 46 QCURVE SMOOTH",
"201 81 OFFCURVE",
"201 139 QCURVE SMOOTH",
"201 312 LINE SMOOTH",
"201 317 OFFCURVE",
"355 317 QCURVE SMOOTH",
"409 317 OFFCURVE",
"503 315 QCURVE",
"505 311 OFFCURVE",
"505 311 QCURVE",
"505 135 LINE SMOOTH"
);
}
);
};
layerId = "0276F023-BC64-4582-8657-390FE5DB601E";
paths = (
{
closed = 1;
nodes = (
"120 0 OFFCURVE",
"160 2 OFFCURVE",
"163 2 CURVE SMOOTH",
"174 2 OFFCURVE",
"212 0 OFFCURVE",
"279 -3 CURVE",
"280 2 OFFCURVE",
"281 7 OFFCURVE",
"281 10 CURVE SMOOTH",
"281 18 OFFCURVE",
"279 26 OFFCURVE",
"277 26 CURVE SMOOTH",
"257 26 OFFCURVE",
"215 39 OFFCURVE",
"213 46 CURVE SMOOTH",
"207 69 OFFCURVE",
"204 100 OFFCURVE",
"204 139 CURVE SMOOTH",
"204 309 LINE",
"208 313 LINE",
"222 316 OFFCURVE",
"265 317 OFFCURVE",
"358 317 CURVE SMOOTH",
"394 317 OFFCURVE",
"443 316 OFFCURVE",
"506 315 CURVE",
"508 311 LINE",
"508 135 LINE SMOOTH",
"508 94 OFFCURVE",
"506 64 OFFCURVE",
"501 46 CURVE",
"498 38 OFFCURVE",
"458 26 OFFCURVE",
"434 26 CURVE SMOOTH",
"431 26 OFFCURVE",
"430 22 OFFCURVE",
"430 14 CURVE SMOOTH",
"430 5 OFFCURVE",
"431 0 OFFCURVE",
"434 -3 CURVE",
"511 0 OFFCURVE",
"551 2 OFFCURVE",
"555 2 CURVE SMOOTH",
"564 2 OFFCURVE",
"602 0 OFFCURVE",
"669 -3 CURVE",
"670 1 OFFCURVE",
"671 6 OFFCURVE",
"671 11 CURVE SMOOTH",
"671 21 OFFCURVE",
"670 26 OFFCURVE",
"667 26 CURVE SMOOTH",
"647 26 OFFCURVE",
"605 39 OFFCURVE",
"603 46 CURVE SMOOTH",
"598 67 OFFCURVE",
"595 98 OFFCURVE",
"595 139 CURVE SMOOTH",
"595 519 LINE SMOOTH",
"595 560 OFFCURVE",
"598 591 OFFCURVE",
"603 612 CURVE",
"605 619 OFFCURVE",
"647 633 OFFCURVE",
"667 633 CURVE SMOOTH",
"670 633 OFFCURVE",
"671 638 OFFCURVE",
"671 647 CURVE SMOOTH",
"671 653 OFFCURVE",
"670 658 OFFCURVE",
"669 662 CURVE",
"627 659 OFFCURVE",
"577 656 OFFCURVE",
"555 656 CURVE SMOOTH",
"530 656 OFFCURVE",
"466 659 OFFCURVE",
"434 662 CURVE",
"431 659 OFFCURVE",
"430 654 OFFCURVE",
"430 646 CURVE SMOOTH",
"430 637 OFFCURVE",
"431 633 OFFCURVE",
"434 633 CURVE SMOOTH",
"457 633 OFFCURVE",
"498 620 OFFCURVE",
"501 612 CURVE",
"506 594 OFFCURVE",
"508 564 OFFCURVE",
"508 523 CURVE SMOOTH",
"508 371 LINE",
"506 367 LINE",
"446 366 OFFCURVE",
"397 365 OFFCURVE",
"358 365 CURVE SMOOTH",
"322 365 OFFCURVE",
"271 366 OFFCURVE",
"206 367 CURVE",
"204 370 LINE",
"204 519 LINE SMOOTH",
"204 558 OFFCURVE",
"207 590 OFFCURVE",
"213 613 CURVE",
"215 620 OFFCURVE",
"257 633 OFFCURVE",
"277 633 CURVE SMOOTH",
"279 633 OFFCURVE",
"281 642 OFFCURVE",
"281 649 CURVE SMOOTH",
"281 654 OFFCURVE",
"280 660 OFFCURVE",
"279 662 CURVE",
"212 658 OFFCURVE",
"177 656 OFFCURVE",
"163 656 CURVE SMOOTH",
"143 656 OFFCURVE",
"91 659 OFFCURVE",
"43 662 CURVE",
"40 659 OFFCURVE",
"39 654 OFFCURVE",
"39 646 CURVE SMOOTH",
"39 637 OFFCURVE",
"40 633 OFFCURVE",
"43 633 CURVE SMOOTH",
"66 633 OFFCURVE",
"107 620 OFFCURVE",
"110 612 CURVE",
"115 594 OFFCURVE",
"117 564 OFFCURVE",
"117 523 CURVE SMOOTH",
"117 135 LINE SMOOTH",
"117 94 OFFCURVE",
"115 64 OFFCURVE",
"110 46 CURVE",
"107 38 OFFCURVE",
"67 26 OFFCURVE",
"43 26 CURVE SMOOTH",
"40 26 OFFCURVE",
"39 21 OFFCURVE",
"39 12 CURVE SMOOTH",
"39 5 OFFCURVE",
"40 0 OFFCURVE",
"43 -3 CURVE"
);
}
);
width = 712;
},
{
anchors = (
{
name = bottom;
position = "{370, 0}";
},
{
name = stroke;
position = "{369, 499}";
},
{
name = top;
position = "{370, 658}";
},
{
name = topleft;
position = "{26, 658}";
}
);
background = {
paths = (
{
closed = 1;
nodes = (
"484 82 OFFCURVE",
"478 59 QCURVE",
"475 51 OFFCURVE",
"423 33 OFFCURVE",
"412 33 QCURVE SMOOTH",
"408 33 OFFCURVE",
"407 0 OFFCURVE",
"411 -4 QCURVE",
"424 -3 OFFCURVE",
"533 4 OFFCURVE",
"560 4 QCURVE SMOOTH",
"586 4 OFFCURVE",
"686 -4 OFFCURVE",
"695 -4 QCURVE",
"698 5 OFFCURVE",
"698 13 QCURVE SMOOTH",
"698 34 OFFCURVE",
"694 34 QCURVE SMOOTH",
"685 34 OFFCURVE",
"634 50 OFFCURVE",
"632 57 QCURVE SMOOTH",
"624 88 OFFCURVE",
"624 142 QCURVE SMOOTH",
"624 516 LINE SMOOTH",
"624 571 OFFCURVE",
"632 601 QCURVE SMOOTH",
"634 608 OFFCURVE",
"686 625 OFFCURVE",
"695 625 QCURVE SMOOTH",
"700 625 OFFCURVE",
"700 644 QCURVE SMOOTH",
"700 653 OFFCURVE",
"697 662 QCURVE",
"577 656 OFFCURVE",
"562 656 QCURVE SMOOTH",
"551 656 OFFCURVE",
"413 662 QCURVE",
"409 658 OFFCURVE",
"410 625 OFFCURVE",
"414 625 QCURVE SMOOTH",
"425 625 OFFCURVE",
"474 607 OFFCURVE",
"477 599 QCURVE",
"484 572 OFFCURVE",
"484 520 QCURVE SMOOTH",
"484 375 LINE SMOOTH",
"484 373 OFFCURVE",
"482 371 QCURVE",
"392 369 OFFCURVE",
"365 369 QCURVE SMOOTH",
"343 369 OFFCURVE",
"245 371 QCURVE",
"243 374 LINE",
"243 516 LINE SMOOTH",
"243 580 OFFCURVE",
"251 601 QCURVE",
"254 608 OFFCURVE",
"306 625 OFFCURVE",
"315 625 QCURVE SMOOTH",
"319 625 OFFCURVE",
"319 657 OFFCURVE",
"316 662 QCURVE",
"196 656 OFFCURVE",
"170 656 QCURVE SMOOTH",
"169 656 OFFCURVE",
"31 662 QCURVE",
"29 660 OFFCURVE",
"29 645 QCURVE SMOOTH",
"29 625 OFFCURVE",
"33 625 QCURVE SMOOTH",
"45 625 OFFCURVE",
"91 609 OFFCURVE",
"96 598 QCURVE",
"103 581 OFFCURVE",
"103 520 QCURVE SMOOTH",
"103 138 LINE SMOOTH",
"103 84 OFFCURVE",
"96 57 QCURVE",
"93 49 OFFCURVE",
"41 33 OFFCURVE",
"29 33 QCURVE SMOOTH",
"27 33 OFFCURVE",
"27 13 QCURVE SMOOTH",
"27 0 OFFCURVE",
"31 -4 QCURVE",
"46 -3 OFFCURVE",
"145 4 OFFCURVE",
"197 4 OFFCURVE",
"310 -4 OFFCURVE",
"315 -4 QCURVE",
"318 3 OFFCURVE",
"317 33 OFFCURVE",
"313 33 QCURVE SMOOTH",
"304 33 OFFCURVE",
"253 51 OFFCURVE",
"251 58 QCURVE SMOOTH",
"243 89 OFFCURVE",
"243 142 QCURVE SMOOTH",
"243 306 LINE",
"241 308 LINE",
"241 310 OFFCURVE",
"365 311 QCURVE SMOOTH",
"388 311 OFFCURVE",
"482 309 QCURVE",
"484 305 OFFCURVE",
"484 305 QCURVE",
"484 138 LINE SMOOTH"
);
}
);
};
layerId = "E2E62ECD-1E64-44AC-9B50-C09427155398";
paths = (
{
closed = 1;
nodes = (
"100 0 OFFCURVE",
"160 4 OFFCURVE",
"178 4 CURVE SMOOTH",
"215 4 OFFCURVE",
"249 0 OFFCURVE",
"320 -4 CURVE",
"322 0 OFFCURVE",
"323 7 OFFCURVE",
"323 14 CURVE SMOOTH",
"323 25 OFFCURVE",
"321 33 OFFCURVE",
"318 33 CURVE SMOOTH",
"302 33 OFFCURVE",
"258 51 OFFCURVE",
"256 58 CURVE SMOOTH",
"251 79 OFFCURVE",
"248 107 OFFCURVE",
"248 142 CURVE SMOOTH",
"248 306 LINE",
"250 308 LINE",
"265 309 OFFCURVE",
"287 311 OFFCURVE",
"370 311 CURVE SMOOTH",
"405 311 OFFCURVE",
"444 311 OFFCURVE",
"487 309 CURVE",
"489 305 LINE",
"489 138 LINE SMOOTH",
"489 101 OFFCURVE",
"487 74 OFFCURVE",
"483 59 CURVE",
"480 50 OFFCURVE",
"436 33 OFFCURVE",
"417 33 CURVE SMOOTH",
"414 33 OFFCURVE",
"412 25 OFFCURVE",
"412 14 CURVE SMOOTH",
"412 7 OFFCURVE",
"414 -2 OFFCURVE",
"416 -4 CURVE",
"463 0 OFFCURVE",
"542 4 OFFCURVE",
"565 4 CURVE SMOOTH",
"590 4 OFFCURVE",
"653 -1 OFFCURVE",
"700 -4 CURVE",
"702 2 OFFCURVE",
"703 8 OFFCURVE",
"703 13 CURVE SMOOTH",
"703 27 OFFCURVE",
"702 34 OFFCURVE",
"699 34 CURVE SMOOTH",
"682 34 OFFCURVE",
"639 50 OFFCURVE",
"637 57 CURVE SMOOTH",
"632 78 OFFCURVE",
"629 106 OFFCURVE",
"629 142 CURVE SMOOTH",
"629 516 LINE SMOOTH",
"629 553 OFFCURVE",
"632 581 OFFCURVE",
"637 601 CURVE SMOOTH",
"639 608 OFFCURVE",
"683 625 OFFCURVE",
"700 625 CURVE SMOOTH",
"703 625 OFFCURVE",
"705 631 OFFCURVE",
"705 644 CURVE SMOOTH",
"705 650 OFFCURVE",
"704 656 OFFCURVE",
"702 662 CURVE",
"622 658 OFFCURVE",
"577 656 OFFCURVE",
"567 656 CURVE SMOOTH",
"560 656 OFFCURVE",
"510 658 OFFCURVE",
"418 662 CURVE",
"416 660 OFFCURVE",
"414 652 OFFCURVE",
"414 644 CURVE SMOOTH",
"414 633 OFFCURVE",
"416 625 OFFCURVE",
"419 625 CURVE SMOOTH",
"437 625 OFFCURVE",
"479 608 OFFCURVE",
"482 599 CURVE",
"487 581 OFFCURVE",
"489 555 OFFCURVE",
"489 520 CURVE SMOOTH",
"489 375 LINE",
"487 371 LINE",
"427 370 OFFCURVE",
"388 369 OFFCURVE",
"370 369 CURVE SMOOTH",
"355 369 OFFCURVE",
"315 370 OFFCURVE",
"250 371 CURVE",
"248 374 LINE",
"248 516 LINE SMOOTH",
"248 559 OFFCURVE",
"251 587 OFFCURVE",
"256 601 CURVE",
"259 608 OFFCURVE",
"304 625 OFFCURVE",
"320 625 CURVE SMOOTH",
"323 625 OFFCURVE",
"324 630 OFFCURVE",
"324 641 CURVE SMOOTH",
"324 652 OFFCURVE",
"323 659 OFFCURVE",
"321 662 CURVE",
"241 658 OFFCURVE",
"192 656 OFFCURVE",
"175 656 CURVE SMOOTH",
"174 656 OFFCURVE",
"128 658 OFFCURVE",
"36 662 CURVE",
"35 661 OFFCURVE",
"34 655 OFFCURVE",
"34 645 CURVE SMOOTH",
"34 632 OFFCURVE",
"35 625 OFFCURVE",
"38 625 CURVE SMOOTH",
"61 625 OFFCURVE",
"96 610 OFFCURVE",
"101 598 CURVE",
"106 587 OFFCURVE",
"108 561 OFFCURVE",
"108 520 CURVE SMOOTH",
"108 138 LINE SMOOTH",
"108 102 OFFCURVE",
"106 75 OFFCURVE",
"101 57 CURVE",
"98 48 OFFCURVE",
"56 33 OFFCURVE",
"34 33 CURVE SMOOTH",
"33 33 OFFCURVE",
"32 26 OFFCURVE",
"32 13 CURVE SMOOTH",
"32 4 OFFCURVE",
"33 -1 OFFCURVE",
"36 -4 CURVE"
);
}
);
width = 737;
}
);
note = H;
unicode = 0048;
},
{
color = 6;
glyphname = Hbar;
lastChange = "2018-11-28 09:30:54 +0000";
layers = (
{
background = {
paths = (
{
closed = 1;
nodes = (
"133 656 OFFCURVE",
"53 661 OFFCURVE",
"40 662 QCURVE",
"36 658 OFFCURVE",
"36 646 QCURVE SMOOTH",
"36 633 OFFCURVE",
"40 633 QCURVE SMOOTH",
"53 633 OFFCURVE",
"104 620 OFFCURVE",
"107 612 QCURVE",
"114 585 OFFCURVE",
"114 508 QCURVE",
"81 508 LINE",
"75 499 OFFCURVE",
"75 483 QCURVE SMOOTH",
"75 470 OFFCURVE",
"80 470 QCURVE SMOOTH",
"114 470 LINE",
"114 135 LINE SMOOTH",
"114 73 OFFCURVE",
"107 46 QCURVE",
"104 38 OFFCURVE",
"53 26 OFFCURVE",
"40 26 QCURVE SMOOTH",
"36 26 OFFCURVE",
"36 12 QCURVE SMOOTH",
"36 1 OFFCURVE",
"40 -3 QCURVE",
"155 2 OFFCURVE",
"160 2 QCURVE SMOOTH",
"176 2 OFFCURVE",
"276 -3 QCURVE",
"278 2 OFFCURVE",
"277 26 OFFCURVE",
"274 26 QCURVE SMOOTH",
"264 26 OFFCURVE",
"212 39 OFFCURVE",
"210 46 QCURVE SMOOTH",
"201 81 OFFCURVE",
"201 139 QCURVE SMOOTH",
"201 294 LINE SMOOTH",
"201 299 OFFCURVE",
"355 299 QCURVE SMOOTH",
"409 299 OFFCURVE",
"503 297 QCURVE",
"505 293 LINE",
"505 135 LINE SMOOTH",
"505 73 OFFCURVE",
"498 46 QCURVE",
"495 38 OFFCURVE",
"444 26 OFFCURVE",
"431 26 QCURVE SMOOTH",
"427 26 OFFCURVE",
"427 1 OFFCURVE",
"431 -3 QCURVE",
"546 2 OFFCURVE",
"552 2 QCURVE SMOOTH",
"566 2 OFFCURVE",
"666 -3 QCURVE",
"668 3 OFFCURVE",
"668 11 QCURVE SMOOTH",
"668 26 OFFCURVE",
"664 26 QCURVE SMOOTH",
"654 26 OFFCURVE",
"602 39 OFFCURVE",
"600 46 QCURVE SMOOTH",
"592 77 OFFCURVE",
"592 139 QCURVE SMOOTH",
"592 470 LINE",
"632 470 LINE",
"638 479 OFFCURVE",
"638 495 QCURVE SMOOTH",
"638 508 OFFCURVE",
"633 508 QCURVE SMOOTH",
"592 508 LINE",
"592 581 OFFCURVE",
"600 612 QCURVE SMOOTH",
"602 619 OFFCURVE",
"654 633 OFFCURVE",
"664 633 QCURVE SMOOTH",
"668 633 OFFCURVE",
"668 647 QCURVE SMOOTH",
"668 656 OFFCURVE",
"666 662 QCURVE",
"652 661 OFFCURVE",
"609 658 OFFCURVE",
"571 656 OFFCURVE",
"552 656 QCURVE SMOOTH",
"525 656 OFFCURVE",
"443 661 OFFCURVE",
"431 662 QCURVE",
"427 658 OFFCURVE",
"427 633 OFFCURVE",
"431 633 QCURVE SMOOTH",
"444 633 OFFCURVE",
"495 620 OFFCURVE",
"498 612 QCURVE",
"505 585 OFFCURVE",
"505 508 QCURVE",
"465 507 OFFCURVE",
"355 507 QCURVE SMOOTH",
"213 507 OFFCURVE",
"201 508 QCURVE",
"201 577 OFFCURVE",
"210 612 QCURVE SMOOTH",
"212 619 OFFCURVE",
"264 633 OFFCURVE",
"274 633 QCURVE SMOOTH",
"277 633 OFFCURVE",
"278 658 OFFCURVE",
"276 662 QCURVE",
"262 661 OFFCURVE",
"218 658 OFFCURVE",
"180 656 OFFCURVE",
"160 656 QCURVE SMOOTH"
);
},
{
closed = 1;
nodes = (
"505 353 LINE SMOOTH",
"505 351 OFFCURVE",
"503 349 QCURVE",
"413 347 OFFCURVE",
"355 347 QCURVE SMOOTH",
"301 347 OFFCURVE",
"203 349 QCURVE SMOOTH",
"201 349 OFFCURVE",
"201 352 QCURVE SMOOTH",
"201 470 LINE",
"246 471 OFFCURVE",
"464 471 OFFCURVE",
"505 470 QCURVE"
);
}
);
};
components = (
{
name = H;
},
{
name = strokelongcomb.case;
transform = "{1, 0, 0, 1, 206, 169}";
}
);
layerId = "0276F023-BC64-4582-8657-390FE5DB601E";
width = 712;
},
{
background = {
paths = (
{
closed = 1;
nodes = (
"168 656 OFFCURVE",
"30 662 QCURVE",
"28 660 OFFCURVE",
"28 645 QCURVE SMOOTH",
"28 625 OFFCURVE",
"32 625 QCURVE SMOOTH",
"44 625 OFFCURVE",
"90 609 OFFCURVE",
"95 598 QCURVE SMOOTH",
"100 586 OFFCURVE",
"102 535 QCURVE",
"43 535 LINE",
"37 526 OFFCURVE",
"37 504 QCURVE SMOOTH",
"37 489 OFFCURVE",
"42 489 QCURVE SMOOTH",
"102 489 LINE",
"102 138 LINE SMOOTH",
"102 84 OFFCURVE",
"95 57 QCURVE",
"92 49 OFFCURVE",
"40 33 OFFCURVE",
"28 33 QCURVE SMOOTH",
"26 33 OFFCURVE",
"26 13 QCURVE SMOOTH",
"26 0 OFFCURVE",
"30 -4 QCURVE",
"45 -3 OFFCURVE",
"144 4 OFFCURVE",
"196 4 OFFCURVE",
"309 -4 OFFCURVE",
"314 -4 QCURVE",
"317 3 OFFCURVE",
"316 33 OFFCURVE",
"312 33 QCURVE SMOOTH",
"303 33 OFFCURVE",
"252 51 OFFCURVE",
"250 58 QCURVE SMOOTH",
"242 89 OFFCURVE",
"242 142 QCURVE SMOOTH",
"242 306 LINE",
"240 308 LINE",
"240 310 OFFCURVE",
"364 311 QCURVE SMOOTH",
"387 311 OFFCURVE",
"481 309 QCURVE",
"483 305 LINE",
"483 138 LINE SMOOTH",
"483 82 OFFCURVE",
"477 59 QCURVE",
"474 51 OFFCURVE",
"422 33 OFFCURVE",
"411 33 QCURVE SMOOTH",
"407 33 OFFCURVE",
"406 0 OFFCURVE",
"410 -4 QCURVE",
"423 -3 OFFCURVE",
"532 4 OFFCURVE",
"559 4 QCURVE SMOOTH",
"585 4 OFFCURVE",
"685 -4 OFFCURVE",
"694 -4 QCURVE",
"697 5 OFFCURVE",
"697 13 QCURVE SMOOTH",
"697 34 OFFCURVE",
"693 34 QCURVE SMOOTH",
"684 34 OFFCURVE",
"633 50 OFFCURVE",
"631 57 QCURVE SMOOTH",
"623 88 OFFCURVE",
"623 142 QCURVE SMOOTH",
"623 489 LINE",
"685 489 LINE",
"691 502 OFFCURVE",
"691 521 QCURVE SMOOTH",
"691 535 OFFCURVE",
"685 535 QCURVE SMOOTH",
"623 535 LINE",
"624 574 OFFCURVE",
"631 601 QCURVE SMOOTH",
"633 608 OFFCURVE",
"685 625 OFFCURVE",
"694 625 QCURVE SMOOTH",
"699 625 OFFCURVE",
"699 644 QCURVE SMOOTH",
"699 653 OFFCURVE",
"696 662 QCURVE",
"576 656 OFFCURVE",
"561 656 QCURVE SMOOTH",
"550 656 OFFCURVE",
"412 662 QCURVE",
"408 658 OFFCURVE",
"409 625 OFFCURVE",
"413 625 QCURVE SMOOTH",
"424 625 OFFCURVE",
"473 607 OFFCURVE",
"476 599 QCURVE",
"482 577 OFFCURVE",
"483 535 QCURVE",
"362 534 LINE SMOOTH",
"315 534 OFFCURVE",
"243 535 QCURVE",
"245 588 OFFCURVE",
"250 601 QCURVE",
"253 608 OFFCURVE",
"305 625 OFFCURVE",
"314 625 QCURVE SMOOTH",
"318 625 OFFCURVE",
"318 657 OFFCURVE",
"315 662 QCURVE",
"195 656 OFFCURVE",
"169 656 QCURVE SMOOTH"
);
},
{
closed = 1;
nodes = (
"410 490 OFFCURVE",
"483 489 QCURVE",
"483 375 LINE SMOOTH",
"483 373 OFFCURVE",
"481 371 QCURVE",
"391 369 OFFCURVE",
"364 369 QCURVE SMOOTH",
"342 369 OFFCURVE",
"244 371 QCURVE",
"242 374 LINE",
"242 489 LINE",
"363 490 LINE SMOOTH"
);
}
);
};
components = (
{
name = H;
},
{
name = strokelongcomb.case;
transform = "{1, 0, 0, 1, 219, 169}";
}
);
layerId = "E2E62ECD-1E64-44AC-9B50-C09427155398";
width = 737;
}
);
note = Hbar;
unicode = 0126;
},
{
color = 3;
glyphname = I;
lastChange = "2018-11-27 13:18:45 +0000";
layers = (
{
anchors = (
{
name = bottom;
position = "{160, 0}";
},
{
name = ogonek;
position = "{238, 10}";
},
{
name = top;
position = "{160, 658}";
},
{
name = topleft;
position = "{21, 658}";
}
);
background = {
paths = (
{
closed = 1;
nodes = (
"114 135 LINE SMOOTH",
"114 73 OFFCURVE",
"107 46 QCURVE",
"104 38 OFFCURVE",
"53 26 OFFCURVE",
"40 26 QCURVE SMOOTH",
"36 26 OFFCURVE",
"36 12 QCURVE SMOOTH",
"36 1 OFFCURVE",
"40 -3 QCURVE",
"155 2 OFFCURVE",
"160 2 QCURVE SMOOTH",
"176 2 OFFCURVE",
"276 -3 QCURVE",
"278 3 OFFCURVE",
"278 11 QCURVE SMOOTH",
"278 26 OFFCURVE",
"274 26 QCURVE SMOOTH",
"264 26 OFFCURVE",
"212 39 OFFCURVE",
"210 46 QCURVE SMOOTH",
"201 81 OFFCURVE",
"201 139 QCURVE SMOOTH",
"201 519 LINE SMOOTH",
"201 577 OFFCURVE",
"210 612 QCURVE SMOOTH",
"212 619 OFFCURVE",
"264 633 OFFCURVE",
"274 633 QCURVE SMOOTH",
"278 633 OFFCURVE",
"278 647 QCURVE SMOOTH",
"278 656 OFFCURVE",
"276 662 QCURVE",
"176 657 OFFCURVE",
"160 657 QCURVE SMOOTH",
"155 657 OFFCURVE",
"40 662 QCURVE",
"36 658 OFFCURVE",
"36 646 QCURVE SMOOTH",
"36 633 OFFCURVE",
"40 633 QCURVE SMOOTH",
"53 633 OFFCURVE",
"104 620 OFFCURVE",
"107 612 QCURVE",
"114 585 OFFCURVE",
"114 523 QCURVE SMOOTH"
);
}
);
};
layerId = "0276F023-BC64-4582-8657-390FE5DB601E";
paths = (
{
closed = 1;
nodes = (
"90 0 OFFCURVE",
"140 2 OFFCURVE",
"163 2 CURVE SMOOTH",
"194 2 OFFCURVE",
"232 0 OFFCURVE",
"279 -3 CURVE",
"280 1 OFFCURVE",
"281 6 OFFCURVE",
"281 11 CURVE SMOOTH",
"281 21 OFFCURVE",
"280 26 OFFCURVE",
"277 26 CURVE SMOOTH",
"264 26 OFFCURVE",
"216 37 OFFCURVE",
"213 45 CURVE",
"207 69 OFFCURVE",
"204 100 OFFCURVE",
"204 139 CURVE SMOOTH",
"204 519 LINE SMOOTH",
"204 558 OFFCURVE",
"207 589 OFFCURVE",
"213 612 CURVE",
"216 621 OFFCURVE",
"264 633 OFFCURVE",
"277 633 CURVE SMOOTH",
"280 633 OFFCURVE",
"281 638 OFFCURVE",
"281 647 CURVE SMOOTH",
"281 653 OFFCURVE",
"280 658 OFFCURVE",
"279 662 CURVE",
"222 659 OFFCURVE",
"194 657 OFFCURVE",
"163 657 CURVE SMOOTH",
"140 657 OFFCURVE",
"100 659 OFFCURVE",
"43 662 CURVE",
"40 659 OFFCURVE",
"39 654 OFFCURVE",
"39 646 CURVE SMOOTH",
"39 637 OFFCURVE",
"40 633 OFFCURVE",
"43 633 CURVE SMOOTH",
"60 633 OFFCURVE",
"106 623 OFFCURVE",
"110 612 CURVE",
"115 594 OFFCURVE",
"117 564 OFFCURVE",
"117 523 CURVE SMOOTH",
"117 135 LINE SMOOTH",
"117 94 OFFCURVE",
"115 64 OFFCURVE",
"110 46 CURVE",
"106 35 OFFCURVE",
"60 26 OFFCURVE",
"43 26 CURVE SMOOTH",
"40 26 OFFCURVE",
"39 21 OFFCURVE",
"39 12 CURVE SMOOTH",
"39 5 OFFCURVE",
"40 0 OFFCURVE",
"43 -3 CURVE"
);
}
);
width = 322;
},
{
anchors = (
{
name = bottom;
position = "{179, 0}";
},
{
name = ogonek;
position = "{279, 10}";
},
{
name = top;
position = "{179, 658}";
},
{
name = topleft;
position = "{26, 658}";
}
);
background = {
paths = (
{
closed = 1;
nodes = (
"103 138 LINE SMOOTH",
"103 85 OFFCURVE",
"96 58 QCURVE",
"93 50 OFFCURVE",
"41 33 OFFCURVE",
"30 33 QCURVE SMOOTH",
"27 33 OFFCURVE",
"27 12 QCURVE SMOOTH",
"27 0 OFFCURVE",
"31 -4 QCURVE",
"45 -3 OFFCURVE",
"149 4 OFFCURVE",
"176 4 QCURVE SMOOTH",
"202 4 OFFCURVE",
"308 -4 OFFCURVE",
"315 -4 QCURVE",
"317 2 OFFCURVE",
"317 14 QCURVE SMOOTH",
"317 33 OFFCURVE",
"313 33 QCURVE SMOOTH",
"304 33 OFFCURVE",
"253 51 OFFCURVE",
"251 58 QCURVE SMOOTH",
"243 89 OFFCURVE",
"243 146 QCURVE SMOOTH",
"243 516 LINE",
"243 531 LINE SMOOTH",
"243 546 OFFCURVE",
"247 589 OFFCURVE",
"250 601 QCURVE SMOOTH",
"252 608 OFFCURVE",
"306 625 OFFCURVE",
"315 625 QCURVE SMOOTH",
"319 625 OFFCURVE",
"319 644 QCURVE SMOOTH",
"319 653 OFFCURVE",
"316 662 QCURVE",
"196 656 OFFCURVE",
"176 656 QCURVE SMOOTH",
"145 655 OFFCURVE",
"112 656 OFFCURVE",
"46 661 OFFCURVE",
"31 662 QCURVE",
"29 660 OFFCURVE",
"29 642 QCURVE SMOOTH",
"29 625 OFFCURVE",
"33 625 QCURVE SMOOTH",
"44 625 OFFCURVE",
"90 608 OFFCURVE",
"95 600 QCURVE",
"103 586 OFFCURVE",
"103 522 QCURVE SMOOTH"
);
}
);
};
layerId = "E2E62ECD-1E64-44AC-9B50-C09427155398";
paths = (
{
closed = 1;
nodes = (
"55 -3 OFFCURVE",
"145 4 OFFCURVE",
"181 4 CURVE SMOOTH",
"212 4 OFFCURVE",
"285 -2 OFFCURVE",
"320 -4 CURVE",
"321 0 OFFCURVE",
"322 6 OFFCURVE",
"322 14 CURVE SMOOTH",
"322 27 OFFCURVE",
"321 33 OFFCURVE",
"318 33 CURVE SMOOTH",
"306 33 OFFCURVE",
"259 49 OFFCURVE",
"256 57 CURVE",
"249 88 OFFCURVE",
"248 118 OFFCURVE",
"248 146 CURVE SMOOTH",
"248 531 LINE SMOOTH",
"248 551 OFFCURVE",
"251 585 OFFCURVE",
"255 601 CURVE",
"257 610 OFFCURVE",
"308 625 OFFCURVE",
"320 625 CURVE SMOOTH",
"323 625 OFFCURVE",
"324 631 OFFCURVE",
"324 644 CURVE SMOOTH",
"324 650 OFFCURVE",
"323 656 OFFCURVE",
"321 662 CURVE",
"241 658 OFFCURVE",
"194 656 OFFCURVE",
"181 656 CURVE SMOOTH",
"133 656 OFFCURVE",
"84 659 OFFCURVE",
"36 662 CURVE",
"35 661 OFFCURVE",
"34 654 OFFCURVE",
"34 642 CURVE SMOOTH",
"34 631 OFFCURVE",
"35 625 OFFCURVE",
"38 625 CURVE SMOOTH",
"53 625 OFFCURVE",
"93 611 OFFCURVE",
"100 600 CURVE",
"105 591 OFFCURVE",
"108 565 OFFCURVE",
"108 522 CURVE SMOOTH",
"108 138 LINE SMOOTH",
"108 103 OFFCURVE",
"106 76 OFFCURVE",
"101 58 CURVE",
"97 47 OFFCURVE",
"50 33 OFFCURVE",
"35 33 CURVE SMOOTH",
"33 33 OFFCURVE",
"32 26 OFFCURVE",
"32 12 CURVE SMOOTH",
"32 4 OFFCURVE",
"33 -1 OFFCURVE",
"36 -4 CURVE"
);
}
);
width = 356;
}
);
leftMetricsKey = H;
note = I;
rightMetricsKey = H;
unicode = 0049;
},
{
color = 6;
glyphname = Iogonek;
lastChange = "2018-11-28 09:30:54 +0000";
layers = (
{
background = {
paths = (
{
closed = 1;
nodes = (
"157 657 OFFCURVE",
"42 662 QCURVE",
"38 658 OFFCURVE",
"38 646 QCURVE SMOOTH",
"38 633 OFFCURVE",
"42 633 QCURVE SMOOTH",
"55 633 OFFCURVE",
"106 620 OFFCURVE",
"109 612 QCURVE",
"116 585 OFFCURVE",
"116 523 QCURVE SMOOTH",
"116 135 LINE SMOOTH",
"116 73 OFFCURVE",
"109 46 QCURVE",
"106 38 OFFCURVE",
"55 26 OFFCURVE",
"42 26 QCURVE SMOOTH",
"38 26 OFFCURVE",
"38 12 QCURVE SMOOTH",
"38 1 OFFCURVE",
"42 -3 QCURVE",
"157 2 OFFCURVE",
"162 2 QCURVE SMOOTH",
"180 2 LINE",
"134 -29 OFFCURVE",
"64 -110 OFFCURVE",
"64 -147 QCURVE SMOOTH",
"64 -174 OFFCURVE",
"98 -224 OFFCURVE",
"135 -224 QCURVE SMOOTH",
"188 -224 OFFCURVE",
"240 -158 QCURVE SMOOTH",
"244 -153 OFFCURVE",
"244 -127 OFFCURVE",
"240 -127 QCURVE SMOOTH",
"239 -127 OFFCURVE",
"219 -146 OFFCURVE",
"181 -165 OFFCURVE",
"159 -165 QCURVE SMOOTH",
"136 -165 OFFCURVE",
"118 -138 OFFCURVE",
"118 -122 QCURVE SMOOTH",
"118 -92 OFFCURVE",
"185 -24 OFFCURVE",
"225 0 QCURVE",
"233 0 OFFCURVE",
"278 -3 QCURVE",
"280 3 OFFCURVE",
"280 11 QCURVE SMOOTH",
"280 26 OFFCURVE",
"276 26 QCURVE SMOOTH",
"266 26 OFFCURVE",
"214 39 OFFCURVE",
"212 46 QCURVE SMOOTH",
"203 81 OFFCURVE",
"203 139 QCURVE SMOOTH",
"203 519 LINE SMOOTH",
"202 577 OFFCURVE",
"212 612 QCURVE SMOOTH",
"214 619 OFFCURVE",
"266 633 OFFCURVE",
"276 633 QCURVE SMOOTH",
"280 633 OFFCURVE",
"280 647 QCURVE SMOOTH",
"280 656 OFFCURVE",
"278 662 QCURVE",
"178 657 OFFCURVE",
"162 657 QCURVE SMOOTH"
);
}
);
};
components = (
{
name = I;
},
{
name = ogonekcomb;
transform = "{1, 0, 0, 1, 7, 0}";
}
);
layerId = "0276F023-BC64-4582-8657-390FE5DB601E";
width = 322;
},
{
background = {
paths = (
{
closed = 1;
nodes = (
"168 656 OFFCURVE",
"30 662 QCURVE",
"28 660 OFFCURVE",
"28 642 QCURVE SMOOTH",
"28 625 OFFCURVE",
"32 625 QCURVE SMOOTH",
"43 625 OFFCURVE",
"89 608 OFFCURVE",
"94 600 QCURVE",
"102 586 OFFCURVE",
"102 522 QCURVE SMOOTH",
"102 138 LINE SMOOTH",
"102 85 OFFCURVE",
"95 58 QCURVE",
"92 50 OFFCURVE",
"40 33 OFFCURVE",
"29 33 QCURVE SMOOTH",
"26 33 OFFCURVE",
"26 12 QCURVE SMOOTH",
"26 0 OFFCURVE",
"30 -4 QCURVE",
"44 -3 OFFCURVE",
"148 4 OFFCURVE",
"175 4 QCURVE SMOOTH",
"201 4 OFFCURVE",
"215 3 QCURVE",
"168 -11 OFFCURVE",
"82 -100 OFFCURVE",
"82 -140 QCURVE SMOOTH",
"82 -176 OFFCURVE",
"134 -218 OFFCURVE",
"163 -218 QCURVE SMOOTH",
"200 -218 OFFCURVE",
"269 -171 OFFCURVE",
"286 -149 QCURVE SMOOTH",
"292 -141 OFFCURVE",
"292 -127 QCURVE SMOOTH",
"292 -109 OFFCURVE",
"287 -109 QCURVE",
"275 -119 OFFCURVE",
"226 -142 OFFCURVE",
"207 -142 QCURVE SMOOTH",
"190 -142 OFFCURVE",
"166 -125 OFFCURVE",
"166 -110 QCURVE SMOOTH",
"166 -55 OFFCURVE",
"257 0 QCURVE",
"275 -2 OFFCURVE",
"314 -4 QCURVE",
"316 2 OFFCURVE",
"316 14 QCURVE SMOOTH",
"316 33 OFFCURVE",
"312 33 QCURVE SMOOTH",
"303 33 OFFCURVE",
"252 51 OFFCURVE",
"250 58 QCURVE SMOOTH",
"242 89 OFFCURVE",
"242 146 QCURVE SMOOTH",
"242 516 LINE",
"242 531 LINE SMOOTH",
"242 546 OFFCURVE",
"246 589 OFFCURVE",
"249 601 QCURVE SMOOTH",
"251 608 OFFCURVE",
"305 625 OFFCURVE",
"314 625 QCURVE SMOOTH",
"318 625 OFFCURVE",
"318 644 QCURVE SMOOTH",
"318 653 OFFCURVE",
"315 662 QCURVE",
"195 656 OFFCURVE",
"175 656 QCURVE SMOOTH"
);
}
);
};
components = (
{
name = I;
},
{
name = ogonekcomb;
transform = "{1, 0, 0, 1, 44, 0}";
}
);
layerId = "E2E62ECD-1E64-44AC-9B50-C09427155398";
width = 356;
}
);
note = Iogonek;
unicode = 012E;
},
{
color = 3;
glyphname = J;
lastChange = "2019-01-08 22:56:12 +0000";
layers = (
{
anchors = (
{
name = bottom;
position = "{146, 0}";
},
{
name = top;
position = "{163, 658}";
}
);
background = {
paths = (
{
closed = 1;
nodes = (
"133 656 OFFCURVE",
"53 661 OFFCURVE",
"40 662 QCURVE",
"36 658 OFFCURVE",
"36 646 QCURVE SMOOTH",
"36 633 OFFCURVE",
"40 633 QCURVE SMOOTH",
"53 633 OFFCURVE",
"104 620 OFFCURVE",
"107 612 QCURVE",
"114 585 OFFCURVE",
"114 523 QCURVE SMOOTH",
"114 77 LINE SMOOTH",
"114 14 OFFCURVE",
"96 -85 OFFCURVE",
"68 -139 OFFCURVE",
"39 -167 OFFCURVE",
"25 -167 QCURVE SMOOTH",
"12 -167 OFFCURVE",
"-33 -124 OFFCURVE",
"-51 -124 QCURVE SMOOTH",
"-76 -124 OFFCURVE",
"-113 -152 OFFCURVE",
"-113 -174 QCURVE SMOOTH",
"-113 -197 OFFCURVE",
"-101 -211 QCURVE",
"-94 -215 LINE",
"-86 -219 OFFCURVE",
"-60 -227 OFFCURVE",
"-49 -227 QCURVE SMOOTH",
"60 -227 OFFCURVE",
"201 -41 OFFCURVE",
"201 85 QCURVE SMOOTH",
"201 519 LINE SMOOTH",
"201 577 OFFCURVE",
"210 612 QCURVE SMOOTH",
"212 619 OFFCURVE",
"264 633 OFFCURVE",
"274 633 QCURVE SMOOTH",
"278 633 OFFCURVE",
"278 647 QCURVE SMOOTH",
"278 656 OFFCURVE",
"276 662 QCURVE",
"262 661 OFFCURVE",
"218 658 OFFCURVE",
"180 656 OFFCURVE",
"160 656 QCURVE SMOOTH"
);
}
);
};
layerId = "0276F023-BC64-4582-8657-390FE5DB601E";
paths = (
{
closed = 1;
nodes = (
"127 656 OFFCURVE",
"60 661 OFFCURVE",
"43 662 CURVE",
"40 659 OFFCURVE",
"39 654 OFFCURVE",
"39 646 CURVE SMOOTH",
"39 637 OFFCURVE",
"40 633 OFFCURVE",
"43 633 CURVE SMOOTH",
"60 633 OFFCURVE",
"106 623 OFFCURVE",
"110 612 CURVE",
"115 594 OFFCURVE",
"117 564 OFFCURVE",
"117 523 CURVE SMOOTH",
"117 77 LINE SMOOTH",
"117 -7 OFFCURVE",
"104 -76 OFFCURVE",
"85 -112 CURVE SMOOTH",
"66 -148 OFFCURVE",
"47 -167 OFFCURVE",
"28 -167 CURVE SMOOTH",
"19 -167 OFFCURVE",
"8 -160 OFFCURVE",
"-8 -146 CURVE SMOOTH",
"-23 -131 OFFCURVE",
"-42 -124 OFFCURVE",
"-55 -124 CURVE SMOOTH",
"-87 -124 OFFCURVE",
"-110 -144 OFFCURVE",
"-110 -172 CURVE SMOOTH",
"-110 -206 OFFCURVE",
"-82 -227 OFFCURVE",
"-26 -227 CURVE SMOOTH",
"93 -227 OFFCURVE",
"204 -83 OFFCURVE",
"204 85 CURVE SMOOTH",
"204 519 LINE SMOOTH",
"204 558 OFFCURVE",
"207 589 OFFCURVE",
"213 613 CURVE",
"216 621 OFFCURVE",
"264 633 OFFCURVE",
"277 633 CURVE SMOOTH",
"280 633 OFFCURVE",
"281 638 OFFCURVE",
"281 647 CURVE SMOOTH",
"281 653 OFFCURVE",
"280 658 OFFCURVE",
"279 662 CURVE",
"251 660 OFFCURVE",
"189 656 OFFCURVE",
"163 656 CURVE SMOOTH"
);
}
);
width = 316;
},
{
anchors = (
{
name = bottom;
position = "{104, 0}";
},
{
name = top;
position = "{180, 658}";
}
);
background = {
paths = (
{
closed = 1;
nodes = (
"169 656 OFFCURVE",
"31 662 QCURVE",
"29 660 OFFCURVE",
"29 642 QCURVE SMOOTH",
"29 625 OFFCURVE",
"33 625 QCURVE SMOOTH",
"44 625 OFFCURVE",
"90 608 OFFCURVE",
"95 600 QCURVE",
"103 586 OFFCURVE",
"103 522 QCURVE SMOOTH",
"103 135 LINE SMOOTH",
"103 -8 OFFCURVE",
"75 -148 OFFCURVE",
"31 -148 QCURVE SMOOTH",
"17 -148 OFFCURVE",
"-38 -87 OFFCURVE",
"-62 -87 QCURVE SMOOTH",
"-87 -87 OFFCURVE",
"-125 -123 OFFCURVE",
"-125 -148 QCURVE SMOOTH",
"-125 -176 OFFCURVE",
"-110 -200 QCURVE",
"-87 -218 OFFCURVE",
"-53 -218 QCURVE SMOOTH",
"84 -218 OFFCURVE",
"243 -27 OFFCURVE",
"243 143 QCURVE SMOOTH",
"243 516 LINE SMOOTH",
"243 574 OFFCURVE",
"250 601 QCURVE SMOOTH",
"252 608 OFFCURVE",
"306 625 OFFCURVE",
"315 625 QCURVE SMOOTH",
"319 625 OFFCURVE",
"319 644 QCURVE SMOOTH",
"319 653 OFFCURVE",
"316 662 QCURVE",
"196 656 OFFCURVE",
"176 656 QCURVE SMOOTH"
);
}
);
};
layerId = "E2E62ECD-1E64-44AC-9B50-C09427155398";
paths = (
{
closed = 1;
nodes = (
"176 656 OFFCURVE",
"128 658 OFFCURVE",
"36 662 CURVE",
"35 661 OFFCURVE",
"34 654 OFFCURVE",
"34 642 CURVE SMOOTH",
"34 631 OFFCURVE",
"35 625 OFFCURVE",
"38 625 CURVE SMOOTH",
"53 625 OFFCURVE",
"93 611 OFFCURVE",
"100 600 CURVE",
"105 591 OFFCURVE",
"108 565 OFFCURVE",
"108 522 CURVE SMOOTH",
"108 135 LINE SMOOTH",
"108 40 OFFCURVE",
"103 -31 OFFCURVE",
"94 -78 CURVE SMOOTH",
"85 -125 OFFCURVE",
"65 -148 OFFCURVE",
"36 -148 CURVE SMOOTH",
"27 -148 OFFCURVE",
"13 -138 OFFCURVE",
"-6 -118 CURVE SMOOTH",
"-24 -97 OFFCURVE",
"-41 -87 OFFCURVE",
"-57 -87 CURVE SMOOTH",
"-90 -87 OFFCURVE",
"-120 -115 OFFCURVE",
"-120 -148 CURVE SMOOTH",
"-120 -187 OFFCURVE",
"-86 -218 OFFCURVE",
"-28 -218 CURVE SMOOTH",
"125 -218 OFFCURVE",
"248 -84 OFFCURVE",
"248 143 CURVE SMOOTH",
"248 516 LINE SMOOTH",
"248 555 OFFCURVE",
"250 583 OFFCURVE",
"255 602 CURVE",
"258 610 OFFCURVE",
"308 625 OFFCURVE",
"320 625 CURVE SMOOTH",
"323 625 OFFCURVE",
"324 631 OFFCURVE",
"324 644 CURVE SMOOTH",
"324 650 OFFCURVE",
"323 656 OFFCURVE",
"321 662 CURVE",
"241 658 OFFCURVE",
"194 656 OFFCURVE",
"181 656 CURVE SMOOTH"
);
}
);
width = 351;
}
);
note = J;
unicode = 004A;
},
{
color = 3;
glyphname = K;
lastChange = "2018-11-27 13:18:45 +0000";
layers = (
{
anchors = (
{
name = bottom;
position = "{345, 0}";
},
{
name = top;
position = "{345, 658}";
}
);
background = {
paths = (
{
closed = 1;
nodes = (
"133 656 OFFCURVE",
"53 661 OFFCURVE",
"40 662 QCURVE",
"36 658 OFFCURVE",
"36 646 QCURVE SMOOTH",
"36 633 OFFCURVE",
"40 633 QCURVE SMOOTH",
"53 633 OFFCURVE",
"104 620 OFFCURVE",
"107 612 QCURVE",
"114 585 OFFCURVE",
"114 523 QCURVE SMOOTH",
"114 135 LINE SMOOTH",
"114 73 OFFCURVE",
"107 46 QCURVE",
"104 38 OFFCURVE",
"53 26 OFFCURVE",
"40 26 QCURVE SMOOTH",
"36 26 OFFCURVE",
"36 12 QCURVE SMOOTH",
"36 1 OFFCURVE",
"40 -3 QCURVE",
"155 2 OFFCURVE",
"160 2 QCURVE SMOOTH",
"176 2 OFFCURVE",
"276 -3 QCURVE",
"278 2 OFFCURVE",
"277 26 OFFCURVE",
"274 26 QCURVE SMOOTH",
"264 26 OFFCURVE",
"212 39 OFFCURVE",
"210 46 QCURVE SMOOTH",
"201 81 OFFCURVE",
"201 139 QCURVE SMOOTH",
"201 303 LINE SMOOTH",
"201 311 OFFCURVE",
"208 311 QCURVE SMOOTH",
"233 311 OFFCURVE",
"237 307 QCURVE SMOOTH",
"464 74 OFFCURVE",
"464 42 QCURVE SMOOTH",
"464 34 OFFCURVE",
"433 26 OFFCURVE",
"421 26 QCURVE SMOOTH",
"417 26 OFFCURVE",
"417 1 OFFCURVE",
"421 -3 QCURVE",
"441 -2 OFFCURVE",
"491 0 OFFCURVE",
"531 2 OFFCURVE",
"556 2 QCURVE SMOOTH",
"580 2 OFFCURVE",
"680 -3 QCURVE",
"682 1 OFFCURVE",
"682 8 QCURVE SMOOTH",
"682 26 OFFCURVE",
"677 26 QCURVE SMOOTH",
"668 26 OFFCURVE",
"639 30 OFFCURVE",
"587 52 OFFCURVE",
"571 69 QCURVE SMOOTH",
"330 334 LINE",
"315 352 OFFCURVE",
"323 361 QCURVE SMOOTH",
"524 595 LINE SMOOTH",
"555 630 OFFCURVE",
"616 637 QCURVE",
"619 637 OFFCURVE",
"620 658 OFFCURVE",
"618 662 QCURVE",
"606 661 OFFCURVE",
"542 656 OFFCURVE",
"517 656 QCURVE SMOOTH",
"501 656 OFFCURVE",
"465 658 OFFCURVE",
"423 661 OFFCURVE",
"410 662 QCURVE",
"408 655 OFFCURVE",
"408 637 OFFCURVE",
"412 637 QCURVE SMOOTH",
"469 637 OFFCURVE",
"469 620 QCURVE SMOOTH",
"469 611 OFFCURVE",
"445 582 QCURVE",
"390 510 OFFCURVE",
"273 379 QCURVE SMOOTH",
"247 350 OFFCURVE",
"215 350 QCURVE SMOOTH",
"208 350 LINE",
"201 356 LINE",
"201 519 LINE SMOOTH",
"201 577 OFFCURVE",
"210 612 QCURVE SMOOTH",
"212 619 OFFCURVE",
"264 633 OFFCURVE",
"274 633 QCURVE SMOOTH",
"277 633 OFFCURVE",
"278 658 OFFCURVE",
"276 662 QCURVE",
"262 661 OFFCURVE",
"218 658 OFFCURVE",
"180 656 OFFCURVE",
"160 656 QCURVE SMOOTH"
);
}
);
};
layerId = "0276F023-BC64-4582-8657-390FE5DB601E";
paths = (
{
closed = 1;
nodes = (
"100 0 OFFCURVE",
"139 2 OFFCURVE",
"163 2 CURVE SMOOTH",
"174 2 OFFCURVE",
"212 0 OFFCURVE",
"279 -3 CURVE",
"280 0 OFFCURVE",
"281 5 OFFCURVE",
"281 10 CURVE SMOOTH",
"281 18 OFFCURVE",
"279 26 OFFCURVE",
"277 26 CURVE SMOOTH",
"264 26 OFFCURVE",
"216 37 OFFCURVE",
"213 46 CURVE SMOOTH",
"207 69 OFFCURVE",
"204 100 OFFCURVE",
"204 139 CURVE SMOOTH",
"204 311 LINE",
"224 311 LINE SMOOTH",
"235 311 OFFCURVE",
"242 308 OFFCURVE",
"247 302 CURVE SMOOTH",
"427 104 LINE SMOOTH",
"459 69 OFFCURVE",
"467 53 OFFCURVE",
"467 45 CURVE SMOOTH",
"467 31 OFFCURVE",
"440 26 OFFCURVE",
"424 26 CURVE SMOOTH",
"421 26 OFFCURVE",
"420 22 OFFCURVE",
"420 14 CURVE SMOOTH",
"420 5 OFFCURVE",
"421 0 OFFCURVE",
"424 -3 CURVE",
"446 -2 OFFCURVE",
"520 2 OFFCURVE",
"559 2 CURVE SMOOTH",
"575 2 OFFCURVE",
"616 0 OFFCURVE",
"683 -3 CURVE",
"684 0 OFFCURVE",
"685 3 OFFCURVE",
"685 8 CURVE SMOOTH",
"685 20 OFFCURVE",
"683 26 OFFCURVE",
"680 26 CURVE SMOOTH",
"655 26 OFFCURVE",
"602 39 OFFCURVE",
"574 69 CURVE SMOOTH",
"330 330 LINE",
"323 338 OFFCURVE",
"320 343 OFFCURVE",
"320 348 CURVE SMOOTH",
"320 351 OFFCURVE",
"321 355 OFFCURVE",
"323 357 CURVE SMOOTH",
"527 595 LINE SMOOTH",
"548 619 OFFCURVE",
"578 632 OFFCURVE",
"619 637 CURVE",
"621 639 OFFCURVE",
"623 644 OFFCURVE",
"623 651 CURVE SMOOTH",
"623 655 OFFCURVE",
"622 660 OFFCURVE",
"621 662 CURVE",
"605 661 OFFCURVE",
"553 656 OFFCURVE",
"520 656 CURVE SMOOTH",
"498 656 OFFCURVE",
"439 660 OFFCURVE",
"413 662 CURVE",
"412 657 OFFCURVE",
"411 652 OFFCURVE",
"411 646 CURVE SMOOTH",
"411 640 OFFCURVE",
"412 637 OFFCURVE",
"415 637 CURVE SMOOTH",
"453 637 OFFCURVE",
"472 631 OFFCURVE",
"472 620 CURVE SMOOTH",
"472 614 OFFCURVE",
"465 601 OFFCURVE",
"449 582 CURVE SMOOTH",
"276 379 LINE SMOOTH",
"260 360 OFFCURVE",
"239 350 OFFCURVE",
"218 350 CURVE SMOOTH",
"204 350 LINE",
"204 519 LINE SMOOTH",
"204 558 OFFCURVE",
"207 589 OFFCURVE",
"213 612 CURVE SMOOTH",
"216 621 OFFCURVE",
"264 633 OFFCURVE",
"277 633 CURVE SMOOTH",
"279 633 OFFCURVE",
"281 642 OFFCURVE",
"281 649 CURVE SMOOTH",
"281 655 OFFCURVE",
"280 660 OFFCURVE",
"279 662 CURVE",
"251 660 OFFCURVE",
"189 656 OFFCURVE",
"163 656 CURVE SMOOTH",
"127 656 OFFCURVE",
"60 661 OFFCURVE",
"43 662 CURVE",
"40 659 OFFCURVE",
"39 654 OFFCURVE",
"39 646 CURVE SMOOTH",
"39 637 OFFCURVE",
"40 633 OFFCURVE",
"43 633 CURVE SMOOTH",
"60 633 OFFCURVE",
"106 623 OFFCURVE",
"110 612 CURVE",
"115 594 OFFCURVE",
"117 564 OFFCURVE",
"117 523 CURVE SMOOTH",
"117 135 LINE SMOOTH",
"117 94 OFFCURVE",
"115 64 OFFCURVE",
"110 46 CURVE",
"106 35 OFFCURVE",
"60 26 OFFCURVE",
"43 26 CURVE SMOOTH",
"40 26 OFFCURVE",
"39 21 OFFCURVE",
"39 12 CURVE SMOOTH",
"39 5 OFFCURVE",
"40 0 OFFCURVE",
"43 -3 CURVE"
);
}
);
width = 665;
},
{
anchors = (
{
name = bottom;
position = "{377, 0}";
},
{
name = top;
position = "{377, 658}";
}
);
background = {
paths = (
{
closed = 1;
nodes = (
"169 656 OFFCURVE",
"31 662 QCURVE",
"29 660 OFFCURVE",
"29 642 QCURVE SMOOTH",
"29 625 OFFCURVE",
"33 625 QCURVE SMOOTH",
"44 625 OFFCURVE",
"90 608 OFFCURVE",
"95 600 QCURVE",
"103 586 OFFCURVE",
"103 522 QCURVE SMOOTH",
"103 138 LINE SMOOTH",
"103 85 OFFCURVE",
"96 58 QCURVE",
"93 50 OFFCURVE",
"41 33 OFFCURVE",
"30 33 QCURVE SMOOTH",
"27 33 OFFCURVE",
"27 12 QCURVE SMOOTH",
"27 0 OFFCURVE",
"31 -4 QCURVE",
"45 -3 OFFCURVE",
"149 4 OFFCURVE",
"176 4 QCURVE SMOOTH",
"202 4 OFFCURVE",
"308 -4 OFFCURVE",
"315 -4 QCURVE",
"317 2 OFFCURVE",
"317 14 QCURVE SMOOTH",
"317 33 OFFCURVE",
"313 33 QCURVE SMOOTH",
"304 33 OFFCURVE",
"253 51 OFFCURVE",
"251 58 QCURVE SMOOTH",
"243 89 OFFCURVE",
"243 146 QCURVE SMOOTH",
"243 272 LINE SMOOTH",
"243 289 OFFCURVE",
"269 289 QCURVE SMOOTH",
"280 289 OFFCURVE",
"283 286 QCURVE",
"461 85 OFFCURVE",
"461 53 QCURVE SMOOTH",
"461 45 OFFCURVE",
"425 33 OFFCURVE",
"414 33 QCURVE SMOOTH",
"410 33 OFFCURVE",
"410 0 OFFCURVE",
"414 -4 QCURVE",
"502 4 OFFCURVE",
"556 4 QCURVE SMOOTH",
"581 4 OFFCURVE",
"706 -4 OFFCURVE",
"707 -4 QCURVE",
"711 4 OFFCURVE",
"711 14 QCURVE SMOOTH",
"711 33 OFFCURVE",
"707 33 QCURVE SMOOTH",
"695 33 OFFCURVE",
"648 45 OFFCURVE",
"637 58 QCURVE",
"400 367 LINE",
"388 381 OFFCURVE",
"401 396 QCURVE SMOOTH",
"573 586 LINE SMOOTH",
"579 593 OFFCURVE",
"596 604 OFFCURVE",
"612 612 OFFCURVE",
"632 619 OFFCURVE",
"648 622 OFFCURVE",
"666 625 OFFCURVE",
"677 626 OFFCURVE",
"683 626 QCURVE",
"689 627 LINE",
"692 627 OFFCURVE",
"693 658 OFFCURVE",
"691 662 QCURVE",
"571 656 OFFCURVE",
"559 656 QCURVE SMOOTH",
"536 656 OFFCURVE",
"425 662 QCURVE",
"423 655 OFFCURVE",
"427 627 OFFCURVE",
"431 627 QCURVE SMOOTH",
"447 627 OFFCURVE",
"491 619 OFFCURVE",
"491 609 QCURVE SMOOTH",
"491 596 OFFCURVE",
"483 586 QCURVE",
"387 476 OFFCURVE",
"301 388 QCURVE SMOOTH",
"264 350 OFFCURVE",
"257 350 QCURVE SMOOTH",
"250 350 LINE",
"249 350 LINE SMOOTH",
"247 350 OFFCURVE",
"243 354 OFFCURVE",
"243 358 QCURVE SMOOTH",
"243 516 LINE SMOOTH",
"243 574 OFFCURVE",
"250 601 QCURVE SMOOTH",
"252 608 OFFCURVE",
"306 625 OFFCURVE",
"315 625 QCURVE SMOOTH",
"319 625 OFFCURVE",
"319 644 QCURVE SMOOTH",
"319 653 OFFCURVE",
"316 662 QCURVE",
"196 656 OFFCURVE",
"176 656 QCURVE SMOOTH"
);
}
);
};
layerId = "E2E62ECD-1E64-44AC-9B50-C09427155398";
paths = (
{
closed = 1;
nodes = (
"55 -3 OFFCURVE",
"145 4 OFFCURVE",
"181 4 CURVE SMOOTH",
"203 4 OFFCURVE",
"278 -1 OFFCURVE",
"320 -4 CURVE",
"321 0 OFFCURVE",
"322 6 OFFCURVE",
"322 14 CURVE SMOOTH",
"322 27 OFFCURVE",
"321 33 OFFCURVE",
"318 33 CURVE SMOOTH",
"306 33 OFFCURVE",
"259 49 OFFCURVE",
"256 58 CURVE SMOOTH",
"249 78 OFFCURVE",
"248 108 OFFCURVE",
"248 146 CURVE SMOOTH",
"248 289 LINE",
"271 289 LINE SMOOTH",
"282 289 OFFCURVE",
"290 287 OFFCURVE",
"300 275 CURVE SMOOTH",
"444 102 LINE SMOOTH",
"461 81 OFFCURVE",
"471 64 OFFCURVE",
"471 55 CURVE SMOOTH",
"471 42 OFFCURVE",
"439 33 OFFCURVE",
"424 33 CURVE SMOOTH",
"421 33 OFFCURVE",
"420 28 OFFCURVE",
"420 17 CURVE SMOOTH",
"420 6 OFFCURVE",
"421 -1 OFFCURVE",
"424 -4 CURVE",
"483 1 OFFCURVE",
"530 4 OFFCURVE",
"566 4 CURVE SMOOTH",
"593 4 OFFCURVE",
"691 -1 OFFCURVE",
"721 -4 CURVE",
"724 1 OFFCURVE",
"725 7 OFFCURVE",
"725 14 CURVE SMOOTH",
"725 27 OFFCURVE",
"724 33 OFFCURVE",
"721 33 CURVE SMOOTH",
"705 33 OFFCURVE",
"666 40 OFFCURVE",
"651 58 CURVE SMOOTH",
"400 360 LINE",
"396 364 OFFCURVE",
"394 369 OFFCURVE",
"394 374 CURVE SMOOTH",
"394 379 OFFCURVE",
"396 384 OFFCURVE",
"401 389 CURVE SMOOTH",
"578 586 LINE SMOOTH",
"598 609 OFFCURVE",
"639 624 OFFCURVE",
"694 627 CURVE",
"696 629 OFFCURVE",
"698 638 OFFCURVE",
"698 647 CURVE SMOOTH",
"698 654 OFFCURVE",
"697 660 OFFCURVE",
"696 662 CURVE",
"616 658 OFFCURVE",
"572 656 OFFCURVE",
"564 656 CURVE SMOOTH",
"549 656 OFFCURVE",
"504 658 OFFCURVE",
"430 662 CURVE",
"429 660 OFFCURVE",
"429 657 OFFCURVE",
"429 653 CURVE SMOOTH",
"429 642 OFFCURVE",
"432 627 OFFCURVE",
"436 627 CURVE SMOOTH",
"457 627 OFFCURVE",
"496 622 OFFCURVE",
"496 609 CURVE SMOOTH",
"496 600 OFFCURVE",
"494 591 OFFCURVE",
"478 574 CURVE SMOOTH",
"306 388 LINE SMOOTH",
"282 362 OFFCURVE",
"267 350 OFFCURVE",
"262 350 CURVE SMOOTH",
"248 350 LINE",
"248 516 LINE SMOOTH",
"248 555 OFFCURVE",
"249 583 OFFCURVE",
"255 601 CURVE SMOOTH",
"258 610 OFFCURVE",
"308 625 OFFCURVE",
"320 625 CURVE SMOOTH",
"323 625 OFFCURVE",
"324 631 OFFCURVE",
"324 644 CURVE SMOOTH",
"324 650 OFFCURVE",
"323 656 OFFCURVE",
"321 662 CURVE",
"241 658 OFFCURVE",
"194 656 OFFCURVE",
"181 656 CURVE SMOOTH",
"176 656 OFFCURVE",
"128 658 OFFCURVE",
"36 662 CURVE",
"35 661 OFFCURVE",
"34 654 OFFCURVE",
"34 642 CURVE SMOOTH",
"34 631 OFFCURVE",
"35 625 OFFCURVE",
"38 625 CURVE SMOOTH",
"53 625 OFFCURVE",
"93 611 OFFCURVE",
"100 600 CURVE",
"105 591 OFFCURVE",
"108 565 OFFCURVE",
"108 522 CURVE SMOOTH",
"108 138 LINE SMOOTH",
"108 103 OFFCURVE",
"106 76 OFFCURVE",
"101 58 CURVE",
"97 47 OFFCURVE",
"50 33 OFFCURVE",
"35 33 CURVE SMOOTH",
"33 33 OFFCURVE",
"32 26 OFFCURVE",
"32 12 CURVE SMOOTH",
"32 4 OFFCURVE",
"33 -1 OFFCURVE",
"36 -4 CURVE"
);
}
);
width = 723;
}
);
note = K;
unicode = 004B;
},
{
color = 3;
glyphname = L;
lastChange = "2018-12-03 12:14:13 +0000";
layers = (
{
anchors = (
{
name = bottom;
position = "{286, 0}";
},
{
name = center;
position = "{224, 329}";
},
{
name = dotacc;
position = "{387, 329}";
},
{
name = top;
position = "{286, 658}";
},
{
name = topright;
position = "{417, 431}";
}
);
background = {
paths = (
{
closed = 1;
nodes = (
"133 656 OFFCURVE",
"53 661 OFFCURVE",
"40 662 QCURVE",
"36 658 OFFCURVE",
"36 646 QCURVE SMOOTH",
"36 633 OFFCURVE",
"40 633 QCURVE SMOOTH",
"53 633 OFFCURVE",
"104 620 OFFCURVE",
"107 612 QCURVE",
"114 585 OFFCURVE",
"114 521 QCURVE SMOOTH",
"114 143 LINE SMOOTH",
"114 61 OFFCURVE",
"107 49 QCURVE SMOOTH",
"102 40 OFFCURVE",
"52 28 OFFCURVE",
"38 28 QCURVE SMOOTH",
"35 28 OFFCURVE",
"35 2 OFFCURVE",
"38 -1 QCURVE",
"159 2 LINE SMOOTH",
"227 2 OFFCURVE",
"448 -4 OFFCURVE",
"500 -4 QCURVE",
"502 11 OFFCURVE",
"516 57 OFFCURVE",
"528 92 OFFCURVE",
"549 149 OFFCURVE",
"554 162 QCURVE",
"548 168 OFFCURVE",
"529 168 QCURVE SMOOTH",
"517 168 OFFCURVE",
"515 162 QCURVE",
"504 124 OFFCURVE",
"467 69 OFFCURVE",
"452 61 QCURVE SMOOTH",
"419 44 OFFCURVE",
"326 44 QCURVE SMOOTH",
"278 44 LINE SMOOTH",
"213 44 OFFCURVE",
"210 54 QCURVE",
"201 89 OFFCURVE",
"201 142 QCURVE SMOOTH",
"201 519 LINE SMOOTH",
"201 577 OFFCURVE",
"210 612 QCURVE SMOOTH",
"212 619 OFFCURVE",
"264 633 OFFCURVE",
"274 633 QCURVE SMOOTH",
"278 633 OFFCURVE",
"278 647 QCURVE SMOOTH",
"278 656 OFFCURVE",
"276 662 QCURVE",
"262 661 OFFCURVE",
"218 658 OFFCURVE",
"180 656 OFFCURVE",
"160 656 QCURVE SMOOTH"
);
}
);
};
guideLines = (
{
angle = 90;
position = "{503, 251}";
}
);
layerId = "0276F023-BC64-4582-8657-390FE5DB601E";
paths = (
{
closed = 1;
nodes = (
"143 656 OFFCURVE",
"91 659 OFFCURVE",
"43 662 CURVE",
"40 659 OFFCURVE",
"39 654 OFFCURVE",
"39 646 CURVE SMOOTH",
"39 637 OFFCURVE",
"40 633 OFFCURVE",
"43 633 CURVE SMOOTH",
"66 633 OFFCURVE",
"107 620 OFFCURVE",
"110 612 CURVE",
"115 594 OFFCURVE",
"117 564 OFFCURVE",
"117 521 CURVE SMOOTH",
"117 143 LINE SMOOTH",
"117 88 OFFCURVE",
"115 57 OFFCURVE",
"110 49 CURVE SMOOTH",
"105 40 OFFCURVE",
"66 28 OFFCURVE",
"41 28 CURVE SMOOTH",
"39 28 OFFCURVE",
"38 24 OFFCURVE",
"38 15 CURVE SMOOTH",
"38 6 OFFCURVE",
"39 1 OFFCURVE",
"41 -1 CURVE",
"71 0 OFFCURVE",
"122 2 OFFCURVE",
"162 2 CURVE SMOOTH",
"207 2 OFFCURVE",
"267 1 OFFCURVE",
"341 -1 CURVE SMOOTH",
"414 -3 OFFCURVE",
"468 -4 OFFCURVE",
"503 -4 CURVE",
"506 18 OFFCURVE",
"532 98 OFFCURVE",
"557 162 CURVE",
"553 166 OFFCURVE",
"545 168 OFFCURVE",
"532 168 CURVE SMOOTH",
"524 168 OFFCURVE",
"519 166 OFFCURVE",
"518 162 CURVE",
"482 54 OFFCURVE",
"444 44 OFFCURVE",
"329 44 CURVE SMOOTH",
"281 44 LINE SMOOTH",
"238 44 OFFCURVE",
"215 47 OFFCURVE",
"213 54 CURVE",
"207 77 OFFCURVE",
"204 107 OFFCURVE",
"204 142 CURVE SMOOTH",
"204 519 LINE SMOOTH",
"204 558 OFFCURVE",
"207 589 OFFCURVE",
"213 612 CURVE SMOOTH",
"215 619 OFFCURVE",
"257 633 OFFCURVE",
"277 633 CURVE SMOOTH",
"280 633 OFFCURVE",
"281 638 OFFCURVE",
"281 647 CURVE SMOOTH",
"281 653 OFFCURVE",
"280 658 OFFCURVE",
"279 662 CURVE",
"212 658 OFFCURVE",
"177 656 OFFCURVE",
"163 656 CURVE SMOOTH"
);
}
);
width = 559;
},
{
anchors = (
{
name = bottom;
position = "{305, 0}";
},
{
name = center;
position = "{203, 329}";
},
{
name = dotacc;
position = "{417, 329}";
},
{
name = top;
position = "{305, 658}";
},
{
name = topright;
position = "{396, 439}";
}
);
background = {
paths = (
{
closed = 1;
nodes = (
"169 656 OFFCURVE",
"31 662 QCURVE",
"29 660 OFFCURVE",
"29 642 QCURVE SMOOTH",
"29 625 OFFCURVE",
"33 625 QCURVE SMOOTH",
"44 625 OFFCURVE",
"90 608 OFFCURVE",
"95 600 QCURVE",
"103 586 OFFCURVE",
"103 525 QCURVE SMOOTH",
"103 143 LINE SMOOTH",
"103 78 OFFCURVE",
"97 55 QCURVE",
"94 47 OFFCURVE",
"43 33 OFFCURVE",
"31 33 QCURVE SMOOTH",
"27 33 OFFCURVE",
"27 13 QCURVE SMOOTH",
"27 0 OFFCURVE",
"31 -4 QCURVE",
"177 2 LINE",
"220 2 OFFCURVE",
"462 -2 OFFCURVE",
"519 -2 QCURVE",
"524 32 OFFCURVE",
"573 170 QCURVE",
"567 176 OFFCURVE",
"543 176 QCURVE SMOOTH",
"531 176 OFFCURVE",
"529 170 QCURVE",
"517 139 OFFCURVE",
"474 89 OFFCURVE",
"457 80 QCURVE SMOOTH",
"407 54 OFFCURVE",
"345 54 QCURVE SMOOTH",
"319 54 LINE SMOOTH",
"256 54 OFFCURVE",
"251 70 QCURVE SMOOTH",
"243 93 OFFCURVE",
"243 142 QCURVE SMOOTH",
"243 521 LINE SMOOTH",
"243 574 OFFCURVE",
"250 601 QCURVE SMOOTH",
"252 608 OFFCURVE",
"306 625 OFFCURVE",
"315 625 QCURVE SMOOTH",
"319 625 OFFCURVE",
"319 644 QCURVE SMOOTH",
"319 653 OFFCURVE",
"316 662 QCURVE",
"196 656 OFFCURVE",
"176 656 QCURVE SMOOTH"
);
}
);
};
guideLines = (
{
angle = 90;
position = "{524, 251}";
}
);
layerId = "E2E62ECD-1E64-44AC-9B50-C09427155398";
paths = (
{
closed = 1;
nodes = (
"176 656 OFFCURVE",
"131 658 OFFCURVE",
"36 662 CURVE",
"35 661 OFFCURVE",
"34 652 OFFCURVE",
"34 642 CURVE SMOOTH",
"34 630 OFFCURVE",
"35 625 OFFCURVE",
"38 625 CURVE SMOOTH",
"56 625 OFFCURVE",
"94 610 OFFCURVE",
"100 600 CURVE",
"105 591 OFFCURVE",
"108 563 OFFCURVE",
"108 525 CURVE SMOOTH",
"108 143 LINE SMOOTH",
"108 100 OFFCURVE",
"106 70 OFFCURVE",
"102 55 CURVE",
"99 46 OFFCURVE",
"60 33 OFFCURVE",
"36 33 CURVE SMOOTH",
"33 33 OFFCURVE",
"32 28 OFFCURVE",
"32 13 CURVE SMOOTH",
"32 4 OFFCURVE",
"33 -1 OFFCURVE",
"36 -4 CURVE",
"75 -2 OFFCURVE",
"133 2 OFFCURVE",
"182 2 CURVE SMOOTH",
"211 2 OFFCURVE",
"265 1 OFFCURVE",
"346 0 CURVE SMOOTH",
"427 -1 OFFCURVE",
"486 -2 OFFCURVE",
"524 -2 CURVE",
"527 20 OFFCURVE",
"543 72 OFFCURVE",
"578 170 CURVE",
"574 174 OFFCURVE",
"564 176 OFFCURVE",
"548 176 CURVE SMOOTH",
"540 176 OFFCURVE",
"535 174 OFFCURVE",
"534 170 CURVE",
"504 92 OFFCURVE",
"442 54 OFFCURVE",
"350 54 CURVE SMOOTH",
"324 54 LINE SMOOTH",
"281 54 OFFCURVE",
"259 59 OFFCURVE",
"256 70 CURVE SMOOTH",
"251 89 OFFCURVE",
"248 116 OFFCURVE",
"248 142 CURVE SMOOTH",
"248 521 LINE SMOOTH",
"248 564 OFFCURVE",
"250 586 OFFCURVE",
"255 601 CURVE SMOOTH",
"257 608 OFFCURVE",
"303 625 OFFCURVE",
"320 625 CURVE SMOOTH",
"323 625 OFFCURVE",
"324 630 OFFCURVE",
"324 644 CURVE SMOOTH",
"324 650 OFFCURVE",
"323 656 OFFCURVE",
"321 662 CURVE",
"246 658 OFFCURVE",
"195 656 OFFCURVE",
"181 656 CURVE SMOOTH"
);
}
);
width = 573;
}
);
note = L;
unicode = 004C;
},
{
color = 6;
glyphname = Lslash;
lastChange = "2018-12-03 12:15:24 +0000";
layers = (
{
background = {
paths = (
{
closed = 1;
nodes = (
"409 416 LINE",
"389 447 LINE",
"39 207 LINE",
"59 176 LINE"
);
},
{
closed = 1;
nodes = (
"204 304 LINE",
"204 519 LINE SMOOTH",
"204 558 OFFCURVE",
"207 589 OFFCURVE",
"213 612 CURVE SMOOTH",
"216 621 OFFCURVE",
"264 633 OFFCURVE",
"277 633 CURVE SMOOTH",
"280 633 OFFCURVE",
"281 638 OFFCURVE",
"281 647 CURVE SMOOTH",
"281 653 OFFCURVE",
"280 658 OFFCURVE",
"279 662 CURVE",
"251 660 OFFCURVE",
"189 656 OFFCURVE",
"163 656 CURVE SMOOTH",
"127 656 OFFCURVE",
"60 661 OFFCURVE",
"43 662 CURVE",
"40 659 OFFCURVE",
"39 654 OFFCURVE",
"39 646 CURVE SMOOTH",
"39 637 OFFCURVE",
"40 633 OFFCURVE",
"43 633 CURVE SMOOTH",
"60 633 OFFCURVE",
"106 623 OFFCURVE",
"110 612 CURVE",
"115 594 OFFCURVE",
"117 564 OFFCURVE",
"117 521 CURVE SMOOTH",
"117 244 LINE"
);
},
{
closed = 1;
nodes = (
"117 236 LINE",
"117 143 LINE SMOOTH",
"117 88 OFFCURVE",
"115 57 OFFCURVE",
"110 49 CURVE SMOOTH",
"103 37 OFFCURVE",
"60 28 OFFCURVE",
"41 28 CURVE SMOOTH",
"39 28 OFFCURVE",
"38 24 OFFCURVE",
"38 15 CURVE SMOOTH",
"38 6 OFFCURVE",
"39 1 OFFCURVE",
"41 -1 CURVE",
"162 2 LINE SMOOTH",
"207 2 OFFCURVE",
"267 1 OFFCURVE",
"341 -1 CURVE SMOOTH",
"414 -3 OFFCURVE",
"468 -4 OFFCURVE",
"503 -4 CURVE",
"507 29 OFFCURVE",
"546 134 OFFCURVE",
"557 162 CURVE",
"553 166 OFFCURVE",
"545 168 OFFCURVE",
"532 168 CURVE SMOOTH",
"524 168 OFFCURVE",
"519 166 OFFCURVE",
"518 162 CURVE",
"503 111 OFFCURVE",
"475 72 OFFCURVE",
"455 61 CURVE SMOOTH",
"433 50 OFFCURVE",
"391 44 OFFCURVE",
"329 44 CURVE SMOOTH",
"281 44 LINE SMOOTH",
"238 44 OFFCURVE",
"215 47 OFFCURVE",
"213 54 CURVE",
"207 77 OFFCURVE",
"204 107 OFFCURVE",
"204 142 CURVE SMOOTH",
"204 296 LINE"
);
}
);
};
components = (
{
name = L;
},
{
name = slashshortcomb.case;
transform = "{1, 0, 0, 1, 0, 17}";
}
);
layerId = "0276F023-BC64-4582-8657-390FE5DB601E";
width = 559;
},
{
background = {
paths = (
{
closed = 1;
nodes = (
"169 656 OFFCURVE",
"31 662 QCURVE",
"29 660 OFFCURVE",
"29 642 QCURVE SMOOTH",
"29 625 OFFCURVE",
"33 625 QCURVE SMOOTH",
"44 625 OFFCURVE",
"90 608 OFFCURVE",
"95 600 QCURVE",
"103 586 OFFCURVE",
"103 525 QCURVE SMOOTH",
"103 272 LINE",
"17 212 LINE",
"10 206 OFFCURVE",
"37 178 QCURVE",
"103 223 LINE",
"103 143 LINE SMOOTH",
"103 78 OFFCURVE",
"97 55 QCURVE",
"94 47 OFFCURVE",
"43 33 OFFCURVE",
"31 33 QCURVE SMOOTH",
"27 33 OFFCURVE",
"27 13 QCURVE SMOOTH",
"27 0 OFFCURVE",
"31 -4 QCURVE",
"177 2 LINE",
"220 2 OFFCURVE",
"462 -2 OFFCURVE",
"519 -2 QCURVE",
"524 32 OFFCURVE",
"573 170 QCURVE",
"567 176 OFFCURVE",
"543 176 QCURVE SMOOTH",
"531 176 OFFCURVE",
"529 170 QCURVE",
"517 139 OFFCURVE",
"474 89 OFFCURVE",
"457 80 QCURVE SMOOTH",
"407 54 OFFCURVE",
"345 54 QCURVE SMOOTH",
"319 54 LINE SMOOTH",
"256 54 OFFCURVE",
"251 70 QCURVE SMOOTH",
"243 93 OFFCURVE",
"243 142 QCURVE SMOOTH",
"243 320 LINE",
"390 422 LINE",
"396 428 OFFCURVE",
"369 456 QCURVE",
"243 369 LINE",
"243 521 LINE SMOOTH",
"243 574 OFFCURVE",
"250 601 QCURVE SMOOTH",
"252 608 OFFCURVE",
"306 625 OFFCURVE",
"315 625 QCURVE SMOOTH",
"319 625 OFFCURVE",
"319 644 QCURVE SMOOTH",
"319 653 OFFCURVE",
"316 662 QCURVE",
"196 656 OFFCURVE",
"176 656 QCURVE SMOOTH"
);
}
);
};
components = (
{
name = L;
},
{
name = slashshortcomb.case;
transform = "{1, 0, 0, 1, -21, 17}";
}
);
layerId = "E2E62ECD-1E64-44AC-9B50-C09427155398";
width = 573;
}
);
widthMetricsKey = L;
note = Lslash;
rightMetricsKey = L;
unicode = 0141;
},
{
color = 3;
glyphname = M;
lastChange = "2019-01-09 09:50:07 +0000";
layers = (
{
anchors = (
{
name = bottom;
position = "{449, 0}";
},
{
name = top;
position = "{449, 658}";
}
);
background = {
paths = (
{
closed = 1;
nodes = (
"138 657 OFFCURVE",
"104 659 OFFCURVE",
"63 661 OFFCURVE",
"46 662 QCURVE",
"42 658 OFFCURVE",
"42 647 QCURVE SMOOTH",
"42 633 OFFCURVE",
"46 633 QCURVE SMOOTH",
"60 633 OFFCURVE",
"122 620 OFFCURVE",
"125 612 QCURVE",
"129 597 OFFCURVE",
"129 572 QCURVE SMOOTH",
"129 556 OFFCURVE",
"125 441 OFFCURVE",
"120 239 OFFCURVE",
"118 135 QCURVE SMOOTH",
"116 66 OFFCURVE",
"100 48 QCURVE",
"91 39 OFFCURVE",
"36 26 OFFCURVE",
"22 26 QCURVE SMOOTH",
"17 26 OFFCURVE",
"17 12 QCURVE SMOOTH",
"17 2 OFFCURVE",
"22 -3 QCURVE",
"137 2 OFFCURVE",
"139 2 QCURVE SMOOTH",
"155 2 OFFCURVE",
"255 -3 QCURVE",
"257 3 OFFCURVE",
"257 11 QCURVE SMOOTH",
"257 26 OFFCURVE",
"253 26 QCURVE SMOOTH",
"243 26 OFFCURVE",
"182 41 OFFCURVE",
"170 57 OFFCURVE",
"170 75 QCURVE SMOOTH",
"170 77 OFFCURVE",
"176 238 OFFCURVE",
"184 486 OFFCURVE",
"186 582 QCURVE",
"415 0 LINE",
"421 -2 OFFCURVE",
"424 -2 QCURVE SMOOTH",
"442 -2 OFFCURVE",
"461 41 QCURVE SMOOTH",
"670 541 LINE SMOOTH",
"673 548 OFFCURVE",
"675 548 QCURVE SMOOTH",
"680 548 OFFCURVE",
"689 505 OFFCURVE",
"690 489 QCURVE SMOOTH",
"702 137 LINE",
"702 84 LINE SMOOTH",
"702 48 OFFCURVE",
"690 41 QCURVE SMOOTH",
"681 36 OFFCURVE",
"640 26 OFFCURVE",
"630 26 QCURVE SMOOTH",
"626 26 OFFCURVE",
"626 13 QCURVE SMOOTH",
"626 1 OFFCURVE",
"630 -3 QCURVE",
"745 2 OFFCURVE",
"750 2 QCURVE SMOOTH",
"769 2 OFFCURVE",
"869 -3 QCURVE",
"871 3 OFFCURVE",
"871 12 QCURVE SMOOTH",
"871 26 OFFCURVE",
"867 26 QCURVE SMOOTH",
"856 26 OFFCURVE",
"804 39 OFFCURVE",
"800 48 QCURVE",
"786 83 OFFCURVE",
"785 140 QCURVE SMOOTH",
"776 530 OFFCURVE",
"776 546 QCURVE SMOOTH",
"776 604 OFFCURVE",
"788 613 QCURVE SMOOTH",
"797 620 OFFCURVE",
"833 633 OFFCURVE",
"844 633 QCURVE SMOOTH",
"846 633 LINE SMOOTH",
"851 633 OFFCURVE",
"851 647 QCURVE SMOOTH",
"851 653 OFFCURVE",
"848 662 QCURVE",
"798 658 OFFCURVE",
"736 658 QCURVE SMOOTH",
"717 658 OFFCURVE",
"653 662 QCURVE",
"613 542 OFFCURVE",
"613 542 QCURVE",
"555 393 OFFCURVE",
"457 163 QCURVE",
"456 159 OFFCURVE",
"452 159 QCURVE SMOOTH",
"449 159 OFFCURVE",
"448 161 QCURVE",
"257 639 OFFCURVE",
"250 662 QCURVE",
"195 657 OFFCURVE",
"158 657 QCURVE SMOOTH"
);
}
);
};
layerId = "0276F023-BC64-4582-8657-390FE5DB601E";
paths = (
{
closed = 1;
nodes = (
"72 0 OFFCURVE",
"121 2 OFFCURVE",
"142 2 CURVE SMOOTH",
"157 2 OFFCURVE",
"191 0 OFFCURVE",
"258 -3 CURVE",
"259 1 OFFCURVE",
"260 6 OFFCURVE",
"260 11 CURVE SMOOTH",
"260 21 OFFCURVE",
"259 26 OFFCURVE",
"256 26 CURVE SMOOTH",
"204 33 OFFCURVE",
"182 42 OFFCURVE",
"177 52 CURVE SMOOTH",
"173 60 OFFCURVE",
"173 79 OFFCURVE",
"174 102 CURVE SMOOTH",
"191 631 LINE",
"169 628 LINE",
"414 10 LINE SMOOTH",
"417 3 OFFCURVE",
"422 -2 OFFCURVE",
"427 -2 CURVE SMOOTH",
"439 -2 OFFCURVE",
"448 3 OFFCURVE",
"457 24 CURVE SMOOTH",
"702 613 LINE",
"678 598 LINE",
"685 578 OFFCURVE",
"691 540 OFFCURVE",
"692 519 CURVE SMOOTH",
"705 124 LINE SMOOTH",
"707 60 OFFCURVE",
"701 46 OFFCURVE",
"693 41 CURVE SMOOTH",
"681 34 OFFCURVE",
"646 26 OFFCURVE",
"633 26 CURVE SMOOTH",
"630 26 OFFCURVE",
"629 22 OFFCURVE",
"629 13 CURVE SMOOTH",
"629 5 OFFCURVE",
"630 0 OFFCURVE",
"633 -3 CURVE",
"710 0 OFFCURVE",
"750 2 OFFCURVE",
"753 2 CURVE SMOOTH",
"766 2 OFFCURVE",
"805 0 OFFCURVE",
"872 -3 CURVE",
"873 1 OFFCURVE",
"874 6 OFFCURVE",
"874 12 CURVE SMOOTH",
"874 21 OFFCURVE",
"873 26 OFFCURVE",
"870 26 CURVE SMOOTH",
"855 26 OFFCURVE",
"808 36 OFFCURVE",
"803 48 CURVE",
"794 71 OFFCURVE",
"789 102 OFFCURVE",
"788 140 CURVE SMOOTH",
"779 546 LINE SMOOTH",
"778 585 OFFCURVE",
"783 607 OFFCURVE",
"791 613 CURVE SMOOTH",
"801 621 OFFCURVE",
"830 633 OFFCURVE",
"849 633 CURVE SMOOTH",
"852 633 OFFCURVE",
"854 638 OFFCURVE",
"854 647 CURVE SMOOTH",
"854 651 OFFCURVE",
"853 656 OFFCURVE",
"851 662 CURVE",
"818 659 OFFCURVE",
"780 658 OFFCURVE",
"739 658 CURVE SMOOTH",
"726 658 OFFCURVE",
"701 659 OFFCURVE",
"658 662 CURVE",
"642 610 OFFCURVE",
"631 578 OFFCURVE",
"616 542 CURVE SMOOTH",
"461 163 LINE",
"460 160 OFFCURVE",
"458 159 OFFCURVE",
"455 159 CURVE SMOOTH",
"453 159 OFFCURVE",
"451 161 OFFCURVE",
"449 166 CURVE SMOOTH",
"302 536 LINE SMOOTH",
"276 601 OFFCURVE",
"260 645 OFFCURVE",
"253 662 CURVE",
"216 659 OFFCURVE",
"186 657 OFFCURVE",
"161 657 CURVE SMOOTH",
"140 657 OFFCURVE",
"69 661 OFFCURVE",
"49 662 CURVE",
"46 659 OFFCURVE",
"45 654 OFFCURVE",
"45 647 CURVE SMOOTH",
"45 638 OFFCURVE",
"46 633 OFFCURVE",
"49 633 CURVE SMOOTH",
"68 633 OFFCURVE",
"124 623 OFFCURVE",
"128 612 CURVE",
"131 602 OFFCURVE",
"132 589 OFFCURVE",
"132 572 CURVE SMOOTH",
"132 549 OFFCURVE",
"128 440 OFFCURVE",
"126 340 CURVE SMOOTH",
"124 273 OFFCURVE",
"122 204 OFFCURVE",
"121 135 CURVE SMOOTH",
"120 89 OFFCURVE",
"114 60 OFFCURVE",
"103 48 CURVE",
"91 36 OFFCURVE",
"44 26 OFFCURVE",
"25 26 CURVE SMOOTH",
"22 26 OFFCURVE",
"20 21 OFFCURVE",
"20 12 CURVE SMOOTH",
"20 5 OFFCURVE",
"22 0 OFFCURVE",
"25 -3 CURVE"
);
}
);
width = 912;
},
{
anchors = (
{
name = bottom;
position = "{426, 0}";
},
{
name = top;
position = "{426, 658}";
}
);
background = {
paths = (
{
closed = 1;
nodes = (
"126 656 OFFCURVE",
"51 661 OFFCURVE",
"37 662 QCURVE",
"33 658 OFFCURVE",
"33 647 QCURVE SMOOTH",
"33 626 OFFCURVE",
"37 626 QCURVE SMOOTH",
"50 626 OFFCURVE",
"108 613 OFFCURVE",
"111 605 QCURVE",
"114 598 OFFCURVE",
"114 587 QCURVE",
"113 574 OFFCURVE",
"107 386 OFFCURVE",
"99 183 OFFCURVE",
"96 131 QCURVE SMOOTH",
"94 106 OFFCURVE",
"92 83 QCURVE SMOOTH",
"90 62 OFFCURVE",
"9 32 OFFCURVE",
"-9 32 QCURVE SMOOTH",
"-12 32 OFFCURVE",
"-12 13 QCURVE SMOOTH",
"-12 0 OFFCURVE",
"-8 -4 QCURVE",
"8 -3 OFFCURVE",
"100 4 OFFCURVE",
"152 4 OFFCURVE",
"256 -4 OFFCURVE",
"264 -4 QCURVE",
"266 2 OFFCURVE",
"266 13 QCURVE SMOOTH",
"266 33 OFFCURVE",
"262 33 QCURVE SMOOTH",
"249 33 OFFCURVE",
"167 60 OFFCURVE",
"164 73 QCURVE",
"163 80 OFFCURVE",
"163 109 QCURVE",
"180 494 LINE",
"400 0 LINE",
"406 -2 OFFCURVE",
"409 -2 QCURVE SMOOTH",
"421 -2 OFFCURVE",
"445 21 OFFCURVE",
"449 31 QCURVE SMOOTH",
"622 462 LINE SMOOTH",
"625 469 OFFCURVE",
"627 469 QCURVE SMOOTH",
"631 469 OFFCURVE",
"635 402 QCURVE SMOOTH",
"643 148 LINE SMOOTH",
"645 112 OFFCURVE",
"645 89 QCURVE SMOOTH",
"645 76 OFFCURVE",
"637 61 QCURVE SMOOTH",
"632 51 OFFCURVE",
"586 33 OFFCURVE",
"575 33 QCURVE SMOOTH",
"572 33 OFFCURVE",
"572 12 QCURVE SMOOTH",
"572 1 OFFCURVE",
"577 -4 QCURVE",
"591 -3 OFFCURVE",
"695 4 OFFCURVE",
"722 4 QCURVE SMOOTH",
"748 4 OFFCURVE",
"838 -3 OFFCURVE",
"849 -4 QCURVE",
"851 2 OFFCURVE",
"851 13 QCURVE SMOOTH",
"851 33 OFFCURVE",
"847 33 QCURVE SMOOTH",
"838 33 OFFCURVE",
"793 51 OFFCURVE",
"789 60 QCURVE",
"777 91 OFFCURVE",
"774 152 QCURVE SMOOTH",
"772 198 OFFCURVE",
"756 532 OFFCURVE",
"754 572 QCURVE SMOOTH",
"753 602 OFFCURVE",
"768 613 QCURVE SMOOTH",
"785 625 OFFCURVE",
"810 625 QCURVE SMOOTH",
"811 625 LINE SMOOTH",
"816 625 OFFCURVE",
"816 646 QCURVE SMOOTH",
"816 656 OFFCURVE",
"812 662 QCURVE",
"692 656 OFFCURVE",
"686 656 QCURVE SMOOTH",
"623 656 OFFCURVE",
"605 658 QCURVE",
"572 546 LINE",
"527 422 OFFCURVE",
"450 231 QCURVE",
"450 230 OFFCURVE",
"448 230 QCURVE SMOOTH",
"446 230 LINE",
"411 317 OFFCURVE",
"267 630 OFFCURVE",
"257 662 QCURVE",
"245 661 OFFCURVE",
"172 656 OFFCURVE",
"152 656 QCURVE SMOOTH"
);
}
);
};
layerId = "E2E62ECD-1E64-44AC-9B50-C09427155398";
paths = (
{
closed = 1;
nodes = (
"60 0 OFFCURVE",
"88 4 OFFCURVE",
"126 4 CURVE SMOOTH",
"140 4 OFFCURVE",
"182 4 OFFCURVE",
"269 -4 CURVE",
"270 0 OFFCURVE",
"271 6 OFFCURVE",
"271 13 CURVE SMOOTH",
"271 26 OFFCURVE",
"270 33 OFFCURVE",
"267 33 CURVE SMOOTH",
"250 33 OFFCURVE",
"173 56 OFFCURVE",
"169 73 CURVE",
"168 78 OFFCURVE",
"168 90 OFFCURVE",
"168 109 CURVE",
"185 539 LINE",
"167 535 LINE",
"396 20 LINE SMOOTH",
"403 4 OFFCURVE",
"411 -2 OFFCURVE",
"420 -2 CURVE SMOOTH",
"432 -2 OFFCURVE",
"443 4 OFFCURVE",
"454 31 CURVE SMOOTH",
"661 554 LINE",
"627 509 LINE",
"630 499 OFFCURVE",
"638 477 OFFCURVE",
"639 432 CURVE",
"650 109 LINE SMOOTH",
"651 80 OFFCURVE",
"647 71 OFFCURVE",
"642 61 CURVE SMOOTH",
"635 48 OFFCURVE",
"595 33 OFFCURVE",
"580 33 CURVE SMOOTH",
"578 33 OFFCURVE",
"577 26 OFFCURVE",
"577 12 CURVE SMOOTH",
"577 5 OFFCURVE",
"579 -1 OFFCURVE",
"582 -4 CURVE",
"611 0 OFFCURVE",
"688 4 OFFCURVE",
"724 4 CURVE SMOOTH",
"759 4 OFFCURVE",
"839 -3 OFFCURVE",
"854 -4 CURVE",
"855 0 OFFCURVE",
"856 6 OFFCURVE",
"856 13 CURVE SMOOTH",
"856 26 OFFCURVE",
"855 33 OFFCURVE",
"852 33 CURVE SMOOTH",
"840 33 OFFCURVE",
"799 48 OFFCURVE",
"794 60 CURVE",
"786 81 OFFCURVE",
"781 111 OFFCURVE",
"779 152 CURVE SMOOTH",
"759 572 LINE SMOOTH",
"758 592 OFFCURVE",
"763 606 OFFCURVE",
"773 613 CURVE SMOOTH",
"784 621 OFFCURVE",
"798 625 OFFCURVE",
"816 625 CURVE SMOOTH",
"819 625 OFFCURVE",
"821 632 OFFCURVE",
"821 646 CURVE SMOOTH",
"821 653 OFFCURVE",
"820 658 OFFCURVE",
"817 662 CURVE",
"767 657 OFFCURVE",
"715 656 OFFCURVE",
"691 656 CURVE SMOOTH",
"649 656 OFFCURVE",
"622 657 OFFCURVE",
"610 658 CURVE",
"601 621 OFFCURVE",
"581 554 OFFCURVE",
"567 517 CURVE SMOOTH",
"457 236 LINE",
"456 233 OFFCURVE",
"455 231 OFFCURVE",
"453 231 CURVE SMOOTH",
"451 231 OFFCURVE",
"449 234 OFFCURVE",
"445 244 CURVE SMOOTH",
"321 524 LINE SMOOTH",
"297 579 OFFCURVE",
"270 641 OFFCURVE",
"263 662 CURVE",
"237 659 OFFCURVE",
"174 656 OFFCURVE",
"157 656 CURVE SMOOTH",
"132 656 OFFCURVE",
"71 660 OFFCURVE",
"42 662 CURVE",
"39 659 OFFCURVE",
"38 654 OFFCURVE",
"38 647 CURVE SMOOTH",
"38 633 OFFCURVE",
"39 626 OFFCURVE",
"42 626 CURVE SMOOTH",
"59 626 OFFCURVE",
"112 616 OFFCURVE",
"116 605 CURVE",
"118 600 OFFCURVE",
"119 594 OFFCURVE",
"118 557 CURVE SMOOTH",
"117 522 OFFCURVE",
"113 410 OFFCURVE",
"108 285 CURVE SMOOTH",
"105 218 OFFCURVE",
"103 159 OFFCURVE",
"98 97 CURVE SMOOTH",
"97 78 OFFCURVE",
"92 70 OFFCURVE",
"82 60 CURVE",
"60 45 OFFCURVE",
"14 32 OFFCURVE",
"-4 32 CURVE SMOOTH",
"-6 32 OFFCURVE",
"-7 26 OFFCURVE",
"-7 13 CURVE SMOOTH",
"-7 4 OFFCURVE",
"-6 -1 OFFCURVE",
"-3 -4 CURVE"
);
}
);
width = 884;
}
);
note = M;
unicode = 004D;
},
{
color = 3;
glyphname = N;
lastChange = "2018-12-07 12:02:24 +0000";
layers = (
{
anchors = (
{
name = bottom;
position = "{367, 0}";
},
{
name = top;
position = "{367, 658}";
}
);
background = {
paths = (
{
closed = 1;
nodes = (
"554 213 LINE SMOOTH",
"554 189 OFFCURVE",
"551 172 QCURVE",
"249 594 OFFCURVE",
"212 662 QCURVE",
"184 660 OFFCURVE",
"132 660 QCURVE SMOOTH",
"108 660 OFFCURVE",
"30 662 QCURVE",
"26 658 OFFCURVE",
"26 633 OFFCURVE",
"30 633 QCURVE SMOOTH",
"44 633 OFFCURVE",
"106 620 OFFCURVE",
"109 612 QCURVE",
"116 586 OFFCURVE",
"116 537 QCURVE SMOOTH",
"116 144 LINE SMOOTH",
"116 76 OFFCURVE",
"106 50 QCURVE",
"103 41 OFFCURVE",
"40 26 OFFCURVE",
"26 26 QCURVE SMOOTH",
"23 26 OFFCURVE",
"23 12 QCURVE SMOOTH",
"23 0 OFFCURVE",
"26 -3 QCURVE",
"141 2 LINE",
"156 2 OFFCURVE",
"256 -3 QCURVE",
"258 2 OFFCURVE",
"257 26 OFFCURVE",
"254 26 QCURVE SMOOTH",
"244 26 OFFCURVE",
"181 41 OFFCURVE",
"179 48 QCURVE SMOOTH",
"172 75 OFFCURVE",
"172 141 QCURVE SMOOTH",
"172 568 LINE",
"560 18 LINE SMOOTH",
"576 -5 OFFCURVE",
"593 -5 QCURVE SMOOTH",
"608 -5 OFFCURVE",
"612 -1 QCURVE",
"609 77 OFFCURVE",
"609 139 QCURVE SMOOTH",
"609 519 LINE SMOOTH",
"609 581 OFFCURVE",
"617 612 QCURVE SMOOTH",
"619 619 OFFCURVE",
"686 635 OFFCURVE",
"696 635 QCURVE SMOOTH",
"700 635 OFFCURVE",
"700 647 QCURVE SMOOTH",
"700 656 OFFCURVE",
"698 662 QCURVE",
"691 662 OFFCURVE",
"612 656 OFFCURVE",
"586 656 QCURVE SMOOTH",
"559 656 OFFCURVE",
"481 661 OFFCURVE",
"468 662 QCURVE",
"464 658 OFFCURVE",
"464 635 OFFCURVE",
"468 635 QCURVE SMOOTH",
"481 635 OFFCURVE",
"544 620 OFFCURVE",
"547 612 QCURVE",
"554 585 OFFCURVE",
"554 524 QCURVE SMOOTH"
);
}
);
};
layerId = "0276F023-BC64-4582-8657-390FE5DB601E";
paths = (
{
closed = 1;
nodes = (
"606 -5 OFFCURVE",
"612 -4 OFFCURVE",
"615 -1 CURVE",
"613 51 OFFCURVE",
"612 98 OFFCURVE",
"612 139 CURVE SMOOTH",
"612 519 LINE SMOOTH",
"612 560 OFFCURVE",
"615 591 OFFCURVE",
"620 612 CURVE SMOOTH",
"622 621 OFFCURVE",
"686 635 OFFCURVE",
"699 635 CURVE SMOOTH",
"702 635 OFFCURVE",
"703 639 OFFCURVE",
"703 647 CURVE SMOOTH",
"703 653 OFFCURVE",
"702 658 OFFCURVE",
"701 662 CURVE",
"671 660 OFFCURVE",
"609 656 OFFCURVE",
"589 656 CURVE SMOOTH",
"553 656 OFFCURVE",
"488 661 OFFCURVE",
"471 662 CURVE",
"468 659 OFFCURVE",
"467 654 OFFCURVE",
"467 647 CURVE SMOOTH",
"467 639 OFFCURVE",
"468 635 OFFCURVE",
"471 635 CURVE SMOOTH",
"488 635 OFFCURVE",
"546 623 OFFCURVE",
"550 612 CURVE",
"555 594 OFFCURVE",
"557 565 OFFCURVE",
"557 524 CURVE SMOOTH",
"557 213 LINE SMOOTH",
"557 185 OFFCURVE",
"554 165 OFFCURVE",
"551 151 CURVE",
"585 128 LINE",
"280 560 LINE SMOOTH",
"243 613 OFFCURVE",
"224 646 OFFCURVE",
"215 662 CURVE",
"196 661 OFFCURVE",
"170 660 OFFCURVE",
"135 660 CURVE SMOOTH",
"119 660 OFFCURVE",
"85 661 OFFCURVE",
"33 662 CURVE",
"30 659 OFFCURVE",
"29 654 OFFCURVE",
"29 646 CURVE SMOOTH",
"29 637 OFFCURVE",
"30 633 OFFCURVE",
"33 633 CURVE SMOOTH",
"52 633 OFFCURVE",
"108 623 OFFCURVE",
"112 612 CURVE",
"117 595 OFFCURVE",
"119 570 OFFCURVE",
"119 537 CURVE SMOOTH",
"119 144 LINE SMOOTH",
"119 99 OFFCURVE",
"115 67 OFFCURVE",
"109 50 CURVE SMOOTH",
"105 38 OFFCURVE",
"48 26 OFFCURVE",
"29 26 CURVE SMOOTH",
"27 26 OFFCURVE",
"26 21 OFFCURVE",
"26 12 CURVE SMOOTH",
"26 4 OFFCURVE",
"27 -1 OFFCURVE",
"29 -3 CURVE",
"67 -1 OFFCURVE",
"106 2 OFFCURVE",
"141 2 CURVE SMOOTH",
"154 2 OFFCURVE",
"192 0 OFFCURVE",
"259 -3 CURVE",
"260 0 OFFCURVE",
"261 5 OFFCURVE",
"261 10 CURVE SMOOTH",
"261 18 OFFCURVE",
"259 26 OFFCURVE",
"257 26 CURVE SMOOTH",
"244 26 OFFCURVE",
"185 39 OFFCURVE",
"182 48 CURVE SMOOTH",
"176 66 OFFCURVE",
"175 97 OFFCURVE",
"175 141 CURVE SMOOTH",
"175 613 LINE",
"149 605 LINE",
"563 18 LINE SMOOTH",
"574 3 OFFCURVE",
"585 -5 OFFCURVE",
"596 -5 CURVE SMOOTH"
);
}
);
width = 731;
},
{
anchors = (
{
name = bottom;
position = "{373, 0}";
},
{
name = top;
position = "{373, 658}";
}
);
background = {
paths = (
{
closed = 1;
nodes = (
"564 289 LINE SMOOTH",
"564 255 OFFCURVE",
"562 248 QCURVE",
"516 309 OFFCURVE",
"360 499 OFFCURVE",
"261 628 OFFCURVE",
"244 662 QCURVE",
"180 654 OFFCURVE",
"146 654 QCURVE SMOOTH",
"120 654 OFFCURVE",
"25 661 OFFCURVE",
"9 662 QCURVE",
"5 658 OFFCURVE",
"7 625 OFFCURVE",
"11 625 QCURVE SMOOTH",
"25 625 OFFCURVE",
"85 615 OFFCURVE",
"90 608 QCURVE",
"105 589 OFFCURVE",
"105 537 QCURVE SMOOTH",
"105 144 LINE SMOOTH",
"105 87 OFFCURVE",
"95 71 QCURVE SMOOTH",
"86 56 OFFCURVE",
"46 37 OFFCURVE",
"20 33 OFFCURVE",
"10 33 QCURVE SMOOTH",
"7 33 OFFCURVE",
"7 14 QCURVE SMOOTH",
"7 -1 OFFCURVE",
"10 -4 QCURVE",
"28 -3 OFFCURVE",
"108 4 OFFCURVE",
"160 4 OFFCURVE",
"260 -4 OFFCURVE",
"269 -4 QCURVE",
"271 0 OFFCURVE",
"270 34 OFFCURVE",
"267 34 QCURVE SMOOTH",
"252 34 OFFCURVE",
"186 53 OFFCURVE",
"177 70 QCURVE SMOOTH",
"169 86 OFFCURVE",
"169 141 QCURVE SMOOTH",
"169 524 LINE",
"576 18 LINE SMOOTH",
"595 -5 OFFCURVE",
"607 -5 QCURVE SMOOTH",
"628 -5 OFFCURVE",
"632 -1 QCURVE",
"628 103 OFFCURVE",
"628 139 QCURVE SMOOTH",
"628 519 LINE SMOOTH",
"628 575 OFFCURVE",
"642 592 QCURVE SMOOTH",
"670 625 OFFCURVE",
"725 625 QCURVE SMOOTH",
"730 625 OFFCURVE",
"730 644 QCURVE SMOOTH",
"730 654 OFFCURVE",
"726 662 QCURVE",
"714 661 OFFCURVE",
"627 654 OFFCURVE",
"602 654 QCURVE SMOOTH",
"562 654 OFFCURVE",
"470 662 QCURVE",
"467 658 OFFCURVE",
"469 625 OFFCURVE",
"473 625 QCURVE SMOOTH",
"485 625 OFFCURVE",
"542 607 OFFCURVE",
"551 596 QCURVE SMOOTH",
"564 581 OFFCURVE",
"564 524 QCURVE SMOOTH"
);
}
);
};
layerId = "E2E62ECD-1E64-44AC-9B50-C09427155398";
paths = (
{
closed = 1;
nodes = (
"626 -5 OFFCURVE",
"634 -4 OFFCURVE",
"637 -1 CURVE",
"634 68 OFFCURVE",
"633 115 OFFCURVE",
"633 139 CURVE SMOOTH",
"633 519 LINE SMOOTH",
"633 556 OFFCURVE",
"638 581 OFFCURVE",
"647 592 CURVE SMOOTH",
"666 614 OFFCURVE",
"693 625 OFFCURVE",
"730 625 CURVE SMOOTH",
"733 625 OFFCURVE",
"735 631 OFFCURVE",
"735 644 CURVE SMOOTH",
"735 651 OFFCURVE",
"734 657 OFFCURVE",
"731 662 CURVE",
"715 661 OFFCURVE",
"640 654 OFFCURVE",
"607 654 CURVE SMOOTH",
"580 654 OFFCURVE",
"536 657 OFFCURVE",
"475 662 CURVE",
"473 660 OFFCURVE",
"473 654 OFFCURVE",
"473 648 CURVE SMOOTH",
"473 637 OFFCURVE",
"475 625 OFFCURVE",
"478 625 CURVE SMOOTH",
"494 625 OFFCURVE",
"544 611 OFFCURVE",
"556 596 CURVE SMOOTH",
"565 586 OFFCURVE",
"569 562 OFFCURVE",
"569 524 CURVE SMOOTH",
"569 289 LINE SMOOTH",
"569 250 OFFCURVE",
"566 238 OFFCURVE",
"564 226 CURVE",
"596 212 LINE",
"315 564 LINE SMOOTH",
"281 606 OFFCURVE",
"260 639 OFFCURVE",
"249 662 CURVE",
"206 657 OFFCURVE",
"167 654 OFFCURVE",
"144 654 CURVE SMOOTH",
"121 654 OFFCURVE",
"39 660 OFFCURVE",
"14 662 CURVE",
"12 660 OFFCURVE",
"11 653 OFFCURVE",
"11 646 CURVE SMOOTH",
"11 636 OFFCURVE",
"13 625 OFFCURVE",
"16 625 CURVE SMOOTH",
"35 625 OFFCURVE",
"88 617 OFFCURVE",
"95 608 CURVE",
"105 595 OFFCURVE",
"110 572 OFFCURVE",
"110 537 CURVE SMOOTH",
"110 144 LINE SMOOTH",
"110 106 OFFCURVE",
"107 82 OFFCURVE",
"100 71 CURVE SMOOTH",
"83 42 OFFCURVE",
"35 33 OFFCURVE",
"15 33 CURVE SMOOTH",
"13 33 OFFCURVE",
"12 27 OFFCURVE",
"12 14 CURVE SMOOTH",
"12 4 OFFCURVE",
"13 -2 OFFCURVE",
"15 -4 CURVE",
"71 -1 OFFCURVE",
"102 4 OFFCURVE",
"138 4 CURVE SMOOTH",
"169 4 OFFCURVE",
"198 0 OFFCURVE",
"274 -4 CURVE",
"275 -2 OFFCURVE",
"276 5 OFFCURVE",
"276 12 CURVE SMOOTH",
"276 22 OFFCURVE",
"274 34 OFFCURVE",
"272 34 CURVE SMOOTH",
"252 34 OFFCURVE",
"194 47 OFFCURVE",
"182 70 CURVE SMOOTH",
"177 81 OFFCURVE",
"174 104 OFFCURVE",
"174 141 CURVE SMOOTH",
"174 569 LINE",
"146 559 LINE",
"581 18 LINE SMOOTH",
"594 3 OFFCURVE",
"604 -5 OFFCURVE",
"612 -5 CURVE SMOOTH"
);
}
);
width = 743;
}
);
note = N;
unicode = 004E;
},
{
color = 3;
glyphname = Eng;
lastChange = "2018-12-23 21:00:50 +0000";
layers = (
{
background = {
paths = (
{
closed = 1;
nodes = (
"533 -227 OFFCURVE",
"612 -101 OFFCURVE",
"612 91 CURVE SMOOTH",
"612 519 LINE SMOOTH",
"612 560 OFFCURVE",
"615 591 OFFCURVE",
"620 612 CURVE SMOOTH",
"622 621 OFFCURVE",
"686 635 OFFCURVE",
"699 635 CURVE SMOOTH",
"702 635 OFFCURVE",
"703 639 OFFCURVE",
"703 647 CURVE SMOOTH",
"703 653 OFFCURVE",
"702 658 OFFCURVE",
"701 662 CURVE",
"671 660 OFFCURVE",
"609 656 OFFCURVE",
"589 656 CURVE SMOOTH",
"553 656 OFFCURVE",
"488 661 OFFCURVE",
"471 662 CURVE",
"468 659 OFFCURVE",
"467 654 OFFCURVE",
"467 647 CURVE SMOOTH",
"467 639 OFFCURVE",
"468 635 OFFCURVE",
"471 635 CURVE SMOOTH",
"488 635 OFFCURVE",
"546 623 OFFCURVE",
"550 612 CURVE",
"555 594 OFFCURVE",
"557 565 OFFCURVE",
"557 524 CURVE SMOOTH",
"557 213 LINE SMOOTH",
"557 185 OFFCURVE",
"554 165 OFFCURVE",
"551 151 CURVE",
"585 128 LINE",
"280 560 LINE SMOOTH",
"243 613 OFFCURVE",
"224 646 OFFCURVE",
"215 662 CURVE",
"196 661 OFFCURVE",
"170 660 OFFCURVE",
"135 660 CURVE SMOOTH",
"119 660 OFFCURVE",
"85 661 OFFCURVE",
"33 662 CURVE",
"30 659 OFFCURVE",
"29 654 OFFCURVE",
"29 646 CURVE SMOOTH",
"29 637 OFFCURVE",
"30 633 OFFCURVE",
"33 633 CURVE SMOOTH",
"52 633 OFFCURVE",
"108 623 OFFCURVE",
"112 612 CURVE",
"117 595 OFFCURVE",
"119 570 OFFCURVE",
"119 537 CURVE SMOOTH",
"119 144 LINE SMOOTH",
"119 99 OFFCURVE",
"115 67 OFFCURVE",
"109 50 CURVE SMOOTH",
"105 38 OFFCURVE",
"48 26 OFFCURVE",
"29 26 CURVE SMOOTH",
"27 26 OFFCURVE",
"26 21 OFFCURVE",
"26 12 CURVE SMOOTH",
"26 4 OFFCURVE",
"27 -1 OFFCURVE",
"29 -3 CURVE",
"67 -1 OFFCURVE",
"106 2 OFFCURVE",
"141 2 CURVE SMOOTH",
"154 2 OFFCURVE",
"192 0 OFFCURVE",
"259 -3 CURVE",
"260 0 OFFCURVE",
"261 5 OFFCURVE",
"261 10 CURVE SMOOTH",
"261 18 OFFCURVE",
"259 26 OFFCURVE",
"257 26 CURVE SMOOTH",
"244 26 OFFCURVE",
"185 39 OFFCURVE",
"182 48 CURVE SMOOTH",
"176 66 OFFCURVE",
"175 97 OFFCURVE",
"175 141 CURVE SMOOTH",
"175 613 LINE",
"149 605 LINE",
"573 4 LINE",
"558 72 LINE",
"558 47 LINE SMOOTH",
"558 -21 OFFCURVE",
"528 -167 OFFCURVE",
"467 -167 CURVE SMOOTH",
"458 -167 OFFCURVE",
"449 -160 OFFCURVE",
"434 -146 CURVE SMOOTH",
"418 -131 OFFCURVE",
"399 -124 OFFCURVE",
"386 -124 CURVE SMOOTH",
"354 -124 OFFCURVE",
"331 -144 OFFCURVE",
"331 -172 CURVE SMOOTH",
"331 -206 OFFCURVE",
"359 -227 OFFCURVE",
"415 -227 CURVE SMOOTH"
);
}
);
};
layerId = "0276F023-BC64-4582-8657-390FE5DB601E";
paths = (
{
closed = 1;
nodes = (
"533 -227 OFFCURVE",
"612 -101 OFFCURVE",
"612 91 CURVE SMOOTH",
"612 519 LINE SMOOTH",
"612 560 OFFCURVE",
"615 591 OFFCURVE",
"620 612 CURVE SMOOTH",
"622 621 OFFCURVE",
"686 635 OFFCURVE",
"699 635 CURVE SMOOTH",
"702 635 OFFCURVE",
"703 639 OFFCURVE",
"703 647 CURVE SMOOTH",
"703 653 OFFCURVE",
"702 658 OFFCURVE",
"701 662 CURVE",
"671 660 OFFCURVE",
"609 656 OFFCURVE",
"589 656 CURVE SMOOTH",
"553 656 OFFCURVE",
"488 661 OFFCURVE",
"471 662 CURVE",
"468 659 OFFCURVE",
"467 654 OFFCURVE",
"467 647 CURVE SMOOTH",
"467 639 OFFCURVE",
"468 635 OFFCURVE",
"471 635 CURVE SMOOTH",
"488 635 OFFCURVE",
"546 623 OFFCURVE",
"550 612 CURVE",
"555 594 OFFCURVE",
"557 565 OFFCURVE",
"557 524 CURVE SMOOTH",
"557 213 LINE SMOOTH",
"557 185 OFFCURVE",
"554 165 OFFCURVE",
"551 151 CURVE",
"585 128 LINE",
"280 560 LINE SMOOTH",
"243 613 OFFCURVE",
"224 646 OFFCURVE",
"215 662 CURVE",
"196 661 OFFCURVE",
"170 660 OFFCURVE",
"135 660 CURVE SMOOTH",
"119 660 OFFCURVE",
"85 661 OFFCURVE",
"33 662 CURVE",
"30 659 OFFCURVE",
"29 654 OFFCURVE",
"29 646 CURVE SMOOTH",
"29 637 OFFCURVE",
"30 633 OFFCURVE",
"33 633 CURVE SMOOTH",
"52 633 OFFCURVE",
"108 623 OFFCURVE",
"112 612 CURVE",
"117 595 OFFCURVE",
"119 570 OFFCURVE",
"119 537 CURVE SMOOTH",
"119 144 LINE SMOOTH",
"119 99 OFFCURVE",
"115 67 OFFCURVE",
"109 50 CURVE SMOOTH",
"105 38 OFFCURVE",
"48 26 OFFCURVE",
"29 26 CURVE SMOOTH",
"27 26 OFFCURVE",
"26 21 OFFCURVE",
"26 12 CURVE SMOOTH",
"26 4 OFFCURVE",
"27 -1 OFFCURVE",
"29 -3 CURVE",
"67 -1 OFFCURVE",
"106 2 OFFCURVE",
"141 2 CURVE SMOOTH",
"154 2 OFFCURVE",
"192 0 OFFCURVE",
"259 -3 CURVE",
"260 0 OFFCURVE",
"261 5 OFFCURVE",
"261 10 CURVE SMOOTH",
"261 18 OFFCURVE",
"259 26 OFFCURVE",
"257 26 CURVE SMOOTH",
"244 26 OFFCURVE",
"185 39 OFFCURVE",
"182 48 CURVE SMOOTH",
"176 66 OFFCURVE",
"175 97 OFFCURVE",
"175 141 CURVE SMOOTH",
"175 613 LINE",
"149 605 LINE",
"573 4 LINE",
"558 72 LINE",
"558 47 LINE SMOOTH",
"558 -21 OFFCURVE",
"528 -167 OFFCURVE",
"467 -167 CURVE SMOOTH",
"445 -167 OFFCURVE",
"427 -124 OFFCURVE",
"386 -124 CURVE SMOOTH",
"354 -124 OFFCURVE",
"331 -144 OFFCURVE",
"331 -172 CURVE SMOOTH",
"331 -206 OFFCURVE",
"359 -227 OFFCURVE",
"415 -227 CURVE SMOOTH"
);
}
);
width = 731;
},
{
background = {
paths = (
{
closed = 1;
nodes = (
"523 -218 OFFCURVE",
"633 -104 OFFCURVE",
"633 143 CURVE SMOOTH",
"633 519 LINE SMOOTH",
"633 556 OFFCURVE",
"638 581 OFFCURVE",
"647 592 CURVE SMOOTH",
"665 614 OFFCURVE",
"693 625 OFFCURVE",
"730 625 CURVE SMOOTH",
"733 625 OFFCURVE",
"735 631 OFFCURVE",
"735 644 CURVE SMOOTH",
"735 651 OFFCURVE",
"734 657 OFFCURVE",
"731 662 CURVE",
"715 661 OFFCURVE",
"640 654 OFFCURVE",
"607 654 CURVE SMOOTH",
"580 654 OFFCURVE",
"536 657 OFFCURVE",
"475 662 CURVE",
"473 660 OFFCURVE",
"473 654 OFFCURVE",
"473 648 CURVE SMOOTH",
"473 637 OFFCURVE",
"475 625 OFFCURVE",
"478 625 CURVE SMOOTH",
"494 625 OFFCURVE",
"545 612 OFFCURVE",
"556 596 CURVE SMOOTH",
"564 585 OFFCURVE",
"569 562 OFFCURVE",
"569 524 CURVE SMOOTH",
"569 289 LINE SMOOTH",
"569 250 OFFCURVE",
"566 238 OFFCURVE",
"564 226 CURVE",
"596 212 LINE",
"315 564 LINE SMOOTH",
"281 606 OFFCURVE",
"260 639 OFFCURVE",
"249 662 CURVE",
"206 657 OFFCURVE",
"167 654 OFFCURVE",
"144 654 CURVE SMOOTH",
"121 654 OFFCURVE",
"39 660 OFFCURVE",
"14 662 CURVE",
"12 660 OFFCURVE",
"11 653 OFFCURVE",
"11 646 CURVE SMOOTH",
"11 636 OFFCURVE",
"13 625 OFFCURVE",
"16 625 CURVE SMOOTH",
"35 625 OFFCURVE",
"88 617 OFFCURVE",
"95 608 CURVE",
"105 595 OFFCURVE",
"110 572 OFFCURVE",
"110 537 CURVE SMOOTH",
"110 144 LINE SMOOTH",
"110 106 OFFCURVE",
"107 82 OFFCURVE",
"100 71 CURVE SMOOTH",
"82 43 OFFCURVE",
"35 33 OFFCURVE",
"15 33 CURVE SMOOTH",
"13 33 OFFCURVE",
"12 27 OFFCURVE",
"12 14 CURVE SMOOTH",
"12 4 OFFCURVE",
"13 -2 OFFCURVE",
"15 -4 CURVE",
"71 -1 OFFCURVE",
"102 4 OFFCURVE",
"138 4 CURVE SMOOTH",
"169 4 OFFCURVE",
"198 0 OFFCURVE",
"274 -4 CURVE",
"275 -2 OFFCURVE",
"276 5 OFFCURVE",
"276 12 CURVE SMOOTH",
"276 22 OFFCURVE",
"274 34 OFFCURVE",
"272 34 CURVE SMOOTH",
"252 34 OFFCURVE",
"194 47 OFFCURVE",
"182 70 CURVE SMOOTH",
"176 81 OFFCURVE",
"174 104 OFFCURVE",
"174 141 CURVE SMOOTH",
"174 569 LINE",
"146 559 LINE",
"581 18 LINE",
"567 176 LINE",
"567 115 LINE SMOOTH",
"567 -31 OFFCURVE",
"514 -148 OFFCURVE",
"456 -148 CURVE SMOOTH",
"442 -148 OFFCURVE",
"428 -138 OFFCURVE",
"410 -118 CURVE SMOOTH",
"391 -97 OFFCURVE",
"374 -87 OFFCURVE",
"358 -87 CURVE SMOOTH",
"325 -87 OFFCURVE",
"295 -115 OFFCURVE",
"295 -148 CURVE SMOOTH",
"295 -187 OFFCURVE",
"329 -218 OFFCURVE",
"387 -218 CURVE SMOOTH"
);
}
);
};
layerId = "E2E62ECD-1E64-44AC-9B50-C09427155398";
paths = (
{
closed = 1;
nodes = (
"523 -218 OFFCURVE",
"633 -104 OFFCURVE",
"633 143 CURVE SMOOTH",
"633 519 LINE SMOOTH",
"633 556 OFFCURVE",
"638 581 OFFCURVE",
"647 592 CURVE SMOOTH",
"665 614 OFFCURVE",
"693 625 OFFCURVE",
"730 625 CURVE SMOOTH",
"733 625 OFFCURVE",
"735 631 OFFCURVE",
"735 644 CURVE SMOOTH",
"735 651 OFFCURVE",
"734 657 OFFCURVE",
"731 662 CURVE",
"715 661 OFFCURVE",
"640 654 OFFCURVE",
"607 654 CURVE SMOOTH",
"580 654 OFFCURVE",
"536 657 OFFCURVE",
"475 662 CURVE",
"473 660 OFFCURVE",
"473 654 OFFCURVE",
"473 648 CURVE SMOOTH",
"473 637 OFFCURVE",
"475 625 OFFCURVE",
"478 625 CURVE SMOOTH",
"494 625 OFFCURVE",
"545 612 OFFCURVE",
"556 596 CURVE SMOOTH",
"564 585 OFFCURVE",
"569 562 OFFCURVE",
"569 524 CURVE SMOOTH",
"569 289 LINE SMOOTH",
"569 250 OFFCURVE",
"566 238 OFFCURVE",
"564 226 CURVE",
"596 212 LINE",
"315 564 LINE SMOOTH",
"281 606 OFFCURVE",
"260 639 OFFCURVE",
"249 662 CURVE",
"206 657 OFFCURVE",
"167 654 OFFCURVE",
"144 654 CURVE SMOOTH",
"121 654 OFFCURVE",
"39 660 OFFCURVE",
"14 662 CURVE",
"12 660 OFFCURVE",
"11 653 OFFCURVE",
"11 646 CURVE SMOOTH",
"11 636 OFFCURVE",
"13 625 OFFCURVE",
"16 625 CURVE SMOOTH",
"35 625 OFFCURVE",
"88 617 OFFCURVE",
"95 608 CURVE",
"105 595 OFFCURVE",
"110 572 OFFCURVE",
"110 537 CURVE SMOOTH",
"110 144 LINE SMOOTH",
"110 106 OFFCURVE",
"107 82 OFFCURVE",
"100 71 CURVE SMOOTH",
"82 43 OFFCURVE",
"35 33 OFFCURVE",
"15 33 CURVE SMOOTH",
"13 33 OFFCURVE",
"12 27 OFFCURVE",
"12 14 CURVE SMOOTH",
"12 4 OFFCURVE",
"13 -2 OFFCURVE",
"15 -4 CURVE",
"71 -1 OFFCURVE",
"102 4 OFFCURVE",
"138 4 CURVE SMOOTH",
"169 4 OFFCURVE",
"198 0 OFFCURVE",
"274 -4 CURVE",
"275 -2 OFFCURVE",
"276 5 OFFCURVE",
"276 12 CURVE SMOOTH",
"276 22 OFFCURVE",
"274 34 OFFCURVE",
"272 34 CURVE SMOOTH",
"252 34 OFFCURVE",
"194 47 OFFCURVE",
"182 70 CURVE SMOOTH",
"176 81 OFFCURVE",
"174 104 OFFCURVE",
"174 141 CURVE SMOOTH",
"174 569 LINE",
"146 559 LINE",
"581 18 LINE",
"567 176 LINE",
"567 115 LINE SMOOTH",
"567 -31 OFFCURVE",
"514 -148 OFFCURVE",
"456 -148 CURVE SMOOTH",
"422 -148 OFFCURVE",
"399 -87 OFFCURVE",
"358 -87 CURVE SMOOTH",
"325 -87 OFFCURVE",
"295 -115 OFFCURVE",
"295 -148 CURVE SMOOTH",
"295 -187 OFFCURVE",
"329 -218 OFFCURVE",
"387 -218 CURVE SMOOTH"
);
}
);
width = 743;
}
);
leftMetricsKey = N;
widthMetricsKey = N;
note = Eng;
unicode = 014A;
},
{
color = 3;
glyphname = O;
lastChange = "2018-11-27 13:19:50 +0000";
layers = (
{
anchors = (
{
name = bottom;
position = "{371, 0}";
},
{
name = center;
position = "{371, 329}";
},
{
name = ogonek;
position = "{662, 10}";
},
{
name = top;
position = "{371, 658}";
},
{
name = topleft;
position = "{27, 658}";
},
{
name = topright;
position = "{715, 658}";
}
);
background = {
paths = (
{
closed = 1;
nodes = (
"426 625 OFFCURVE",
"536 530 OFFCURVE",
"588 389 OFFCURVE",
"588 309 QCURVE SMOOTH",
"588 239 OFFCURVE",
"543 116 OFFCURVE",
"447 33 OFFCURVE",
"383 33 QCURVE SMOOTH",
"309 33 OFFCURVE",
"199 128 OFFCURVE",
"147 270 OFFCURVE",
"147 350 QCURVE SMOOTH",
"147 459 OFFCURVE",
"257 625 OFFCURVE",
"352 625 QCURVE SMOOTH"
);
},
{
closed = 1;
nodes = (
"499 -10 OFFCURVE",
"687 188 OFFCURVE",
"687 468 OFFCURVE",
"499 667 OFFCURVE",
"235 667 OFFCURVE",
"48 468 OFFCURVE",
"48 188 OFFCURVE",
"235 -10 OFFCURVE"
);
}
);
};
layerId = "0276F023-BC64-4582-8657-390FE5DB601E";
paths = (
{
closed = 1;
nodes = (
"552 -10 OFFCURVE",
"690 145 OFFCURVE",
"690 327 CURVE SMOOTH",
"690 515 OFFCURVE",
"546 667 OFFCURVE",
"368 667 CURVE SMOOTH",
"195 667 OFFCURVE",
"51 516 OFFCURVE",
"51 326 CURVE SMOOTH",
"51 142 OFFCURVE",
"194 -10 OFFCURVE",
"369 -10 CURVE SMOOTH"
);
},
{
closed = 1;
nodes = (
"239 33 OFFCURVE",
"150 181 OFFCURVE",
"150 350 CURVE SMOOTH",
"150 495 OFFCURVE",
"228 625 OFFCURVE",
"353 625 CURVE SMOOTH",
"501 625 OFFCURVE",
"591 478 OFFCURVE",
"591 309 CURVE SMOOTH",
"591 167 OFFCURVE",
"515 33 OFFCURVE",
"386 33 CURVE SMOOTH"
);
}
);
width = 741;
},
{
anchors = (
{
name = bottom;
position = "{368, 0}";
},
{
name = center;
position = "{368, 329}";
},
{
name = ogonek;
position = "{646, 10}";
},
{
name = top;
position = "{368, 658}";
},
{
name = topleft;
position = "{40, 658}";
},
{
name = topright;
position = "{695, 658}";
}
);
background = {
paths = (
{
closed = 1;
nodes = (
"464 611 OFFCURVE",
"527 498 OFFCURVE",
"527 311 CURVE SMOOTH",
"527 144 OFFCURVE",
"469 46 OFFCURVE",
"377 46 CURVE SMOOTH",
"270 46 OFFCURVE",
"196 166 OFFCURVE",
"196 356 CURVE SMOOTH",
"196 514 OFFCURVE",
"252 611 OFFCURVE",
"346 611 CURVE SMOOTH"
);
},
{
closed = 1;
nodes = (
"540 -10 OFFCURVE",
"683 140 OFFCURVE",
"683 328 CURVE SMOOTH",
"683 516 OFFCURVE",
"539 668 OFFCURVE",
"362 668 CURVE SMOOTH",
"184 668 OFFCURVE",
"40 516 OFFCURVE",
"40 328 CURVE SMOOTH",
"40 140 OFFCURVE",
"183 -10 OFFCURVE",
"362 -10 CURVE SMOOTH"
);
}
);
};
layerId = "E2E62ECD-1E64-44AC-9B50-C09427155398";
paths = (
{
closed = 1;
nodes = (
"545 -10 OFFCURVE",
"688 140 OFFCURVE",
"688 328 CURVE SMOOTH",
"688 516 OFFCURVE",
"544 668 OFFCURVE",
"367 668 CURVE SMOOTH",
"189 668 OFFCURVE",
"45 516 OFFCURVE",
"45 328 CURVE SMOOTH",
"45 140 OFFCURVE",
"188 -10 OFFCURVE",
"367 -10 CURVE SMOOTH"
);
},
{
closed = 1;
nodes = (
"270 46 OFFCURVE",
"201 187 OFFCURVE",
"201 349 CURVE SMOOTH",
"201 497 OFFCURVE",
"259 611 OFFCURVE",
"351 611 CURVE SMOOTH",
"462 611 OFFCURVE",
"532 471 OFFCURVE",
"532 310 CURVE SMOOTH",
"532 164 OFFCURVE",
"475 46 OFFCURVE",
"380 46 CURVE SMOOTH"
);
}
);
width = 733;
}
);
note = O;
unicode = 004F;
},
{
color = 3;
glyphname = Oslash;
lastChange = "2018-12-21 20:50:49 +0000";
layers = (
{
anchors = (
{
name = bottom;
position = "{371, 0}";
},
{
name = top;
position = "{371, 658}";
}
);
background = {
paths = (
{
closed = 1;
nodes = (
"410 625 OFFCURVE",
"520 530 OFFCURVE",
"572 389 OFFCURVE",
"572 309 QCURVE SMOOTH",
"572 239 OFFCURVE",
"527 116 OFFCURVE",
"431 33 OFFCURVE",
"367 33 QCURVE SMOOTH",
"293 33 OFFCURVE",
"183 128 OFFCURVE",
"131 270 OFFCURVE",
"131 350 QCURVE SMOOTH",
"131 459 OFFCURVE",
"241 625 OFFCURVE",
"336 625 QCURVE SMOOTH"
);
},
{
closed = 1;
nodes = (
"126 10 LINE",
"123 6 OFFCURVE",
"146 -10 OFFCURVE",
"155 -13 QCURVE",
"573 645 LINE",
"576 649 OFFCURVE",
"552 665 OFFCURVE",
"544 667 QCURVE"
);
},
{
closed = 1;
nodes = (
"32 188 OFFCURVE",
"219 -10 OFFCURVE",
"483 -10 OFFCURVE",
"671 188 OFFCURVE",
"671 468 OFFCURVE",
"483 667 OFFCURVE",
"219 667 OFFCURVE",
"32 468 OFFCURVE"
);
}
);
};
components = (
{
name = O;
},
{
name = slashlongcomb.case;
transform = "{1, 0, 0, 1, 0, 1}";
}
);
layerId = "0276F023-BC64-4582-8657-390FE5DB601E";
width = 741;
},
{
anchors = (
{
name = bottom;
position = "{367, 0}";
},
{
name = top;
position = "{367, 658}";
}
);
background = {
paths = (
{
closed = 1;
nodes = (
"397 611 OFFCURVE",
"471 556 OFFCURVE",
"509 463 OFFCURVE",
"526 364 OFFCURVE",
"526 309 QCURVE SMOOTH",
"526 198 OFFCURVE",
"451 46 OFFCURVE",
"376 46 QCURVE SMOOTH",
"327 46 OFFCURVE",
"253 105 OFFCURVE",
"214 200 OFFCURVE",
"195 299 OFFCURVE",
"195 350 QCURVE SMOOTH",
"195 422 OFFCURVE",
"222 534 OFFCURVE",
"292 611 OFFCURVE",
"345 611 QCURVE SMOOTH"
);
},
{
closed = 1;
nodes = (
"143 4 LINE",
"141 -3 OFFCURVE",
"181 -18 QCURVE",
"558 655 LINE",
"560 661 OFFCURVE",
"520 676 QCURVE"
);
},
{
closed = 1;
nodes = (
"39 188 OFFCURVE",
"228 -10 OFFCURVE",
"492 -10 OFFCURVE",
"682 188 OFFCURVE",
"682 468 OFFCURVE",
"492 667 OFFCURVE",
"228 667 OFFCURVE",
"39 468 OFFCURVE"
);
}
);
};
components = (
{
name = O;
},
{
name = slashlongcomb.case;
transform = "{1, 0, 0, 1, -3, 1}";
}
);
layerId = "E2E62ECD-1E64-44AC-9B50-C09427155398";
width = 733;
}
);
leftMetricsKey = O;
widthMetricsKey = O;
note = Oslash;
unicode = 00D8;
},
{
color = 3;
glyphname = Ohorn;
lastChange = "2019-01-09 12:03:25 +0000";
layers = (
{
anchors = (
{
name = bottom;
position = "{371, 0}";
},
{
name = top;
position = "{371, 658}";
}
);
background = {
paths = (
{
closed = 1;
nodes = (
"593 598 OFFCURVE",
"553 611 OFFCURVE",
"498 637 CURVE SMOOTH",
"453 657 OFFCURVE",
"410 667 OFFCURVE",
"367 667 CURVE SMOOTH",
"191 667 OFFCURVE",
"48 515 OFFCURVE",
"48 328 CURVE SMOOTH",
"48 235 OFFCURVE",
"79 155 OFFCURVE",
"142 89 CURVE SMOOTH",
"204 23 OFFCURVE",
"285 -10 OFFCURVE",
"367 -10 CURVE SMOOTH",
"449 -10 OFFCURVE",
"531 23 OFFCURVE",
"593 89 CURVE SMOOTH",
"656 155 OFFCURVE",
"687 235 OFFCURVE",
"687 328 CURVE SMOOTH",
"687 413 OFFCURVE",
"658 490 OFFCURVE",
"600 561 CURVE",
"605 561 LINE SMOOTH",
"662 561 OFFCURVE",
"720 600 OFFCURVE",
"720 653 CURVE SMOOTH",
"720 676 OFFCURVE",
"713 694 OFFCURVE",
"700 707 CURVE",
"655 707 OFFCURVE",
"632 696 OFFCURVE",
"632 674 CURVE SMOOTH",
"632 665 OFFCURVE",
"636 657 OFFCURVE",
"644 649 CURVE SMOOTH",
"652 640 OFFCURVE",
"656 634 OFFCURVE",
"656 630 CURVE SMOOTH",
"656 609 OFFCURVE",
"644 598 OFFCURVE",
"619 598 CURVE SMOOTH"
);
},
{
closed = 1;
nodes = (
"451 625 OFFCURVE",
"527 554 OFFCURVE",
"562 460 CURVE SMOOTH",
"579 413 OFFCURVE",
"588 362 OFFCURVE",
"588 309 CURVE SMOOTH",
"588 216 OFFCURVE",
"559 130 OFFCURVE",
"495 75 CURVE SMOOTH",
"463 47 OFFCURVE",
"426 33 OFFCURVE",
"383 33 CURVE SMOOTH",
"284 33 OFFCURVE",
"208 104 OFFCURVE",
"173 199 CURVE SMOOTH",
"156 246 OFFCURVE",
"147 297 OFFCURVE",
"147 350 CURVE SMOOTH",
"147 495 OFFCURVE",
"225 625 OFFCURVE",
"352 625 CURVE SMOOTH"
);
}
);
};
layerId = "0276F023-BC64-4582-8657-390FE5DB601E";
paths = (
{
closed = 1;
nodes = (
"723 676 OFFCURVE",
"710 707 OFFCURVE",
"675 707 CURVE SMOOTH",
"652 707 OFFCURVE",
"635 696 OFFCURVE",
"635 674 CURVE SMOOTH",
"635 652 OFFCURVE",
"659 643 OFFCURVE",
"659 625 CURVE SMOOTH",
"659 609 OFFCURVE",
"647 598 OFFCURVE",
"622 598 CURVE SMOOTH",
"596 598 OFFCURVE",
"556 611 OFFCURVE",
"501 637 CURVE SMOOTH",
"460 656 OFFCURVE",
"416 667 OFFCURVE",
"368 667 CURVE SMOOTH",
"194 667 OFFCURVE",
"51 515 OFFCURVE",
"51 326 CURVE SMOOTH",
"51 142 OFFCURVE",
"194 -10 OFFCURVE",
"369 -10 CURVE SMOOTH",
"552 -10 OFFCURVE",
"690 145 OFFCURVE",
"690 327 CURVE SMOOTH",
"690 429 OFFCURVE",
"648 519 OFFCURVE",
"582 582 CURVE",
"557 569 LINE",
"574 566 OFFCURVE",
"596 564 OFFCURVE",
"615 564 CURVE SMOOTH",
"677 564 OFFCURVE",
"723 600 OFFCURVE",
"723 653 CURVE SMOOTH"
);
},
{
closed = 1;
nodes = (
"239 33 OFFCURVE",
"150 181 OFFCURVE",
"150 350 CURVE SMOOTH",
"150 495 OFFCURVE",
"228 625 OFFCURVE",
"353 625 CURVE SMOOTH",
"501 625 OFFCURVE",
"591 478 OFFCURVE",
"591 309 CURVE SMOOTH",
"591 167 OFFCURVE",
"515 33 OFFCURVE",
"386 33 CURVE SMOOTH"
);
}
);
width = 741;
},
{
anchors = (
{
name = bottom;
position = "{367, 0}";
},
{
name = top;
position = "{367, 658}";
}
);
background = {
paths = (
{
closed = 1;
nodes = (
"740 679 OFFCURVE",
"730 711 OFFCURVE",
"721 720 CURVE",
"658 720 OFFCURVE",
"627 705 OFFCURVE",
"627 674 CURVE SMOOTH",
"627 665 OFFCURVE",
"631 656 OFFCURVE",
"638 645 CURVE SMOOTH",
"645 634 OFFCURVE",
"649 626 OFFCURVE",
"649 622 CURVE SMOOTH",
"649 609 OFFCURVE",
"637 603 OFFCURVE",
"613 603 CURVE SMOOTH",
"595 603 OFFCURVE",
"558 613 OFFCURVE",
"501 635 CURVE",
"459 656 OFFCURVE",
"412 668 OFFCURVE",
"362 668 CURVE SMOOTH",
"184 668 OFFCURVE",
"40 516 OFFCURVE",
"40 328 CURVE SMOOTH",
"40 140 OFFCURVE",
"183 -10 OFFCURVE",
"362 -10 CURVE SMOOTH",
"540 -10 OFFCURVE",
"683 140 OFFCURVE",
"683 328 CURVE SMOOTH",
"683 418 OFFCURVE",
"650 499 OFFCURVE",
"597 560 CURVE",
"603 557 OFFCURVE",
"610 556 OFFCURVE",
"619 556 CURVE SMOOTH",
"676 556 OFFCURVE",
"740 599 OFFCURVE",
"740 652 CURVE SMOOTH"
);
},
{
closed = 1;
nodes = (
"270 46 OFFCURVE",
"196 166 OFFCURVE",
"196 356 CURVE SMOOTH",
"196 514 OFFCURVE",
"252 611 OFFCURVE",
"346 611 CURVE SMOOTH",
"464 611 OFFCURVE",
"527 498 OFFCURVE",
"527 311 CURVE SMOOTH",
"527 144 OFFCURVE",
"469 46 OFFCURVE",
"377 46 CURVE SMOOTH"
);
}
);
};
layerId = "E2E62ECD-1E64-44AC-9B50-C09427155398";
paths = (
{
closed = 1;
nodes = (
"745 679 OFFCURVE",
"729 720 OFFCURVE",
"686 720 CURVE SMOOTH",
"657 720 OFFCURVE",
"632 705 OFFCURVE",
"632 674 CURVE SMOOTH",
"632 655 OFFCURVE",
"654 632 OFFCURVE",
"654 622 CURVE SMOOTH",
"654 609 OFFCURVE",
"642 603 OFFCURVE",
"618 603 CURVE SMOOTH",
"590 603 OFFCURVE",
"540 617 OFFCURVE",
"506 635 CURVE SMOOTH",
"465 656 OFFCURVE",
"417 668 OFFCURVE",
"367 668 CURVE SMOOTH",
"189 668 OFFCURVE",
"45 516 OFFCURVE",
"45 328 CURVE SMOOTH",
"45 140 OFFCURVE",
"188 -10 OFFCURVE",
"367 -10 CURVE SMOOTH",
"545 -10 OFFCURVE",
"688 140 OFFCURVE",
"688 328 CURVE SMOOTH",
"688 429 OFFCURVE",
"647 518 OFFCURVE",
"582 581 CURVE",
"581 566 LINE",
"593 561 OFFCURVE",
"611 556 OFFCURVE",
"637 556 CURVE SMOOTH",
"697 556 OFFCURVE",
"745 599 OFFCURVE",
"745 652 CURVE SMOOTH"
);
},
{
closed = 1;
nodes = (
"270 46 OFFCURVE",
"201 187 OFFCURVE",
"201 349 CURVE SMOOTH",
"201 497 OFFCURVE",
"259 611 OFFCURVE",
"351 611 CURVE SMOOTH",
"462 611 OFFCURVE",
"532 471 OFFCURVE",
"532 310 CURVE SMOOTH",
"532 164 OFFCURVE",
"475 46 OFFCURVE",
"380 46 CURVE SMOOTH"
);
}
);
width = 733;
}
);
leftMetricsKey = O;
widthMetricsKey = O;
note = Ohorn;
unicode = 01A0;
},
{
color = 3;
glyphname = Oogonek;
lastChange = "2018-11-29 11:09:16 +0000";
layers = (
{
anchors = (
{
name = center;
position = "{371, 329}";
},
{
name = top;
position = "{371, 658}";
},
{
name = topleft;
position = "{27, 658}";
},
{
name = topright;
position = "{715, 658}";
}
);
background = {
paths = (
{
closed = 1;
nodes = (
"552 -10 OFFCURVE",
"690 145 OFFCURVE",
"690 327 CURVE SMOOTH",
"690 515 OFFCURVE",
"546 667 OFFCURVE",
"368 667 CURVE SMOOTH",
"195 667 OFFCURVE",
"51 516 OFFCURVE",
"51 326 CURVE SMOOTH",
"51 142 OFFCURVE",
"194 -10 OFFCURVE",
"369 -10 CURVE SMOOTH"
);
},
{
closed = 1;
nodes = (
"239 33 OFFCURVE",
"150 181 OFFCURVE",
"150 350 CURVE SMOOTH",
"150 495 OFFCURVE",
"228 625 OFFCURVE",
"353 625 CURVE SMOOTH",
"501 625 OFFCURVE",
"591 478 OFFCURVE",
"591 309 CURVE SMOOTH",
"591 167 OFFCURVE",
"515 33 OFFCURVE",
"386 33 CURVE SMOOTH"
);
},
{
closed = 1;
nodes = (
"462 10 LINE",
"420 14 LINE",
"402 2 LINE",
"342 -37 OFFCURVE",
"290 -95 OFFCURVE",
"290 -146 CURVE SMOOTH",
"290 -182 OFFCURVE",
"312 -223 OFFCURVE",
"361 -223 CURVE SMOOTH",
"398 -223 OFFCURVE",
"438 -204 OFFCURVE",
"466 -157 CURVE SMOOTH",
"469 -152 OFFCURVE",
"471 -146 OFFCURVE",
"471 -139 CURVE SMOOTH",
"471 -130 OFFCURVE",
"469 -126 OFFCURVE",
"466 -126 CURVE",
"450 -143 OFFCURVE",
"419 -164 OFFCURVE",
"385 -164 CURVE SMOOTH",
"354 -164 OFFCURVE",
"344 -142 OFFCURVE",
"344 -121 CURVE SMOOTH",
"344 -81 OFFCURVE",
"396 -29 OFFCURVE",
"448 2 CURVE"
);
}
);
};
layerId = "0276F023-BC64-4582-8657-390FE5DB601E";
paths = (
{
closed = 1;
nodes = (
"398 -223 OFFCURVE",
"438 -204 OFFCURVE",
"466 -157 CURVE SMOOTH",
"469 -152 OFFCURVE",
"471 -146 OFFCURVE",
"471 -139 CURVE SMOOTH",
"471 -130 OFFCURVE",
"469 -126 OFFCURVE",
"466 -126 CURVE",
"450 -143 OFFCURVE",
"419 -164 OFFCURVE",
"385 -164 CURVE SMOOTH",
"354 -164 OFFCURVE",
"344 -142 OFFCURVE",
"344 -121 CURVE SMOOTH",
"344 -81 OFFCURVE",
"395 -26 OFFCURVE",
"491 15 CURVE SMOOTH",
"610 66 OFFCURVE",
"690 189 OFFCURVE",
"690 327 CURVE SMOOTH",
"690 515 OFFCURVE",
"546 667 OFFCURVE",
"368 667 CURVE SMOOTH",
"195 667 OFFCURVE",
"51 516 OFFCURVE",
"51 326 CURVE SMOOTH",
"51 142 OFFCURVE",
"194 -10 OFFCURVE",
"369 -10 CURVE SMOOTH",
"387 -10 OFFCURVE",
"406 -9 OFFCURVE",
"424 -5 CURVE",
"423 10 LINE",
"344 -30 OFFCURVE",
"290 -92 OFFCURVE",
"290 -146 CURVE SMOOTH",
"290 -182 OFFCURVE",
"312 -223 OFFCURVE",
"361 -223 CURVE SMOOTH"
);
},
{
closed = 1;
nodes = (
"239 33 OFFCURVE",
"150 181 OFFCURVE",
"150 350 CURVE SMOOTH",
"150 495 OFFCURVE",
"228 625 OFFCURVE",
"353 625 CURVE SMOOTH",
"501 625 OFFCURVE",
"591 478 OFFCURVE",
"591 309 CURVE SMOOTH",
"591 167 OFFCURVE",
"515 33 OFFCURVE",
"386 33 CURVE SMOOTH"
);
}
);
width = 741;
},
{
anchors = (
{
name = center;
position = "{368, 329}";
},
{
name = top;
position = "{368, 658}";
},
{
name = topleft;
position = "{40, 658}";
},
{
name = topright;
position = "{695, 658}";
}
);
background = {
paths = (
{
closed = 1;
nodes = (
"545 -10 OFFCURVE",
"688 140 OFFCURVE",
"688 328 CURVE SMOOTH",
"688 516 OFFCURVE",
"544 668 OFFCURVE",
"367 668 CURVE SMOOTH",
"189 668 OFFCURVE",
"45 516 OFFCURVE",
"45 328 CURVE SMOOTH",
"45 140 OFFCURVE",
"188 -10 OFFCURVE",
"367 -10 CURVE SMOOTH"
);
},
{
closed = 1;
nodes = (
"270 46 OFFCURVE",
"201 187 OFFCURVE",
"201 349 CURVE SMOOTH",
"201 497 OFFCURVE",
"259 611 OFFCURVE",
"351 611 CURVE SMOOTH",
"462 611 OFFCURVE",
"532 471 OFFCURVE",
"532 310 CURVE SMOOTH",
"532 164 OFFCURVE",
"475 46 OFFCURVE",
"380 46 CURVE SMOOTH"
);
},
{
closed = 1;
nodes = (
"466 10 LINE",
"432 10 LINE",
"410 3 LINE",
"347 -16 OFFCURVE",
"276 -87 OFFCURVE",
"276 -140 CURVE SMOOTH",
"276 -188 OFFCURVE",
"318 -218 OFFCURVE",
"357 -218 CURVE SMOOTH",
"406 -218 OFFCURVE",
"457 -178 OFFCURVE",
"480 -149 CURVE SMOOTH",
"484 -144 OFFCURVE",
"486 -136 OFFCURVE",
"486 -127 CURVE SMOOTH",
"486 -115 OFFCURVE",
"484 -109 OFFCURVE",
"481 -109 CURVE",
"465 -122 OFFCURVE",
"426 -142 OFFCURVE",
"401 -142 CURVE SMOOTH",
"378 -142 OFFCURVE",
"360 -130 OFFCURVE",
"360 -110 CURVE SMOOTH",
"360 -73 OFFCURVE",
"391 -35 OFFCURVE",
"454 2 CURVE"
);
}
);
};
layerId = "E2E62ECD-1E64-44AC-9B50-C09427155398";
paths = (
{
closed = 1;
nodes = (
"406 -218 OFFCURVE",
"457 -178 OFFCURVE",
"480 -149 CURVE SMOOTH",
"484 -144 OFFCURVE",
"486 -136 OFFCURVE",
"486 -127 CURVE SMOOTH",
"486 -115 OFFCURVE",
"484 -109 OFFCURVE",
"481 -109 CURVE",
"465 -122 OFFCURVE",
"426 -142 OFFCURVE",
"401 -142 CURVE SMOOTH",
"378 -142 OFFCURVE",
"360 -130 OFFCURVE",
"360 -110 CURVE SMOOTH",
"360 -73 OFFCURVE",
"391 -25 OFFCURVE",
"484 13 CURVE SMOOTH",
"604 62 OFFCURVE",
"688 184 OFFCURVE",
"688 328 CURVE SMOOTH",
"688 516 OFFCURVE",
"544 668 OFFCURVE",
"367 668 CURVE SMOOTH",
"189 668 OFFCURVE",
"45 516 OFFCURVE",
"45 328 CURVE SMOOTH",
"45 140 OFFCURVE",
"188 -10 OFFCURVE",
"367 -10 CURVE SMOOTH",
"382 -10 OFFCURVE",
"405 -8 OFFCURVE",
"418 -6 CURVE",
"416 3 LINE",
"346 -18 OFFCURVE",
"276 -87 OFFCURVE",
"276 -140 CURVE SMOOTH",
"276 -188 OFFCURVE",
"318 -218 OFFCURVE",
"357 -218 CURVE SMOOTH"
);
},
{
closed = 1;
nodes = (
"270 46 OFFCURVE",
"201 187 OFFCURVE",
"201 349 CURVE SMOOTH",
"201 497 OFFCURVE",
"259 611 OFFCURVE",
"351 611 CURVE SMOOTH",
"462 611 OFFCURVE",
"532 471 OFFCURVE",
"532 310 CURVE SMOOTH",
"532 164 OFFCURVE",
"475 46 OFFCURVE",
"380 46 CURVE SMOOTH"
);
}
);
width = 733;
}
);
unicode = 01EA;
},
{
color = 3;
glyphname = OE;
lastChange = "2018-11-27 13:19:58 +0000";
layers = (
{
anchors = (
{
name = bottom;
position = "{595, 0}";
},
{
name = top;
position = "{595, 658}";
}
);
background = {
paths = (
{
closed = 1;
nodes = (
"508 -3 OFFCURVE",
"511 2 OFFCURVE",
"593 2 CURVE SMOOTH",
"640 2 OFFCURVE",
"700 -1 OFFCURVE",
"773 -2 CURVE SMOOTH",
"846 -3 OFFCURVE",
"900 -4 OFFCURVE",
"934 -4 CURVE",
"938 29 OFFCURVE",
"977 134 OFFCURVE",
"988 162 CURVE",
"984 166 OFFCURVE",
"976 168 OFFCURVE",
"963 168 CURVE SMOOTH",
"955 168 OFFCURVE",
"950 166 OFFCURVE",
"949 162 CURVE",
"934 111 OFFCURVE",
"906 72 OFFCURVE",
"886 61 CURVE SMOOTH",
"864 49 OFFCURVE",
"822 44 OFFCURVE",
"760 44 CURVE SMOOTH",
"712 44 LINE SMOOTH",
"669 44 OFFCURVE",
"646 47 OFFCURVE",
"644 54 CURVE",
"638 71 OFFCURVE",
"635 102 OFFCURVE",
"635 145 CURVE SMOOTH",
"635 300 LINE SMOOTH",
"635 306 OFFCURVE",
"659 309 OFFCURVE",
"707 309 CURVE SMOOTH",
"769 309 OFFCURVE",
"803 307 OFFCURVE",
"812 301 CURVE SMOOTH",
"827 291 OFFCURVE",
"832 276 OFFCURVE",
"841 238 CURVE",
"843 233 OFFCURVE",
"848 230 OFFCURVE",
"857 230 CURVE SMOOTH",
"865 230 OFFCURVE",
"870 231 OFFCURVE",
"873 234 CURVE",
"873 423 LINE",
"870 426 OFFCURVE",
"864 428 OFFCURVE",
"856 428 CURVE SMOOTH",
"847 428 OFFCURVE",
"842 426 OFFCURVE",
"841 421 CURVE SMOOTH",
"835 389 OFFCURVE",
"827 367 OFFCURVE",
"813 361 CURVE SMOOTH",
"802 356 OFFCURVE",
"783 353 OFFCURVE",
"755 353 CURVE SMOOTH",
"678 353 LINE SMOOTH",
"649 353 OFFCURVE",
"635 355 OFFCURVE",
"635 359 CURVE SMOOTH",
"635 519 LINE SMOOTH",
"635 559 OFFCURVE",
"637 587 OFFCURVE",
"640 603 CURVE",
"641 612 OFFCURVE",
"671 616 OFFCURVE",
"728 616 CURVE SMOOTH",
"795 616 LINE SMOOTH",
"858 616 OFFCURVE",
"891 603 OFFCURVE",
"911 530 CURVE",
"912 525 OFFCURVE",
"916 523 OFFCURVE",
"925 523 CURVE SMOOTH",
"934 523 OFFCURVE",
"940 525 OFFCURVE",
"943 528 CURVE",
"940 546 OFFCURVE",
"920 621 OFFCURVE",
"914 664 CURVE",
"877 664 OFFCURVE",
"821 663 OFFCURVE",
"747 660 CURVE SMOOTH",
"673 657 OFFCURVE",
"621 656 OFFCURVE",
"591 656 CURVE SMOOTH",
"539 656 OFFCURVE",
"462 658 OFFCURVE",
"419 658 CURVE SMOOTH",
"212 658 OFFCURVE",
"73 521 OFFCURVE",
"73 319 CURVE SMOOTH",
"73 136 OFFCURVE",
"216 -3 OFFCURVE",
"428 -3 CURVE SMOOTH"
);
},
{
closed = 1;
nodes = (
"262 41 OFFCURVE",
"173 138 OFFCURVE",
"173 318 CURVE SMOOTH",
"173 514 OFFCURVE",
"250 612 OFFCURVE",
"403 612 CURVE SMOOTH",
"529 612 OFFCURVE",
"548 596 OFFCURVE",
"548 488 CURVE SMOOTH",
"548 142 LINE SMOOTH",
"548 52 OFFCURVE",
"529 41 OFFCURVE",
"438 41 CURVE SMOOTH"
);
}
);
};
layerId = "0276F023-BC64-4582-8657-390FE5DB601E";
paths = (
{
closed = 1;
nodes = (
"475 -8 OFFCURVE",
"534 2 OFFCURVE",
"596 2 CURVE SMOOTH",
"643 2 OFFCURVE",
"703 -1 OFFCURVE",
"776 -2 CURVE SMOOTH",
"849 -3 OFFCURVE",
"903 -4 OFFCURVE",
"937 -4 CURVE",
"941 29 OFFCURVE",
"980 134 OFFCURVE",
"991 162 CURVE",
"987 166 OFFCURVE",
"979 168 OFFCURVE",
"966 168 CURVE SMOOTH",
"958 168 OFFCURVE",
"953 166 OFFCURVE",
"952 162 CURVE",
"937 111 OFFCURVE",
"909 72 OFFCURVE",
"889 61 CURVE SMOOTH",
"867 49 OFFCURVE",
"825 44 OFFCURVE",
"763 44 CURVE SMOOTH",
"715 44 LINE SMOOTH",
"672 44 OFFCURVE",
"649 47 OFFCURVE",
"647 54 CURVE",
"641 71 OFFCURVE",
"638 102 OFFCURVE",
"638 145 CURVE SMOOTH",
"638 300 LINE SMOOTH",
"638 306 OFFCURVE",
"662 309 OFFCURVE",
"710 309 CURVE SMOOTH",
"772 309 OFFCURVE",
"806 307 OFFCURVE",
"815 301 CURVE SMOOTH",
"830 291 OFFCURVE",
"835 276 OFFCURVE",
"844 238 CURVE",
"846 233 OFFCURVE",
"851 230 OFFCURVE",
"860 230 CURVE SMOOTH",
"868 230 OFFCURVE",
"873 231 OFFCURVE",
"876 234 CURVE",
"876 423 LINE",
"873 426 OFFCURVE",
"867 428 OFFCURVE",
"859 428 CURVE SMOOTH",
"850 428 OFFCURVE",
"845 426 OFFCURVE",
"844 421 CURVE SMOOTH",
"838 389 OFFCURVE",
"830 367 OFFCURVE",
"816 361 CURVE SMOOTH",
"805 356 OFFCURVE",
"786 353 OFFCURVE",
"758 353 CURVE SMOOTH",
"681 353 LINE SMOOTH",
"652 353 OFFCURVE",
"638 355 OFFCURVE",
"638 359 CURVE SMOOTH",
"638 519 LINE SMOOTH",
"638 559 OFFCURVE",
"640 587 OFFCURVE",
"643 603 CURVE",
"644 612 OFFCURVE",
"674 616 OFFCURVE",
"731 616 CURVE SMOOTH",
"798 616 LINE SMOOTH",
"861 616 OFFCURVE",
"894 603 OFFCURVE",
"914 530 CURVE",
"915 525 OFFCURVE",
"919 523 OFFCURVE",
"928 523 CURVE SMOOTH",
"937 523 OFFCURVE",
"943 525 OFFCURVE",
"946 528 CURVE",
"943 546 OFFCURVE",
"923 621 OFFCURVE",
"917 664 CURVE",
"880 664 OFFCURVE",
"824 663 OFFCURVE",
"750 660 CURVE SMOOTH",
"676 657 OFFCURVE",
"624 656 OFFCURVE",
"594 656 CURVE SMOOTH",
"532 656 OFFCURVE",
"483 667 OFFCURVE",
"400 667 CURVE SMOOTH",
"187 667 OFFCURVE",
"51 515 OFFCURVE",
"51 328 CURVE SMOOTH",
"51 141 OFFCURVE",
"179 -8 OFFCURVE",
"405 -8 CURVE SMOOTH"
);
},
{
closed = 1;
nodes = (
"253 36 OFFCURVE",
"150 180 OFFCURVE",
"150 350 CURVE SMOOTH",
"150 495 OFFCURVE",
"228 623 OFFCURVE",
"395 623 CURVE SMOOTH",
"501 623 OFFCURVE",
"551 596 OFFCURVE",
"551 488 CURVE SMOOTH",
"551 192 LINE SMOOTH",
"551 62 OFFCURVE",
"517 36 OFFCURVE",
"423 36 CURVE SMOOTH"
);
}
);
width = 1014;
},
{
anchors = (
{
name = bottom;
position = "{617, 0}";
},
{
name = top;
position = "{617, 658}";
}
);
background = {
paths = (
{
closed = 1;
nodes = (
"447 -10 OFFCURVE",
"521 3 OFFCURVE",
"616 3 CURVE SMOOTH",
"662 3 OFFCURVE",
"722 1 OFFCURVE",
"796 0 CURVE SMOOTH",
"870 -1 OFFCURVE",
"924 -2 OFFCURVE",
"958 -2 CURVE",
"961 21 OFFCURVE",
"979 78 OFFCURVE",
"1012 170 CURVE",
"1008 174 OFFCURVE",
"998 176 OFFCURVE",
"982 176 CURVE SMOOTH",
"973 176 OFFCURVE",
"969 174 OFFCURVE",
"968 170 CURVE",
"952 129 OFFCURVE",
"919 92 OFFCURVE",
"896 80 CURVE SMOOTH",
"863 63 OFFCURVE",
"825 54 OFFCURVE",
"784 54 CURVE SMOOTH",
"758 54 LINE SMOOTH",
"716 54 OFFCURVE",
"693 59 OFFCURVE",
"690 70 CURVE SMOOTH",
"686 85 OFFCURVE",
"682 109 OFFCURVE",
"682 141 CURVE SMOOTH",
"682 295 LINE SMOOTH",
"682 301 OFFCURVE",
"706 304 OFFCURVE",
"754 304 CURVE SMOOTH",
"816 304 OFFCURVE",
"836 298 OFFCURVE",
"844 286 CURVE SMOOTH",
"848 280 OFFCURVE",
"855 259 OFFCURVE",
"860 238 CURVE",
"862 233 OFFCURVE",
"867 230 OFFCURVE",
"876 230 CURVE SMOOTH",
"887 230 OFFCURVE",
"894 231 OFFCURVE",
"897 234 CURVE",
"897 423 LINE",
"894 426 OFFCURVE",
"886 428 OFFCURVE",
"875 428 CURVE SMOOTH",
"866 428 OFFCURVE",
"861 426 OFFCURVE",
"860 421 CURVE",
"859 410 OFFCURVE",
"853 377 OFFCURVE",
"845 365 CURVE",
"841 362 OFFCURVE",
"819 359 OFFCURVE",
"778 359 CURVE SMOOTH",
"725 359 LINE SMOOTH",
"696 359 OFFCURVE",
"682 361 OFFCURVE",
"682 365 CURVE SMOOTH",
"682 519 LINE SMOOTH",
"682 555 OFFCURVE",
"684 581 OFFCURVE",
"687 597 CURVE",
"688 606 OFFCURVE",
"710 610 OFFCURVE",
"752 610 CURVE SMOOTH",
"790 610 LINE SMOOTH",
"842 610 OFFCURVE",
"905 569 OFFCURVE",
"930 518 CURVE",
"932 513 OFFCURVE",
"937 511 OFFCURVE",
"944 511 CURVE SMOOTH",
"956 511 OFFCURVE",
"964 513 OFFCURVE",
"967 516 CURVE",
"948 608 OFFCURVE",
"939 657 OFFCURVE",
"938 664 CURVE",
"900 664 OFFCURVE",
"844 662 OFFCURVE",
"770 661 CURVE SMOOTH",
"696 660 OFFCURVE",
"644 659 OFFCURVE",
"615 659 CURVE SMOOTH",
"566 659 OFFCURVE",
"457 667 OFFCURVE",
"391 667 CURVE SMOOTH",
"180 667 OFFCURVE",
"40 516 OFFCURVE",
"40 318 CURVE SMOOTH",
"40 141 OFFCURVE",
"165 -10 OFFCURVE",
"371 -10 CURVE SMOOTH"
);
},
{
closed = 1;
nodes = (
"270 46 OFFCURVE",
"196 171 OFFCURVE",
"196 350 CURVE SMOOTH",
"196 521 OFFCURVE",
"272 611 OFFCURVE",
"396 611 CURVE SMOOTH",
"484 611 OFFCURVE",
"542 570 OFFCURVE",
"542 459 CURVE SMOOTH",
"542 194 LINE SMOOTH",
"542 93 OFFCURVE",
"500 46 OFFCURVE",
"397 46 CURVE SMOOTH"
);
}
);
};
layerId = "E2E62ECD-1E64-44AC-9B50-C09427155398";
paths = (
{
closed = 1;
nodes = (
"462 -10 OFFCURVE",
"536 3 OFFCURVE",
"621 3 CURVE SMOOTH",
"667 3 OFFCURVE",
"727 1 OFFCURVE",
"801 0 CURVE SMOOTH",
"875 -1 OFFCURVE",
"929 -2 OFFCURVE",
"963 -2 CURVE",
"966 21 OFFCURVE",
"984 78 OFFCURVE",
"1017 170 CURVE",
"1013 174 OFFCURVE",
"1003 176 OFFCURVE",
"987 176 CURVE SMOOTH",
"978 176 OFFCURVE",
"974 174 OFFCURVE",
"973 170 CURVE",
"957 129 OFFCURVE",
"924 92 OFFCURVE",
"901 80 CURVE SMOOTH",
"868 63 OFFCURVE",
"830 54 OFFCURVE",
"789 54 CURVE SMOOTH",
"763 54 LINE SMOOTH",
"721 54 OFFCURVE",
"698 59 OFFCURVE",
"695 70 CURVE SMOOTH",
"691 85 OFFCURVE",
"687 109 OFFCURVE",
"687 141 CURVE SMOOTH",
"687 295 LINE SMOOTH",
"687 301 OFFCURVE",
"711 304 OFFCURVE",
"759 304 CURVE SMOOTH",
"821 304 OFFCURVE",
"841 298 OFFCURVE",
"849 286 CURVE SMOOTH",
"853 280 OFFCURVE",
"860 259 OFFCURVE",
"865 238 CURVE",
"867 233 OFFCURVE",
"872 230 OFFCURVE",
"881 230 CURVE SMOOTH",
"892 230 OFFCURVE",
"899 231 OFFCURVE",
"902 234 CURVE",
"902 423 LINE",
"899 426 OFFCURVE",
"891 428 OFFCURVE",
"880 428 CURVE SMOOTH",
"871 428 OFFCURVE",
"866 426 OFFCURVE",
"865 421 CURVE",
"864 410 OFFCURVE",
"858 377 OFFCURVE",
"850 365 CURVE",
"846 362 OFFCURVE",
"824 359 OFFCURVE",
"783 359 CURVE SMOOTH",
"730 359 LINE SMOOTH",
"701 359 OFFCURVE",
"687 361 OFFCURVE",
"687 365 CURVE SMOOTH",
"687 519 LINE SMOOTH",
"687 555 OFFCURVE",
"689 581 OFFCURVE",
"692 597 CURVE",
"693 606 OFFCURVE",
"715 610 OFFCURVE",
"757 610 CURVE SMOOTH",
"795 610 LINE SMOOTH",
"847 610 OFFCURVE",
"898 593 OFFCURVE",
"935 518 CURVE",
"937 513 OFFCURVE",
"942 511 OFFCURVE",
"949 511 CURVE SMOOTH",
"961 511 OFFCURVE",
"969 513 OFFCURVE",
"972 516 CURVE",
"953 608 OFFCURVE",
"944 657 OFFCURVE",
"943 664 CURVE",
"905 664 OFFCURVE",
"849 662 OFFCURVE",
"775 661 CURVE SMOOTH",
"701 660 OFFCURVE",
"649 659 OFFCURVE",
"620 659 CURVE SMOOTH",
"571 659 OFFCURVE",
"462 667 OFFCURVE",
"396 667 CURVE SMOOTH",
"185 667 OFFCURVE",
"45 516 OFFCURVE",
"45 318 CURVE SMOOTH",
"45 141 OFFCURVE",
"160 -10 OFFCURVE",
"406 -10 CURVE SMOOTH"
);
},
{
closed = 1;
nodes = (
"285 46 OFFCURVE",
"201 171 OFFCURVE",
"201 350 CURVE SMOOTH",
"201 521 OFFCURVE",
"277 611 OFFCURVE",
"401 611 CURVE SMOOTH",
"489 611 OFFCURVE",
"547 574 OFFCURVE",
"547 463 CURVE SMOOTH",
"547 184 LINE SMOOTH",
"547 83 OFFCURVE",
"505 46 OFFCURVE",
"412 46 CURVE SMOOTH"
);
}
);
width = 1047;
}
);
leftMetricsKey = O;
note = OE;
rightMetricsKey = E;
unicode = 0152;
},
{
color = 3;
glyphname = P;
lastChange = "2018-11-27 13:18:45 +0000";
layers = (
{
anchors = (
{
name = bottom;
position = "{270, 0}";
},
{
name = top;
position = "{270, 658}";
}
);
background = {
paths = (
{
closed = 1;
nodes = (
"38 658 LINE",
"34 654 OFFCURVE",
"34 641 QCURVE SMOOTH",
"34 629 OFFCURVE",
"38 629 QCURVE SMOOTH",
"51 629 OFFCURVE",
"104 615 OFFCURVE",
"107 607 QCURVE",
"114 580 OFFCURVE",
"114 521 QCURVE SMOOTH",
"114 143 LINE SMOOTH",
"114 61 OFFCURVE",
"107 49 QCURVE SMOOTH",
"102 40 OFFCURVE",
"52 28 OFFCURVE",
"38 28 QCURVE SMOOTH",
"35 28 OFFCURVE",
"35 15 QCURVE SMOOTH",
"35 0 OFFCURVE",
"38 -3 QCURVE",
"160 2 LINE",
"190 2 OFFCURVE",
"290 -3 QCURVE",
"292 3 OFFCURVE",
"292 12 QCURVE SMOOTH",
"292 26 OFFCURVE",
"288 26 QCURVE SMOOTH",
"275 26 OFFCURVE",
"214 42 OFFCURVE",
"209 55 QCURVE SMOOTH",
"201 75 OFFCURVE",
"201 142 QCURVE SMOOTH",
"201 499 LINE SMOOTH",
"201 547 OFFCURVE",
"204 595 OFFCURVE",
"208 608 OFFCURVE",
"213 609 QCURVE",
"238 616 OFFCURVE",
"283 616 QCURVE SMOOTH",
"348 616 OFFCURVE",
"410 533 OFFCURVE",
"410 462 QCURVE SMOOTH",
"410 404 OFFCURVE",
"338 320 OFFCURVE",
"288 320 QCURVE SMOOTH",
"251 320 OFFCURVE",
"221 331 QCURVE",
"219 332 OFFCURVE",
"218 328 QCURVE",
"215 312 OFFCURVE",
"221 305 QCURVE",
"242 277 OFFCURVE",
"298 277 QCURVE SMOOTH",
"348 277 OFFCURVE",
"429 318 OFFCURVE",
"477 381 OFFCURVE",
"502 448 OFFCURVE",
"502 477 QCURVE SMOOTH",
"502 526 OFFCURVE",
"462 600 OFFCURVE",
"399 640 OFFCURVE",
"332 660 OFFCURVE",
"299 660 QCURVE SMOOTH",
"270 660 OFFCURVE",
"188 656 OFFCURVE",
"158 656 QCURVE SMOOTH"
);
}
);
};
layerId = "0276F023-BC64-4582-8657-390FE5DB601E";
paths = (
{
closed = 1;
nodes = (
"121 656 OFFCURVE",
"81 657 OFFCURVE",
"41 659 CURVE",
"38 655 OFFCURVE",
"37 650 OFFCURVE",
"37 641 CURVE SMOOTH",
"37 633 OFFCURVE",
"38 629 OFFCURVE",
"41 629 CURVE SMOOTH",
"64 629 OFFCURVE",
"106 617 OFFCURVE",
"110 607 CURVE",
"115 589 OFFCURVE",
"117 560 OFFCURVE",
"117 521 CURVE SMOOTH",
"117 143 LINE SMOOTH",
"117 88 OFFCURVE",
"115 57 OFFCURVE",
"110 49 CURVE SMOOTH",
"105 40 OFFCURVE",
"66 28 OFFCURVE",
"41 28 CURVE SMOOTH",
"39 28 OFFCURVE",
"38 24 OFFCURVE",
"38 15 CURVE SMOOTH",
"38 5 OFFCURVE",
"39 -1 OFFCURVE",
"41 -3 CURVE",
"82 -1 OFFCURVE",
"122 2 OFFCURVE",
"163 2 CURVE SMOOTH",
"183 2 OFFCURVE",
"226 0 OFFCURVE",
"293 -3 CURVE",
"294 1 OFFCURVE",
"295 6 OFFCURVE",
"295 12 CURVE SMOOTH",
"295 21 OFFCURVE",
"294 26 OFFCURVE",
"291 26 CURVE SMOOTH",
"263 26 OFFCURVE",
"217 43 OFFCURVE",
"212 55 CURVE SMOOTH",
"207 68 OFFCURVE",
"204 97 OFFCURVE",
"204 142 CURVE SMOOTH",
"204 499 LINE SMOOTH",
"204 546 OFFCURVE",
"205 596 OFFCURVE",
"211 609 CURVE",
"233 614 OFFCURVE",
"256 616 OFFCURVE",
"276 616 CURVE SMOOTH",
"368 616 OFFCURVE",
"413 562 OFFCURVE",
"413 462 CURVE SMOOTH",
"413 365 OFFCURVE",
"358 322 OFFCURVE",
"291 322 CURVE SMOOTH",
"266 322 OFFCURVE",
"243 324 OFFCURVE",
"223 331 CURVE",
"223 331 OFFCURVE",
"220 330 OFFCURVE",
"220 318 CURVE SMOOTH",
"220 312 OFFCURVE",
"221 309 OFFCURVE",
"224 305 CURVE SMOOTH",
"238 286 OFFCURVE",
"264 277 OFFCURVE",
"311 277 CURVE SMOOTH",
"410 277 OFFCURVE",
"505 370 OFFCURVE",
"505 477 CURVE SMOOTH",
"505 583 OFFCURVE",
"420 660 OFFCURVE",
"292 660 CURVE SMOOTH",
"273 660 OFFCURVE",
"200 656 OFFCURVE",
"161 656 CURVE SMOOTH"
);
}
);
width = 545;
},
{
anchors = (
{
name = bottom;
position = "{291, 0}";
},
{
name = top;
position = "{291, 658}";
}
);
background = {
paths = (
{
closed = 1;
nodes = (
"119 659 OFFCURVE",
"29 664 QCURVE",
"26 661 OFFCURVE",
"26 645 QCURVE SMOOTH",
"26 627 OFFCURVE",
"30 627 QCURVE SMOOTH",
"41 627 OFFCURVE",
"94 607 OFFCURVE",
"97 599 QCURVE",
"103 576 OFFCURVE",
"103 521 QCURVE SMOOTH",
"103 143 LINE SMOOTH",
"103 78 OFFCURVE",
"97 55 QCURVE",
"94 47 OFFCURVE",
"43 33 OFFCURVE",
"31 33 QCURVE SMOOTH",
"27 33 OFFCURVE",
"27 13 QCURVE SMOOTH",
"27 0 OFFCURVE",
"31 -4 QCURVE",
"177 2 LINE",
"210 2 OFFCURVE",
"330 -4 QCURVE",
"332 2 OFFCURVE",
"332 14 QCURVE SMOOTH",
"332 33 OFFCURVE",
"328 33 QCURVE SMOOTH",
"313 33 OFFCURVE",
"253 47 OFFCURVE",
"250 59 QCURVE SMOOTH",
"243 90 OFFCURVE",
"243 141 QCURVE SMOOTH",
"243 499 LINE SMOOTH",
"243 588 OFFCURVE",
"255 597 QCURVE SMOOTH",
"266 605 OFFCURVE",
"301 605 QCURVE SMOOTH",
"393 605 OFFCURVE",
"393 468 QCURVE SMOOTH",
"393 332 OFFCURVE",
"309 332 QCURVE SMOOTH",
"277 332 OFFCURVE",
"264 340 QCURVE",
"259 340 OFFCURVE",
"261 308 OFFCURVE",
"265 302 QCURVE SMOOTH",
"267 299 OFFCURVE",
"283 290 OFFCURVE",
"315 280 OFFCURVE",
"331 280 QCURVE SMOOTH",
"420 280 OFFCURVE",
"545 398 OFFCURVE",
"545 479 QCURVE SMOOTH",
"545 543 OFFCURVE",
"467 630 OFFCURVE",
"363 662 OFFCURVE",
"304 662 QCURVE SMOOTH",
"274 662 OFFCURVE",
"205 659 OFFCURVE",
"176 659 QCURVE SMOOTH"
);
}
);
};
layerId = "E2E62ECD-1E64-44AC-9B50-C09427155398";
paths = (
{
closed = 1;
nodes = (
"143 659 OFFCURVE",
"94 661 OFFCURVE",
"34 664 CURVE",
"32 662 OFFCURVE",
"31 656 OFFCURVE",
"31 645 CURVE SMOOTH",
"31 633 OFFCURVE",
"32 627 OFFCURVE",
"35 627 CURVE SMOOTH",
"53 627 OFFCURVE",
"99 608 OFFCURVE",
"102 599 CURVE",
"106 584 OFFCURVE",
"108 558 OFFCURVE",
"108 521 CURVE SMOOTH",
"108 143 LINE SMOOTH",
"108 100 OFFCURVE",
"106 70 OFFCURVE",
"102 55 CURVE",
"99 47 OFFCURVE",
"57 33 OFFCURVE",
"36 33 CURVE SMOOTH",
"33 33 OFFCURVE",
"32 26 OFFCURVE",
"32 13 CURVE SMOOTH",
"32 4 OFFCURVE",
"33 -1 OFFCURVE",
"36 -4 CURVE",
"85 -2 OFFCURVE",
"133 2 OFFCURVE",
"182 2 CURVE SMOOTH",
"204 2 OFFCURVE",
"255 0 OFFCURVE",
"345 -4 CURVE",
"346 0 OFFCURVE",
"347 6 OFFCURVE",
"347 14 CURVE SMOOTH",
"347 27 OFFCURVE",
"346 33 OFFCURVE",
"343 33 CURVE SMOOTH",
"301 33 OFFCURVE",
"258 47 OFFCURVE",
"255 59 CURVE SMOOTH",
"250 80 OFFCURVE",
"248 107 OFFCURVE",
"248 141 CURVE SMOOTH",
"248 499 LINE SMOOTH",
"248 558 OFFCURVE",
"252 591 OFFCURVE",
"260 597 CURVE SMOOTH",
"267 602 OFFCURVE",
"281 605 OFFCURVE",
"294 605 CURVE SMOOTH",
"365 605 OFFCURVE",
"398 559 OFFCURVE",
"398 468 CURVE SMOOTH",
"398 377 OFFCURVE",
"370 332 OFFCURVE",
"314 332 CURVE SMOOTH",
"293 332 OFFCURVE",
"278 335 OFFCURVE",
"268 340 CURVE",
"266 338 OFFCURVE",
"265 332 OFFCURVE",
"265 325 CURVE SMOOTH",
"265 316 OFFCURVE",
"270 307 OFFCURVE",
"271 306 CURVE SMOOTH",
"281 289 OFFCURVE",
"315 280 OFFCURVE",
"346 280 CURVE SMOOTH",
"453 280 OFFCURVE",
"550 360 OFFCURVE",
"550 469 CURVE SMOOTH",
"550 597 OFFCURVE",
"445 662 OFFCURVE",
"306 662 CURVE SMOOTH",
"279 662 OFFCURVE",
"222 659 OFFCURVE",
"181 659 CURVE SMOOTH"
);
}
);
width = 582;
}
);
note = P;
unicode = 0050;
},
